<svg width="50" height="70" viewBox="0 0 50 70" fill="none" xmlns="http://www.w3.org/2000/svg">
<g clip-path="url(#clip0_75_708)">
<path d="M13.6577 3.71938C15.1916 -1.65521 22.8084 -1.65521 24.3423 3.71938L27.0731 13.2884C27.8959 16.1715 30.858 17.8817 33.7662 17.1527L43.4187 14.7332C48.8401 13.3742 52.6486 19.9706 48.7609 23.9862L41.8393 31.1358C39.7539 33.2899 39.7539 36.7101 41.8393 38.8642L48.7609 46.0138C52.6486 50.0294 48.8401 56.6258 43.4187 55.2668L33.7662 52.8473C30.858 52.1183 27.8959 53.8285 27.0731 56.7116L24.3423 66.2806C22.8084 71.6552 15.1916 71.6552 13.6577 66.2806L10.9269 56.7116C10.1041 53.8285 7.14204 52.1183 4.23381 52.8473L-5.41868 55.2668C-10.8401 56.6258 -14.6486 50.0294 -10.7609 46.0138L-3.83933 38.8642C-1.7539 36.7101 -1.7539 33.2899 -3.83933 31.1358L-10.7609 23.9862C-14.6486 19.9706 -10.8401 13.3742 -5.41868 14.7332L4.23381 17.1527C7.14204 17.8817 10.1041 16.1715 10.9269 13.2884L13.6577 3.71938Z" fill="#B0D194"/>
</g>
<defs>
<clipPath id="clip0_75_708">
<rect width="50" height="70" fill="white"/>
</clipPath>
</defs>
</svg>
