<?xml version="1.0" encoding="utf-8"?>
<!-- Generator: Adobe Illustrator 27.4.0, SVG Export Plug-In . SVG Version: 6.00 Build 0)  -->
<svg version="1.1" id="Layer_1" xmlns="http://www.w3.org/2000/svg" xmlns:xlink="http://www.w3.org/1999/xlink" x="0px" y="0px"
	 viewBox="0 0 478.3 478.3" style="enable-background:new 0 0 478.3 478.3;" xml:space="preserve">
<style type="text/css">
	.st0{fill:#EFEFEF;stroke:#303030;stroke-width:3;stroke-miterlimit:10;}
	.st1{fill:#303030;}
</style>
<path class="st0" d="M30,0h418.3c16.6,0,30,13.4,30,30v418.3c0,16.6-13.4,30-30,30H30c-16.6,0-30-13.4-30-30V30C0,13.4,13.4,0,30,0z
	"/>
<path class="st1" d="M455.2,49.6c0-14.3-11.6-26-26-26h0h-92.6H49c-14.3,0-26,11.6-26,26v40.8c0,14.3,11.6,26,26,26h104.6
	c7.1,0,12.8,5.7,12.8,12.8V349c0,7.1-5.7,12.8-12.8,12.8h-25c-7.1,0-12.8-5.7-12.8-12.8V223c0-14.3-11.6-26-26-26H49.2
	c-14.3,0-26,11.6-26,26v205.6c0,14.3,11.6,26,26,26h47.9h18.8h141.7c14.3,0,26-11.6,26-26v-16.4h0.2v-283c0-7.1,5.7-12.8,12.8-12.8
	h27.4c7.1,0,12.8,5.7,12.8,12.8v299.5c0,14.3,11.6,26,26,26h66.2c14.3,0,26-11.6,26-26V95.6c0,0,0,0,0-0.1c0.3-1.5,0.4-3.1,0.4-4.7
	V49.6z"/>
</svg>
