<?xml version="1.0" encoding="UTF-8"?><svg id="Layer_1" xmlns="http://www.w3.org/2000/svg" viewBox="0 0 478.28 478.28"><defs><style>.cls-1{fill:#303030;}.cls-2{fill:#ddd;}</style></defs><rect class="cls-2" width="478.28" height="478.28" rx="29.97" ry="29.97"/><polygon class="cls-1" points="136.51 144.93 379.61 144.93 341.77 106.08 98.67 106.08 136.51 144.93"/><path class="cls-1" d="m177.01,144.93v120.7c0,8.08-1.85,25.69-12.92,14.54-1.33-1.34-.77,4.38-3.24,2.43,38.98,41.64,71.88,60.2,71.88-5.56h0v-132.1"/><path class="cls-1" d="m368.33,144.93h-112.78v213.55l53.4,33.73.03-195.04c0-28.43,22.46-52.25,59.35-52.25"/><polygon class="cls-1" points="117.74 233.48 175.16 291.32 172.31 294.15 114.93 236.28 117.74 233.48"/><rect class="cls-2" x="308.98" y="144.93" width="63.67" height="63.67"/></svg>