<?xml version="1.0" encoding="utf-8"?>
<!-- Generator: Adobe Illustrator 27.4.0, SVG Export Plug-In . SVG Version: 6.00 Build 0)  -->
<svg version="1.1" id="Layer_1" xmlns="http://www.w3.org/2000/svg" xmlns:xlink="http://www.w3.org/1999/xlink" x="0px" y="0px"
	 viewBox="0 0 478.3 478.3" style="enable-background:new 0 0 478.3 478.3;" xml:space="preserve">
<style type="text/css">
	.st0{fill:#EFEFEF;}
	.st1{fill:#303030;}
</style>
<path class="st0" d="M30,0h418.3c16.6,0,30,13.4,30,30v418.3c0,16.6-13.4,30-30,30H30c-16.6,0-30-13.4-30-30V30C0,13.4,13.4,0,30,0z
	"/>
<polygon class="st1" points="136.5,144.9 379.6,144.9 341.8,106.1 98.7,106.1 "/>
<path class="st1" d="M177,144.9v120.7c0,8.1-1.9,25.7-12.9,14.5c-1.3-1.3-0.8,4.4-3.2,2.4c39,41.6,71.9,60.2,71.9-5.6l0,0V144.9"/>
<path class="st1" d="M368.3,144.9H255.5v213.5l53.4,33.7l0-195C309,168.7,331.4,144.9,368.3,144.9"/>
<polygon class="st1" points="117.7,233.5 175.2,291.3 172.3,294.1 114.9,236.3 "/>
<rect x="309" y="144.9" class="st0" width="63.7" height="63.7"/>
</svg>
