<?xml version="1.0" encoding="utf-8"?>
<!-- Generator: Adobe Illustrator 27.4.0, SVG Export Plug-In . SVG Version: 6.00 Build 0)  -->
<svg version="1.1" id="Layer_1" xmlns="http://www.w3.org/2000/svg" xmlns:xlink="http://www.w3.org/1999/xlink" x="0px" y="0px"
	 viewBox="0 0 478.3 478.3" style="enable-background:new 0 0 478.3 478.3;" xml:space="preserve">
<style type="text/css">
	.st0{fill:#333333;}
	.st1{fill:#EFEFEF;}
</style>
<path class="st0" d="M30,0h418.3c16.6,0,30,13.4,30,30v418.3c0,16.6-13.4,30-30,30H30c-16.6,0-30-13.4-30-30V30C0,13.4,13.4,0,30,0z
	"/>
<path class="st1" d="M445.2,58.3c0-13.6-11.1-24.8-24.8-24.8l0,0h-88.3H57.7c-13.6,0-24.8,11.1-24.8,24.8v38.9
	c0,13.6,11.1,24.8,24.8,24.8h99.8c6.8,0,12.2,5.4,12.2,12.2v209.7c0,6.8-5.4,12.2-12.2,12.2h-23.8c-6.8,0-12.2-5.4-12.2-12.2V223.7
	c0-13.6-11.1-24.8-24.8-24.8H57.9c-13.6,0-24.8,11.1-24.8,24.8v196.1c0,13.6,11.1,24.8,24.8,24.8h45.7h17.9h135.2
	c13.6,0,24.8-11.1,24.8-24.8v-15.6h0.2v-270c0-6.8,5.4-12.2,12.2-12.2H320c6.8,0,12.2,5.4,12.2,12.2V420c0,13.6,11.1,24.8,24.8,24.8
	h63.2c13.6,0,24.8-11.1,24.8-24.8V102.2c0,0,0,0,0-0.1c0.3-1.4,0.4-3,0.4-4.5V58.3H445.2z"/>
</svg>
