<?xml version="1.0" encoding="UTF-8"?><svg id="Layer_1" xmlns="http://www.w3.org/2000/svg" xmlns:xlink="http://www.w3.org/1999/xlink" viewBox="0 0 671.04 654.97"><defs><style>.cls-1{fill:#bababa;}.cls-2{fill:#424242;}.cls-3{fill:#191919;}.cls-4{fill:#777;filter:url(#drop-shadow-1);}</style><filter id="drop-shadow-1" filterUnits="userSpaceOnUse"><feOffset dx="0" dy="23"/><feGaussianBlur result="blur" stdDeviation="25"/><feFlood flood-color="#000" flood-opacity=".5"/><feComposite in2="blur" operator="in"/><feComposite in="SourceGraphic"/></filter></defs><path class="cls-4" d="m579.06,560.7H93.66c-18.26,0-33.06-14.8-33.06-33.06V57.68C60.6,28.87,109.02,0,137.78,0h397.15c24.3,0,77.2,25.43,77.18,56.86v470.78c0,18.26-14.8,33.06-33.06,33.06Z"/><path class="cls-2" d="m579.06,560.7H93.66c-12.56-.66-18.65-4.44-25.58-12l65.02-139.18h406.06l66.79,137.36s-2.98,4.37-9.07,8.62c-7.65,5.35-17.82,5.21-17.82,5.21Z"/><rect class="cls-1" x="126.36" width="420" height="420" rx="29.97" ry="29.97"/><polygon class="cls-3" points="233.89 115.79 476.99 115.79 439.15 76.93 196.05 76.93 233.89 115.79"/><path class="cls-3" d="m274.39,115.79v120.7c0,8.08-1.85,25.69-12.92,14.54-1.33-1.34-.77,4.38-3.24,2.43,38.98,41.64,71.88,60.2,71.88-5.56h0V115.79"/><path class="cls-3" d="m465.71,115.79h-112.78v213.55l53.4,33.73.03-195.04c0-28.43,22.46-52.25,59.35-52.25"/><polygon class="cls-3" points="215.12 204.34 272.54 262.18 269.69 265.01 212.31 207.14 215.12 204.34"/><rect class="cls-1" x="406.36" y="115.79" width="63.67" height="63.67"/></svg>