<?xml version="1.0" encoding="UTF-8"?><svg id="Layer_1" xmlns="http://www.w3.org/2000/svg" viewBox="0 0 632.54 967.84"><polygon points="90.22 378.3 632.54 378.3 542.33 285.66 0 285.66 90.22 378.3"/><path d="m149.53,378.3v287.75c0,19.26-4.41,61.24-30.8,34.67-3.18-3.2-1.83,10.43-7.72,5.79,92.93,99.28,171.37,143.51,171.37-13.26h0v-314.94"/><path d="m605.65,378.3h-268.89v509.13l127.32,80.41.08-464.99c0-67.77,53.55-124.56,141.49-124.56"/><polygon points="8.21 589.4 145.11 727.29 138.32 734.04 1.52 596.07 8.21 589.4"/><path d="m318.1,285.66C226.09,212.18,510.51,162.86,246.64,0c117.86,80.08-204.9,115.24,71.46,285.66Z"/></svg>