<svg width="50" height="70" viewBox="0 0 50 70" fill="none" xmlns="http://www.w3.org/2000/svg">
<g clip-path="url(#clip0_75_711)">
<path d="M25.6577 3.71938C27.1916 -1.65521 34.8084 -1.65521 36.3423 3.71938L39.0731 13.2884C39.8959 16.1715 42.858 17.8817 45.7662 17.1527L55.4187 14.7332C60.8401 13.3742 64.6486 19.9706 60.7609 23.9862L53.8393 31.1358C51.7539 33.2899 51.7539 36.7101 53.8393 38.8642L60.7609 46.0138C64.6486 50.0294 60.8401 56.6258 55.4187 55.2668L45.7662 52.8473C42.858 52.1183 39.8959 53.8285 39.0731 56.7116L36.3423 66.2806C34.8084 71.6552 27.1916 71.6552 25.6577 66.2806L22.9269 56.7116C22.1041 53.8285 19.142 52.1183 16.2338 52.8473L6.58132 55.2668C1.15987 56.6258 -2.64856 50.0294 1.23905 46.0138L8.16067 38.8642C10.2461 36.7101 10.2461 33.2899 8.16067 31.1358L1.23906 23.9862C-2.64856 19.9706 1.15986 13.3742 6.58132 14.7332L16.2338 17.1527C19.142 17.8817 22.1041 16.1715 22.9269 13.2884L25.6577 3.71938Z" fill="#D8BCE9"/>
</g>
<defs>
<clipPath id="clip0_75_711">
<rect width="50" height="70" fill="white"/>
</clipPath>
</defs>
</svg>
