<svg width="420" height="129" viewBox="0 0 420 129" fill="none" xmlns="http://www.w3.org/2000/svg">
<g clip-path="url(#clip0_293_128974)">
<g opacity="0.8">
<path d="M146.964 18L156.107 26.3011C147.025 35.0953 143.152 52.8789 150.272 66.9949C161.378 89.0112 150.971 105.737 138.375 111.891L131.081 102.141C139.69 97.9903 151.905 85.3949 141.652 63.7689C136.968 53.896 131.8 37.6329 146.964 18.0103V18Z" fill="#010101"/>
<path d="M129.817 68.3921C123.674 54.4405 121.485 33.5954 127.167 29.64L118.023 21.3389C110.112 32.0851 114.078 49.992 119.564 59.4437C99.8183 38.465 73.8363 60.543 86.6269 78.9431L98.1745 93.4494C112.26 107.298 140.512 92.6789 129.827 68.3921H129.817ZM119.02 83.3813C112.64 90.994 99.9826 90.9426 93.9726 85.4052C89.7809 81.5423 90.3768 68.6181 98.7087 64.1182C105.109 60.656 112.116 58.6835 120.386 63.0806C124.732 69.5735 123.232 78.3677 119.02 83.3813Z" fill="#010101"/>
</g>
<g filter="url(#filter0_d_293_128974)">
<path d="M346.874 59.2656C340.648 59.2656 338.007 64.5539 338.007 69.3814V81.29C338.007 104.797 374.6 109.043 374.6 85.6368V43.481C375.142 20.9559 338.429 21.7872 338.429 42.8L346.211 42.83C346.211 31.3922 365.472 29.98 365.422 43.481V85.6368C365.422 95.7726 347.045 95.9829 347.045 81.29V73.1673C347.045 69.3914 350.057 67.5686 353.602 67.5686H392.645V96.4536C392.645 109.183 413 111.467 413 94.4505L404.956 94.4005C405.157 99.3382 401.743 98.6971 401.743 96.4536V33.7458C401.743 18.1415 380.886 18.0013 380.966 33.826H389.241C389.241 30.3305 392.645 28.9483 392.645 33.7458V59.2757H346.874V59.2656Z" fill="url(#paint0_linear_293_128974)"/>
</g>
<path d="M401.899 71.6766C401.507 71.7943 401.115 71.7943 400.723 71.6766C401.115 71.6766 401.507 71.6766 401.899 71.6766Z" fill="#FBFAF9"/>
<path d="M380.681 58C380.812 58.2353 380.733 58.4968 380.746 58.7321C380.589 58.4968 380.694 58.2353 380.681 58Z" fill="#FBFAF9"/>
<path d="M260.698 26.1875H321.046" stroke="#414042" stroke-width="0.905014" stroke-miterlimit="10"/>
<path d="M286.976 103.131L272.464 92.4261V28.8541L286.976 39.5724V103.131Z" fill="#414042" stroke="#414042" stroke-width="0.553064" stroke-miterlimit="10"/>
<path d="M286.316 102.717L312.192 121.837" stroke="#414042" stroke-width="0.553064" stroke-miterlimit="10"/>
<path d="M311.209 105.397L296.697 94.6785V28.8541L311.209 39.5724V105.397Z" fill="#414042" stroke="#414042" stroke-width="0.553064" stroke-miterlimit="10"/>
<path d="M311.208 105.733L305.526 112.775L291.468 102.523L296.697 94.6786" fill="#414042"/>
<path d="M311.208 105.733L305.526 112.775L291.468 102.523L296.697 94.6786" stroke="#414042" stroke-width="0.553064" stroke-miterlimit="10"/>
<path d="M298.056 16.3753L311.351 26.1875" stroke="#414042" stroke-width="0.854736" stroke-miterlimit="10"/>
<path d="M298.095 16.3235H272.465L261.28 8H286.717L298.057 16.3753" fill="#414042"/>
<path d="M298.095 16.3235H272.465L261.28 8H286.717L298.057 16.3753" stroke="#414042" stroke-width="0.854736" stroke-miterlimit="10"/>
<g opacity="0.7">
<path d="M245.195 36.291L231.856 31.5393V98.6356C231.856 104.761 226.274 106.951 222.367 106.078C222.367 106.078 206.538 102.5 195.875 96.8465C193.084 95.3723 191.295 94.0127 191.309 87.7582L191.352 64.2716C192.168 64.8012 197.593 68.1789 201.113 65.9891C202.702 65.0016 203.804 63.327 203.804 61.2661C203.804 49.8448 203.804 39.5686 203.418 34.4304C203.346 33.4715 203.26 31.2102 200.827 29.922C198.394 28.6339 183.151 21.3919 178.443 19.8605L178.099 20.8051C180.747 21.9501 185.227 23.6962 187.703 25.0129C190.179 26.3296 189.935 28.2761 190.007 29.235C190.393 34.3732 190.393 44.6494 190.393 56.0707C190.393 58.1316 190.193 58.9761 188.576 59.9207C185.957 61.4378 179.044 56.9724 178.228 56.4571H178.113L178.07 83.7221C178.07 89.9766 179.845 91.3363 182.636 92.8104C193.299 98.4638 218.718 107.481 232.443 110C239.614 111.316 245.224 108.282 245.224 100.997" fill="#B7B7B8"/>
<path d="M210.288 48.7999C210.488 54.9399 210.388 57.2156 210.388 68.6225Z" fill="#B7B7B8"/>
<path d="M243.049 59.7632C243.02 58.8043 242.591 56.5429 240.157 55.2548C237.681 53.9381 219.963 46.1092 215.297 44.2916C210.846 42.5168 208.241 45.0644 208.241 48.8L208.341 68.6225C208.37 69.7103 207.998 73.4744 212.477 75.7215C217.272 78.2691 228.221 82.4482 230.697 83.765C231.513 84.2945 236.937 86.4986 240.458 84.3089C242.047 83.3213 243.149 81.6468 243.149 79.5858C243.149 68.1645 243.249 65.8889 243.049 59.7632ZM229.237 74.7339C229.237 76.8378 227.52 78.5696 225.401 78.5696C223.298 78.5696 221.566 76.8521 221.566 74.7339V55.4266C221.566 53.3227 223.283 51.5909 225.401 51.5909C227.505 51.5909 229.237 53.3083 229.237 55.4266V74.7339Z" fill="#B7B7B8"/>
</g>
<path d="M242.648 34.4306L229.309 29.6789V96.7751C229.309 102.901 223.727 105.091 219.82 104.217C219.82 104.217 203.99 100.639 193.327 94.986C190.537 93.5119 188.747 92.1522 188.762 85.8977L188.805 62.4112C189.621 62.9407 195.045 66.3184 198.566 64.1287C200.154 63.1411 201.256 61.4666 201.256 59.4056C201.256 47.9843 201.256 37.7081 200.87 32.57C200.798 31.611 200.713 29.3497 198.279 28.0616C195.846 26.7735 180.604 19.5314 175.895 18L175.552 18.9446C178.199 20.0896 182.679 21.8357 185.155 23.1524C187.631 24.4692 187.388 26.4157 187.459 27.3746C187.846 32.5127 187.846 42.789 187.846 54.2102C187.846 56.2712 187.645 57.1156 186.028 58.0602C183.409 59.5773 176.496 55.1119 175.68 54.5966H175.566L175.523 81.8616C175.523 88.1161 177.298 89.4758 180.089 90.95C190.751 96.6033 216.17 105.62 229.895 108.139C237.066 109.456 242.676 106.422 242.676 99.1366" fill="#A03333"/>
<path d="M240.515 57.9169C240.487 56.958 240.057 54.6966 237.624 53.4085C235.148 52.0918 217.429 44.2629 212.764 42.4453C208.312 40.6705 205.708 43.2181 205.708 46.9536L205.808 66.7762C205.836 67.864 205.464 71.6281 209.944 73.8751C214.739 76.4227 225.688 80.6019 228.164 81.9187C228.98 82.4482 234.404 84.6523 237.925 82.4625C239.513 81.475 240.615 79.8004 240.615 77.7395C240.615 66.3182 240.716 64.0426 240.515 57.9169ZM226.704 72.8876C226.704 74.9915 224.986 76.7233 222.868 76.7233C220.764 76.7233 219.032 75.0058 219.032 72.8876V53.5803C219.032 51.4763 220.75 49.7445 222.868 49.7445C224.972 49.7445 226.704 51.462 226.704 53.5803V72.8876Z" fill="#A03333"/>
<path d="M8.61224 58.0628L22.2871 76.5665C23.5941 78.1507 25.7834 80.7148 28.8385 82.9685C38.8373 90.3341 53.6885 78.4937 46.173 67.8781L41.0593 60.9372H56.2372V93.0125L66.1379 101.031V37.5176H91.9518L82.6882 27H56.2372V50.8115H26.7146L34.2464 62.162C36.0599 62.0967 38.2492 62.0804 39.1314 62.799C41.7128 64.9221 40.0137 70.6381 35.1776 72.7613C34.0667 73.2512 27.5152 76.8932 20.5716 70.4422C15.997 66.1959 4.28271 49.9623 4.28271 49.9623C3.74356 49.211 2.61624 47.9208 0.753719 47.1696C-6.33692 44.3279 -8.70592 50.1583 -9 50.3869L0.900767 58.4057C1.96273 56.1846 5.50804 54.1595 8.61224 58.0465V58.0628Z" fill="url(#paint1_linear_293_128974)"/>
</g>
<defs>
<filter id="filter0_d_293_128974" x="338" y="21.9929" width="78.6904" height="88.3048" filterUnits="userSpaceOnUse" color-interpolation-filters="sRGB">
<feFlood flood-opacity="0" result="BackgroundImageFix"/>
<feColorMatrix in="SourceAlpha" type="matrix" values="0 0 0 0 0 0 0 0 0 0 0 0 0 0 0 0 0 0 127 0" result="hardAlpha"/>
<feOffset dx="1.84174" dy="1.84174"/>
<feGaussianBlur stdDeviation="0.924396"/>
<feColorMatrix type="matrix" values="0 0 0 0 0.137255 0 0 0 0 0.121569 0 0 0 0 0.12549 0 0 0 0.2 0"/>
<feBlend mode="normal" in2="BackgroundImageFix" result="effect1_dropShadow_293_128974"/>
<feBlend mode="normal" in="SourceGraphic" in2="effect1_dropShadow_293_128974" result="shape"/>
</filter>
<linearGradient id="paint0_linear_293_128974" x1="338.007" y1="64.3035" x2="413" y2="64.3035" gradientUnits="userSpaceOnUse">
<stop stop-color="#DD1A21"/>
<stop offset="0.16" stop-color="#E93E3A"/>
<stop offset="0.52" stop-color="#ED683C"/>
<stop offset="0.74" stop-color="#EC3562"/>
<stop offset="1" stop-color="#EC008C"/>
</linearGradient>
<linearGradient id="paint1_linear_293_128974" x1="41.4677" y1="101.048" x2="41.4677" y2="27.0163" gradientUnits="userSpaceOnUse">
<stop stop-color="#FDE2E0"/>
<stop offset="0.05" stop-color="#F9BCC0"/>
<stop offset="0.1" stop-color="#F69AA3"/>
<stop offset="0.14" stop-color="#F3828F"/>
<stop offset="0.19" stop-color="#F27483"/>
<stop offset="0.22" stop-color="#F26F7F"/>
<stop offset="0.59" stop-color="#D7085F"/>
<stop offset="1" stop-color="#BA0052"/>
</linearGradient>
<clipPath id="clip0_293_128974">
<rect width="420" height="129" fill="white"/>
</clipPath>
</defs>
</svg>
