<svg width="420" height="200" viewBox="0 0 420 200" fill="none" xmlns="http://www.w3.org/2000/svg">
<g clip-path="url(#clip0_91_1245)">
<rect width="420" height="200" rx="29" fill="#FAF8F5"/>
<path d="M271.759 110.437C269.144 113.053 268.055 117.846 270.831 120.621C273.607 123.397 278.425 122.368 281.015 119.693C284.947 115.753 287.563 103.966 287.563 103.966C287.563 103.966 275.691 106.497 271.759 110.437Z" fill="white"/>
<path d="M257.567 113.855C260.098 116.437 264.731 117.441 267.431 114.749C270.131 112.058 269.051 107.417 266.519 104.902C262.655 101.156 251.281 98.625 251.281 98.625C251.281 98.625 253.813 110.032 257.567 113.855Z" fill="white"/>
<path d="M269.177 101.156H268.823C268.222 101.156 267.734 101.644 267.734 102.245V124.537C267.734 125.138 268.222 125.625 268.823 125.625H269.177C269.778 125.625 270.266 125.138 270.266 124.537V102.245C270.266 101.644 269.778 101.156 269.177 101.156Z" fill="#B7CDE1"/>
<path d="M268.857 102C271.589 102 274.238 101.052 276.35 99.3182C278.463 97.5843 279.908 95.1716 280.441 92.4912C280.974 89.8108 280.561 87.0286 279.273 84.6185C277.985 82.2084 275.9 80.3196 273.376 79.2739C270.851 78.2282 268.041 78.0904 265.426 78.8838C262.811 79.6773 260.552 81.353 259.034 83.6254C257.515 85.8978 256.832 88.6263 257.1 91.346C257.368 94.0657 258.571 96.6083 260.503 98.5406C261.6 99.6375 262.903 100.508 264.336 101.101C265.769 101.695 267.305 102 268.857 102V102Z" fill="#FEB452"/>
<path fill-rule="evenodd" clip-rule="evenodd" d="M263.136 84.1045H274.586V85.5304H269.751C270.377 86.189 270.781 87.0269 270.907 87.9267H274.586V89.3442H270.882C270.762 90.0365 270.476 90.6892 270.046 91.2451C269.617 91.8011 269.058 92.2434 268.418 92.5336L271.911 98.4398H270.291L267.009 92.8373H263.136V91.3945H266.798C267.567 91.3871 268.304 91.0852 268.857 90.5507C269.233 90.1861 269.501 89.7249 269.633 89.2176H263.136V87.7832H269.717C269.545 87.1376 269.166 86.5658 268.64 86.1547C268.113 85.7436 267.466 85.5155 266.798 85.5051H263.136V84.1045Z" fill="white"/>
<g style="mix-blend-mode:multiply">
<path d="M271.759 110.437C269.144 113.053 268.055 117.846 270.831 120.621C273.607 123.397 278.425 122.368 281.015 119.693C284.947 115.753 287.563 103.966 287.563 103.966C287.563 103.966 275.691 106.497 271.759 110.437Z" fill="#36A168"/>
</g>
<g style="mix-blend-mode:multiply">
<path d="M257.567 113.855C260.098 116.437 264.731 117.441 267.431 114.749C270.131 112.058 269.051 107.417 266.519 104.902C262.655 101.156 251.281 98.625 251.281 98.625C251.281 98.625 253.813 110.032 257.567 113.855Z" fill="#36A168"/>
</g>
<path d="M408.969 97.7812C413.163 97.7812 416.562 94.3814 416.562 90.1875C416.562 85.9936 413.163 82.5938 408.969 82.5938C404.775 82.5938 401.375 85.9936 401.375 90.1875C401.375 94.3814 404.775 97.7812 408.969 97.7812Z" fill="white"/>
<path d="M374.375 123.094H421.625V107.788H420.781C411.559 107.788 408.125 102.844 406.437 93.4444C404.75 84.045 397.865 80.9062 390.406 80.9062C382.947 80.9062 376.906 85.9688 376.906 93.4444V94.2881C376.957 92.9944 377.518 91.7735 378.467 90.8926C379.416 90.0118 380.675 89.5428 381.969 89.5884C383.251 89.5851 384.486 90.0684 385.426 90.9407C386.366 91.813 386.939 93.0093 387.031 94.2881C387.031 96.0938 387.031 101.156 376.062 101.156H374.375V123.094Z" fill="#B7CDE1"/>
<g style="mix-blend-mode:multiply">
<path d="M421.625 118.875H374.375V123.094H421.625V118.875Z" fill="#42CACD"/>
</g>
<g style="mix-blend-mode:multiply">
<path d="M376.906 101.156C382.5 101.156 392.094 101.156 392.094 92.7183C392.094 83.4371 376.906 80.0621 376.906 93.444V94.2877C376.957 92.994 377.518 91.7731 378.467 90.8922C379.416 90.0114 380.675 89.5424 381.969 89.588C383.251 89.5847 384.486 90.068 385.426 90.9403C386.366 91.8126 386.939 93.0089 387.031 94.2877C387.031 96.0933 387.031 101.156 376.062 101.156" fill="#42CACD"/>
</g>
<g style="mix-blend-mode:multiply">
<path d="M408.969 97.7812C413.163 97.7812 416.562 94.3814 416.562 90.1875C416.562 85.9936 413.163 82.5938 408.969 82.5938C404.775 82.5938 401.375 85.9936 401.375 90.1875C401.375 94.3814 404.775 97.7812 408.969 97.7812Z" fill="#FEB452"/>
</g>
<rect x="7.9375" y="80.9062" width="10.125" height="2.53125" rx="1.26562" fill="white"/>
<path d="M17.4887 107.602C17.4236 106.187 16.8157 104.851 15.7912 103.872C14.7667 102.893 13.4044 102.346 11.9875 102.346C10.5705 102.346 9.20822 102.893 8.18373 103.872C7.15925 104.851 6.5513 106.187 6.48621 107.602C6.35504 106.239 5.72057 104.973 4.70657 104.052C3.69256 103.13 2.37176 102.62 1.00183 102.62C-0.368102 102.62 -1.6889 103.13 -2.70291 104.052C-3.71691 104.973 -4.35138 106.239 -4.48255 107.602C-4.52473 115.854 6.48621 121.406 6.48621 121.406C6.48621 121.406 17.4887 115.854 17.4887 107.602Z" fill="white"/>
<path d="M17.4635 94.3213H18.3072C21.6037 94.3856 24.7403 95.7536 27.0302 98.1258C29.3201 100.498 30.5767 103.681 30.5247 106.978V124.021C30.5249 124.46 30.3541 124.882 30.0485 125.197C29.7429 125.512 29.3266 125.696 28.8879 125.709H6.84911C6.40867 125.696 5.99078 125.511 5.68473 125.194C5.38119 124.879 5.21179 124.459 5.21223 124.021V106.978C5.16034 103.675 6.42151 100.487 8.71868 98.1141C11.0159 95.7409 14.1611 94.3768 17.4635 94.3213V94.3213Z" fill="white"/>
<path d="M17.8684 93.4775C19.3703 93.4775 20.8385 93.0322 22.0873 92.1978C23.3361 91.3634 24.3094 90.1774 24.8841 88.7898C25.4589 87.4022 25.6093 85.8754 25.3162 84.4023C25.0232 82.9293 24.3 81.5762 23.238 80.5142C22.176 79.4522 20.8229 78.729 19.3499 78.436C17.8768 78.1429 16.35 78.2933 14.9624 78.8681C13.5748 79.4428 12.3888 80.4161 11.5544 81.6649C10.72 82.9137 10.2747 84.3819 10.2747 85.8838C10.2747 87.8978 11.0747 89.8293 12.4988 91.2534C13.9229 92.6775 15.8544 93.4775 17.8684 93.4775V93.4775Z" fill="white"/>
<g style="mix-blend-mode:multiply">
<path d="M17.4635 94.3213H18.3072C21.6037 94.3856 24.7403 95.7536 27.0302 98.1258C29.3201 100.498 30.5767 103.681 30.5247 106.978V124.021C30.5249 124.46 30.3541 124.882 30.0485 125.197C29.7429 125.512 29.3266 125.696 28.8879 125.709H6.84911C6.40867 125.696 5.99078 125.511 5.68473 125.194C5.38119 124.879 5.21179 124.459 5.21223 124.021V106.978C5.16034 103.675 6.42151 100.487 8.71868 98.1141C11.0159 95.7409 14.1611 94.3768 17.4635 94.3213V94.3213Z" fill="#B7CDE1"/>
</g>
<g style="mix-blend-mode:multiply">
<path d="M17.8684 93.4775C19.3703 93.4775 20.8385 93.0322 22.0873 92.1978C23.3361 91.3634 24.3094 90.1774 24.8841 88.7898C25.4589 87.4022 25.6093 85.8754 25.3162 84.4023C25.0232 82.9293 24.3 81.5762 23.238 80.5142C22.176 79.4522 20.8229 78.729 19.3499 78.436C17.8768 78.1429 16.35 78.2933 14.9624 78.8681C13.5748 79.4428 12.3888 80.4161 11.5544 81.6649C10.72 82.9137 10.2747 84.3819 10.2747 85.8838C10.2747 87.8978 11.0747 89.8293 12.4988 91.2534C13.9229 92.6775 15.8544 93.4775 17.8684 93.4775V93.4775Z" fill="#B7CDE1"/>
</g>
<g style="mix-blend-mode:multiply">
<path d="M17.4887 107.602C17.4236 106.187 16.8157 104.851 15.7912 103.872C14.7667 102.893 13.4044 102.346 11.9875 102.346C10.5705 102.346 9.20822 102.893 8.18373 103.872C7.15925 104.851 6.5513 106.187 6.48621 107.602C6.35504 106.239 5.72057 104.973 4.70657 104.052C3.69256 103.13 2.37176 102.62 1.00183 102.62C-0.368102 102.62 -1.6889 103.13 -2.70291 104.052C-3.71691 104.973 -4.35138 106.239 -4.48255 107.602C-4.52473 115.854 6.48621 121.406 6.48621 121.406C6.48621 121.406 17.4887 115.854 17.4887 107.602Z" fill="#F05656"/>
</g>
<g style="mix-blend-mode:multiply">
<path d="M15.9429 90.5274C15.7726 91.0051 16.0217 91.5387 16.5211 91.6271C17.0828 91.7265 17.6585 91.738 18.2273 91.6594C19.1004 91.5388 19.9317 91.2095 20.6505 90.6994C21.3694 90.1894 21.9548 89.5135 22.357 88.7292C22.619 88.2183 22.7982 87.6711 22.8899 87.1081C22.9714 86.6075 22.55 86.1961 22.0429 86.1992L21.8544 86.2003C21.3472 86.2034 20.9505 86.6239 20.8204 87.114C20.7572 87.3524 20.6684 87.5841 20.5551 87.8051C20.3013 88.2999 19.9321 88.7262 19.4787 89.0479C19.0253 89.3697 18.5009 89.5774 17.9502 89.6534C17.7042 89.6874 17.4561 89.6947 17.2102 89.6757C16.7046 89.6366 16.1766 89.8722 16.0063 90.3498L15.9429 90.5274Z" fill="#B7CDE1"/>
</g>
<g style="mix-blend-mode:multiply">
<rect x="7.9375" y="80.9062" width="10.125" height="2.53125" rx="1.26562" fill="#B7CDE1"/>
</g>
<path d="M202.662 14.3125H181.4C181.064 14.3125 180.742 14.4458 180.505 14.6832C180.268 14.9205 180.134 15.2425 180.134 15.5781C180.134 15.9138 180.268 16.2357 180.505 16.4731C180.742 16.7104 181.064 16.8438 181.4 16.8438H202.662C202.998 16.8438 203.32 16.7104 203.557 16.4731C203.795 16.2357 203.928 15.9138 203.928 15.5781C203.928 15.2425 203.795 14.9205 203.557 14.6832C203.32 14.4458 202.998 14.3125 202.662 14.3125V14.3125Z" fill="white"/>
<path d="M195.052 20.2188H181.417C181.081 20.2188 180.759 20.3521 180.522 20.5894C180.285 20.8268 180.151 21.1487 180.151 21.4844C180.151 21.82 180.285 22.142 180.522 22.3793C180.759 22.6167 181.081 22.75 181.417 22.75H195.052C195.388 22.75 195.71 22.6167 195.947 22.3793C196.184 22.142 196.318 21.82 196.318 21.4844C196.318 21.1487 196.184 20.8268 195.947 20.5894C195.71 20.3521 195.388 20.2188 195.052 20.2188Z" fill="white"/>
<path d="M197.17 -7.02592L184.193 5.95096C184.004 6.14087 183.853 6.364 183.746 6.60908C183.645 6.85846 183.593 7.12488 183.594 7.39377V37.9375L189.669 35.9125L197.769 39.9625L207.894 35.9125L217.006 39.9625L224.094 37.9375V-5.59998C224.095 -5.86622 224.043 -6.13005 223.942 -6.37624C223.841 -6.62242 223.691 -6.8461 223.503 -7.03436C223.315 -7.22262 223.091 -7.37174 222.845 -7.47311C222.599 -7.57448 222.335 -7.6261 222.069 -7.62498H198.613C198.344 -7.62524 198.077 -7.57368 197.828 -7.47311C197.583 -7.36591 197.36 -7.2143 197.17 -7.02592Z" fill="#B7CDE1"/>
<g style="mix-blend-mode:multiply">
<path d="M196.756 -6.6123V3.80801C196.762 4.03673 196.721 4.26425 196.636 4.47672C196.551 4.6892 196.424 4.88219 196.262 5.04398C196.101 5.20576 195.908 5.33296 195.695 5.41783C195.483 5.50271 195.255 5.54349 195.027 5.53769H184.606L196.756 -6.6123Z" fill="#42CACD"/>
</g>
<g style="mix-blend-mode:multiply">
<path d="M202.662 14.3125H181.4C181.064 14.3125 180.742 14.4458 180.505 14.6832C180.268 14.9205 180.134 15.2425 180.134 15.5781C180.134 15.9138 180.268 16.2357 180.505 16.4731C180.742 16.7104 181.064 16.8438 181.4 16.8438H202.662C202.998 16.8438 203.32 16.7104 203.557 16.4731C203.795 16.2357 203.928 15.9138 203.928 15.5781C203.928 15.2425 203.795 14.9205 203.557 14.6832C203.32 14.4458 202.998 14.3125 202.662 14.3125V14.3125Z" fill="#42CACD"/>
</g>
<g style="mix-blend-mode:multiply">
<path d="M195.052 20.2188H181.417C181.081 20.2188 180.759 20.3521 180.522 20.5894C180.285 20.8268 180.151 21.1487 180.151 21.4844C180.151 21.82 180.285 22.142 180.522 22.3793C180.759 22.6167 181.081 22.75 181.417 22.75H195.052C195.388 22.75 195.71 22.6167 195.947 22.3793C196.184 22.142 196.318 21.82 196.318 21.4844C196.318 21.1487 196.184 20.8268 195.947 20.5894C195.71 20.3521 195.388 20.2188 195.052 20.2188Z" fill="#42CACD"/>
</g>
<path d="M50.8391 14.0516L61.6307 15.4016L73.7722 3.25999L65.6807 1.90999C65.372 1.80589 65.0418 1.78225 64.7214 1.8413C64.4011 1.90036 64.101 2.04016 63.8497 2.24749L50.8391 14.0516Z" fill="white"/>
<path d="M75.9997 39.1607L74.6497 28.3691L86.7912 16.2275L88.1412 24.3275C88.2397 24.632 88.2596 24.9564 88.1991 25.2706C88.1386 25.5848 87.9997 25.8786 87.7953 26.1247L75.9997 39.1607Z" fill="white"/>
<path d="M56.8634 24.2352C58.0382 23.0615 59.6312 22.4025 61.2918 22.4033C62.9525 22.4041 64.5448 23.0646 65.7185 24.2394C66.8922 25.4142 67.5512 27.0072 67.5504 28.6678C67.5496 30.3285 66.8891 31.9208 65.7143 33.0946C59.5212 39.2877 51.5478 40.1736 50.6618 39.2877C49.7759 38.4017 50.6618 30.4367 56.8634 24.2352Z" fill="#F7993B"/>
<g style="mix-blend-mode:multiply">
<path d="M59.226 24.2099C59.647 23.7894 60.1468 23.4559 60.6967 23.2286C61.2466 23.0012 61.8359 22.8844 62.431 22.8848C63.026 22.8852 63.6152 23.0028 64.1648 23.2308C64.7144 23.4589 65.2137 23.793 65.6342 24.2141C66.0547 24.6351 66.3882 25.1349 66.6156 25.6848C66.8429 26.2347 66.9597 26.824 66.9593 27.4191C66.9589 28.0142 66.8413 28.6033 66.6133 29.1529C66.3852 29.7025 66.0511 30.2019 65.63 30.6224C61.1497 35.1027 55.3785 35.7439 54.7372 35.1027C54.096 34.4614 54.7372 28.6986 59.226 24.2099Z" fill="#F05656"/>
</g>
<path d="M82.0661 -4.16534C91.5077 -8.2069 97.6249 -7.5319 97.6249 -7.5319C97.6249 -7.5319 98.2999 -1.46534 94.2499 7.97623C92.2249 12.7012 84.8083 20.1178 84.8083 20.1178L73.2996 31.5928L58.458 16.7512L69.9246 5.28466C69.9246 5.28466 77.3749 -2.14034 82.0661 -4.16534Z" fill="#B7CDE1"/>
<path d="M59.8098 18.1006L71.9511 30.2418L70.9666 31.2263C70.8654 31.3275 70.728 31.3844 70.5848 31.3844C70.4416 31.3844 70.3042 31.3275 70.203 31.2263L58.8015 19.8248C58.7105 19.7217 58.6623 19.5877 58.6668 19.4502C58.6712 19.3127 58.7279 19.1821 58.8254 19.085L59.8098 18.1006Z" fill="#F7993B"/>
<g style="mix-blend-mode:multiply">
<path d="M50.8389 14.0516L61.6304 15.4016L73.772 3.25999L65.6804 1.90999C65.3717 1.80589 65.0416 1.78225 64.7212 1.8413C64.4008 1.90036 64.1008 2.04016 63.8495 2.24749L50.8389 14.0516Z" fill="#42CACD"/>
</g>
<g style="mix-blend-mode:multiply">
<path d="M75.9997 39.1616L74.6497 28.3701L86.7912 16.2285L88.1412 24.3285C88.2397 24.633 88.2596 24.9573 88.1991 25.2715C88.1386 25.5857 87.9997 25.8796 87.7953 26.1257L75.9997 39.1616Z" fill="#42CACD"/>
</g>
<g style="mix-blend-mode:multiply">
<path d="M86.7237 7.03141C88.8067 7.03141 90.4953 5.34282 90.4953 3.25984C90.4953 1.17687 88.8067 -0.511719 86.7237 -0.511719C84.6407 -0.511719 82.9521 1.17687 82.9521 3.25984C82.9521 5.34282 84.6407 7.03141 86.7237 7.03141Z" fill="#B7CDE1"/>
</g>
<g style="mix-blend-mode:multiply">
<path d="M86.673 5.73184C87.9778 5.73184 89.0355 4.67411 89.0355 3.36934C89.0355 2.06456 87.9778 1.00684 86.673 1.00684C85.3683 1.00684 84.3105 2.06456 84.3105 3.36934C84.3105 4.67411 85.3683 5.73184 86.673 5.73184Z" fill="#42CACD"/>
</g>
<path d="M80.7499 13.3759C81.3659 12.4477 80.8934 10.8446 80.0749 10.0009C79.2565 9.15712 77.6618 8.75212 76.7421 9.35962L62.5081 27.5424L80.7499 13.3759Z" fill="#42CACD"/>
<g clip-path="url(#clip1_91_1245)">
<path d="M337.442 -5.09402L335.046 33.246C335.033 33.4959 334.924 33.7311 334.742 33.9025C334.559 34.0739 334.318 34.1682 334.067 34.1657H328.06C327.811 34.1641 327.571 34.0685 327.39 33.8979C327.208 33.7273 327.098 33.4945 327.081 33.246L324.685 -5.09402V-4.60465C324.685 -6.2964 325.357 -7.91886 326.553 -9.11511C327.749 -10.3114 329.372 -10.9834 331.064 -10.9834C332.755 -10.9834 334.378 -10.3114 335.574 -9.11511C336.77 -7.91886 337.442 -6.2964 337.442 -4.60465" fill="white"/>
<path d="M342.547 23.5938C340.461 23.5938 338.422 22.9752 336.687 21.8163C334.953 20.6574 333.601 19.0102 332.803 17.083C332.005 15.1558 331.796 13.0352 332.203 10.9893C332.61 8.94339 333.614 7.06412 335.089 5.58911C336.564 4.11411 338.443 3.10961 340.489 2.70266C342.535 2.29571 344.656 2.50457 346.583 3.30284C348.51 4.10111 350.157 5.45293 351.316 7.18735C352.475 8.92177 353.094 10.9609 353.094 13.0469C353.087 15.842 351.974 18.5208 349.997 20.4973C348.021 22.4737 345.342 23.5871 342.547 23.5938V23.5938Z" fill="white"/>
<g style="mix-blend-mode:multiply">
<path d="M344.445 37.9375H317.681C317.481 37.9375 317.319 38.0999 317.319 38.3003V42.6372C317.319 42.8376 317.481 43 317.681 43H344.445C344.646 43 344.808 42.8376 344.808 42.6372V38.3003C344.808 38.0999 344.646 37.9375 344.445 37.9375Z" fill="white"/>
</g>
<path d="M348.917 29.5332H313.21C312.767 29.5332 312.408 29.8921 312.408 30.3348V39.5316C312.408 39.9743 312.767 40.3332 313.21 40.3332H348.917C349.36 40.3332 349.719 39.9743 349.719 39.5316V30.3348C349.719 29.8921 349.36 29.5332 348.917 29.5332Z" fill="#B7CDE1"/>
<g style="mix-blend-mode:multiply">
<path d="M344.445 37.9375H317.681C317.481 37.9375 317.319 38.0999 317.319 38.3003V42.6372C317.319 42.8376 317.481 43 317.681 43H344.445C344.646 43 344.808 42.8376 344.808 42.6372V38.3003C344.808 38.0999 344.646 37.9375 344.445 37.9375Z" fill="#42CACD"/>
</g>
<g style="mix-blend-mode:multiply">
<path d="M337.442 -5.09402L335.046 33.246C335.033 33.4959 334.924 33.7311 334.742 33.9025C334.559 34.0739 334.318 34.1682 334.067 34.1657H328.06C327.811 34.1641 327.571 34.0685 327.39 33.8979C327.208 33.7273 327.098 33.4945 327.081 33.246L324.685 -5.09402V-4.60465C324.685 -6.2964 325.357 -7.91886 326.553 -9.11511C327.749 -10.3114 329.372 -10.9834 331.064 -10.9834C332.755 -10.9834 334.378 -10.3114 335.574 -9.11511C336.77 -7.91886 337.442 -6.2964 337.442 -4.60465" fill="#B7CDE1"/>
</g>
<g style="mix-blend-mode:multiply">
<path d="M342.547 23.5938C340.461 23.5938 338.422 22.9752 336.687 21.8163C334.953 20.6574 333.601 19.0102 332.803 17.083C332.005 15.1558 331.796 13.0352 332.203 10.9893C332.61 8.94339 333.614 7.06412 335.089 5.58911C336.564 4.11411 338.443 3.10961 340.489 2.70266C342.535 2.29571 344.656 2.50457 346.583 3.30284C348.51 4.10111 350.157 5.45293 351.316 7.18735C352.475 8.92178 353.094 10.9609 353.094 13.0469C353.087 15.842 351.974 18.5208 349.997 20.4973C348.021 22.4737 345.342 23.5871 342.547 23.5938V23.5938Z" fill="#42CACD"/>
</g>
<path fill-rule="evenodd" clip-rule="evenodd" d="M340.328 14.1355C340.425 14.2334 340.541 14.3112 340.668 14.3642C340.796 14.4173 340.932 14.4446 341.07 14.4446C341.208 14.4446 341.345 14.4173 341.472 14.3642C341.6 14.3112 341.715 14.2334 341.813 14.1355L345.854 10.0939C345.928 10.0202 346.015 9.96168 346.112 9.92177C346.208 9.88187 346.311 9.86133 346.415 9.86133C346.52 9.86133 346.623 9.88187 346.719 9.92177C346.815 9.96168 346.903 10.0202 346.976 10.0939V10.0939C347.05 10.1676 347.109 10.255 347.149 10.3513C347.188 10.4476 347.209 10.5508 347.209 10.655C347.209 10.7592 347.188 10.8624 347.149 10.9587C347.109 11.055 347.05 11.1424 346.976 11.2161L341.627 16.557C341.555 16.6315 341.468 16.6908 341.373 16.7312C341.277 16.7716 341.174 16.7925 341.07 16.7925C340.966 16.7925 340.864 16.7716 340.768 16.7312C340.672 16.6908 340.586 16.6315 340.513 16.557L338.117 14.1692C338.043 14.0956 337.985 14.0081 337.945 13.9118C337.905 13.8155 337.885 13.7123 337.885 13.6081C337.885 13.5039 337.905 13.4007 337.945 13.3044C337.985 13.2081 338.043 13.1207 338.117 13.047V13.047C338.191 12.9733 338.278 12.9148 338.374 12.8749C338.471 12.835 338.574 12.8145 338.678 12.8145C338.782 12.8145 338.886 12.835 338.982 12.8749C339.078 12.9148 339.166 12.9733 339.239 13.047L340.328 14.1355Z" fill="white"/>
</g>
<path d="M134 107.062C141.922 107.062 148.344 100.641 148.344 92.7188C148.344 84.7969 141.922 78.375 134 78.375C126.078 78.375 119.656 84.7969 119.656 92.7188C119.656 100.641 126.078 107.062 134 107.062Z" fill="white"/>
<path d="M137.577 124.857C137.324 125.245 137.046 125.186 136.97 124.731L133.105 102.895C133.08 102.791 133.08 102.683 133.104 102.579C133.128 102.475 133.176 102.379 133.244 102.297C133.312 102.215 133.398 102.15 133.496 102.107C133.593 102.064 133.699 102.045 133.806 102.051H142.505C142.741 102.058 142.967 102.146 143.147 102.299C143.326 102.453 143.448 102.663 143.492 102.895L147.356 124.731C147.432 125.186 147.179 125.355 146.791 125.102L140.935 121.322C140.843 121.261 140.738 121.218 140.629 121.197C140.52 121.176 140.407 121.177 140.298 121.2C140.189 121.223 140.086 121.267 139.994 121.33C139.902 121.393 139.823 121.473 139.763 121.567L137.577 124.857Z" fill="#B7CDE1"/>
<path d="M130.33 124.925C130.633 125.279 130.954 125.186 131.03 124.731L134.894 102.895C134.919 102.791 134.92 102.683 134.896 102.579C134.872 102.475 134.824 102.379 134.756 102.297C134.688 102.215 134.602 102.15 134.504 102.107C134.407 102.064 134.3 102.045 134.194 102.051H125.495C125.259 102.058 125.033 102.146 124.853 102.299C124.674 102.453 124.552 102.663 124.508 102.895L120.643 124.731C120.567 125.186 120.804 125.33 121.175 125.051L126.06 121.406C126.243 121.269 126.471 121.205 126.699 121.227C126.927 121.249 127.138 121.355 127.292 121.525L130.33 124.925Z" fill="#B7CDE1"/>
<g style="mix-blend-mode:multiply">
<path d="M134 107.062C141.922 107.062 148.344 100.641 148.344 92.7188C148.344 84.7969 141.922 78.375 134 78.375C126.078 78.375 119.656 84.7969 119.656 92.7188C119.656 100.641 126.078 107.062 134 107.062Z" fill="#FEB452"/>
</g>
<g style="mix-blend-mode:multiply">
<path d="M133.629 85.4541C133.831 85.0322 134.169 85.0322 134.371 85.4541L136.236 89.2172C136.364 89.4365 136.539 89.6254 136.747 89.771C136.955 89.9167 137.192 90.0156 137.443 90.061L141.602 90.6685C142.058 90.736 142.168 91.0566 141.83 91.3772L138.826 94.3135C138.651 94.5024 138.52 94.7269 138.439 94.9715C138.359 95.2162 138.333 95.4752 138.362 95.731L139.063 99.9075C139.138 100.372 138.868 100.566 138.463 100.355L134.743 98.3972C134.507 98.2889 134.251 98.2328 133.992 98.2328C133.732 98.2328 133.476 98.2889 133.241 98.3972L129.528 100.355C129.123 100.566 128.853 100.355 128.929 99.9075L129.638 95.7647C129.667 95.509 129.641 95.2499 129.561 95.0053C129.48 94.7607 129.349 94.5362 129.174 94.3472L126.17 91.411C125.833 91.0904 125.942 90.7697 126.398 90.7022L130.558 90.0947C130.808 90.0493 131.045 89.9504 131.253 89.8048C131.461 89.6592 131.636 89.4702 131.764 89.251L133.629 85.4541Z" fill="#FEB452"/>
</g>
</g>
<defs>
<clipPath id="clip0_91_1245">
<rect width="420" height="200" fill="white"/>
</clipPath>
<clipPath id="clip1_91_1245">
<rect width="54" height="54" fill="white" transform="translate(305 -11)"/>
</clipPath>
</defs>
</svg>
