<svg width="200" height="200" viewBox="0 0 200 200" fill="none" xmlns="http://www.w3.org/2000/svg">
<g clip-path="url(#clip0_88_733)">
<rect width="200" height="200" rx="29" fill="#FAF8F5"/>
<path d="M33.6193 60.0938H7.25568C6.52767 60.0938 5.9375 60.7024 5.9375 61.4531C5.9375 62.2039 6.52767 62.8125 7.25568 62.8125H33.6193C34.3473 62.8125 34.9375 62.2039 34.9375 61.4531C34.9375 60.7024 34.3473 60.0938 33.6193 60.0938Z" fill="white"/>
<path d="M37.2535 70.9688H16.309C15.5861 70.9688 15 71.5774 15 72.3281C15 73.0789 15.5861 73.6875 16.309 73.6875H37.2535C37.9764 73.6875 38.5625 73.0789 38.5625 72.3281C38.5625 71.5774 37.9764 70.9688 37.2535 70.9688Z" fill="white"/>
<path d="M38.9401 65.5312H24.5911C23.7987 65.5312 23.1562 66.1399 23.1562 66.8906C23.1562 67.6414 23.7987 68.25 24.5911 68.25H38.9401C39.7326 68.25 40.375 67.6414 40.375 66.8906C40.375 66.1399 39.7326 65.5312 38.9401 65.5312Z" fill="white"/>
<path d="M4.125 42.459C4.125 38.6847 7.18469 35.625 10.959 35.625H11.791C15.5653 35.625 18.625 38.6847 18.625 42.459V48.5117C18.625 49.5727 18.872 50.619 19.3465 51.568L31.8049 76.4847C34.0768 81.0287 30.7726 86.375 25.6923 86.375H-2.94234C-8.02262 86.375 -11.3268 81.0287 -9.05487 76.4847L3.40351 51.568C3.87798 50.619 4.125 49.5727 4.125 48.5117V42.459Z" fill="#B7CDE1"/>
<rect x="1.40625" y="35.625" width="19.9375" height="5.4375" rx="1.95257" fill="#B7CDE1"/>
<g style="mix-blend-mode:multiply">
<rect x="1.40625" y="35.625" width="19.9375" height="5.4375" rx="1.95257" fill="#B7CDE1"/>
</g>
<path d="M3.97952 57.8162C4.62114 56.4413 6.00105 55.5625 7.5183 55.5625H15.2317C16.749 55.5625 18.1289 56.4413 18.7705 57.8162L27.8132 77.1934C29.0214 79.7825 27.1315 82.75 24.2744 82.75H-1.5244C-4.38148 82.75 -6.2714 79.7825 -5.06318 77.1934L3.97952 57.8162Z" fill="#DBE6F0"/>
<path d="M33.6193 60.0938H7.25568C6.52767 60.0938 5.9375 60.7024 5.9375 61.4531C5.9375 62.2039 6.52767 62.8125 7.25568 62.8125H33.6193C34.3473 62.8125 34.9375 62.2039 34.9375 61.4531C34.9375 60.7024 34.3473 60.0938 33.6193 60.0938Z" fill="#42CACD"/>
<path d="M20.0599 65.5312H7.22135C6.5123 65.5312 5.9375 66.1399 5.9375 66.8906C5.9375 67.6414 6.5123 68.25 7.22135 68.25H20.0599C20.7689 68.25 21.3438 67.6414 21.3438 66.8906C21.3438 66.1399 20.7689 65.5312 20.0599 65.5312Z" fill="#FE90A0"/>
<path d="M11.7375 70.9688H7.3875C6.58669 70.9688 5.9375 71.5774 5.9375 72.3281C5.9375 73.0789 6.58669 73.6875 7.3875 73.6875H11.7375C12.5383 73.6875 13.1875 73.0789 13.1875 72.3281C13.1875 71.5774 12.5383 70.9688 11.7375 70.9688Z" fill="#F05656"/>
<path d="M37.2535 70.9688H16.309C15.5861 70.9688 15 71.5774 15 72.3281C15 73.0789 15.5861 73.6875 16.309 73.6875H37.2535C37.9764 73.6875 38.5625 73.0789 38.5625 72.3281C38.5625 71.5774 37.9764 70.9688 37.2535 70.9688Z" fill="#1482FF"/>
<path d="M28.191 76.4062H7.24653C6.52357 76.4062 5.9375 77.0149 5.9375 77.7656C5.9375 78.5164 6.52357 79.125 7.24653 79.125H28.191C28.9139 79.125 29.5 78.5164 29.5 77.7656C29.5 77.0149 28.9139 76.4062 28.191 76.4062Z" fill="#FEB452"/>
<path d="M38.9401 65.5312H24.5911C23.7987 65.5312 23.1562 66.1399 23.1562 66.8906C23.1562 67.6414 23.7987 68.25 24.5911 68.25H38.9401C39.7326 68.25 40.375 67.6414 40.375 66.8906C40.375 66.1399 39.7326 65.5312 38.9401 65.5312Z" fill="#FEB452"/>
<path d="M188.156 98.0938C192.04 98.0938 195.188 94.9458 195.188 91.0625C195.188 87.1792 192.04 84.0312 188.156 84.0312C184.273 84.0312 181.125 87.1792 181.125 91.0625C181.125 94.9458 184.273 98.0938 188.156 98.0938Z" fill="white"/>
<path d="M156.125 121.531H199.875V107.359H199.094C190.555 107.359 187.375 102.781 185.813 94.0781C184.25 85.375 177.875 82.4688 170.969 82.4688C164.063 82.4688 158.469 87.1563 158.469 94.0781V94.8594C158.516 93.6615 159.035 92.531 159.914 91.7154C160.792 90.8998 161.958 90.4656 163.156 90.5078C164.343 90.5048 165.487 90.9522 166.357 91.7599C167.228 92.5676 167.759 93.6753 167.844 94.8594C167.844 96.5313 167.844 101.219 157.688 101.219H156.125V121.531Z" fill="#B7CDE1"/>
<g style="mix-blend-mode:multiply">
<path d="M199.875 117.625H156.125V121.531H199.875V117.625Z" fill="#42CACD"/>
</g>
<g style="mix-blend-mode:multiply">
<path d="M158.469 101.218C163.648 101.218 172.531 101.218 172.531 93.4055C172.531 84.8118 158.469 81.6868 158.469 94.0774V94.8587C158.516 93.6608 159.035 92.5303 159.914 91.7147C160.792 90.8991 161.958 90.4649 163.156 90.5071C164.343 90.5041 165.487 90.9515 166.357 91.7592C167.228 92.5669 167.759 93.6746 167.844 94.8587C167.844 96.5305 167.844 101.218 157.688 101.218" fill="#42CACD"/>
</g>
<g style="mix-blend-mode:multiply">
<path d="M188.156 98.0938C192.04 98.0938 195.188 94.9458 195.188 91.0625C195.188 87.1792 192.04 84.0312 188.156 84.0312C184.273 84.0312 181.125 87.1792 181.125 91.0625C181.125 94.9458 184.273 98.0938 188.156 98.0938Z" fill="#FEB452"/>
</g>
<rect x="46.4375" y="128.156" width="10.125" height="2.53125" rx="1.26562" fill="white"/>
<path d="M55.9887 154.852C55.9236 153.437 55.3157 152.101 54.2912 151.122C53.2667 150.143 51.9044 149.596 50.4875 149.596C49.0705 149.596 47.7082 150.143 46.6837 151.122C45.6593 152.101 45.0513 153.437 44.9862 154.852C44.855 153.489 44.2206 152.223 43.2066 151.302C42.1926 150.38 40.8718 149.87 39.5018 149.87C38.1319 149.87 36.8111 150.38 35.7971 151.302C34.7831 152.223 34.1486 153.489 34.0175 154.852C33.9753 163.104 44.9862 168.656 44.9862 168.656C44.9862 168.656 55.9887 163.104 55.9887 154.852Z" fill="white"/>
<path d="M55.9635 141.571H56.8072C60.1037 141.636 63.2403 143.004 65.5302 145.376C67.8201 147.748 69.0767 150.931 69.0247 154.228V171.271C69.0249 171.71 68.8541 172.132 68.5485 172.447C68.2429 172.762 67.8266 172.946 67.3879 172.959H45.3491C44.9087 172.946 44.4908 172.761 44.1847 172.444C43.8812 172.129 43.7118 171.709 43.7122 171.271V154.228C43.6603 150.925 44.9215 147.737 47.2187 145.364C49.5159 142.991 52.6611 141.627 55.9635 141.571V141.571Z" fill="white"/>
<path d="M56.3684 140.728C57.8703 140.728 59.3385 140.282 60.5873 139.448C61.8361 138.613 62.8094 137.427 63.3841 136.04C63.9589 134.652 64.1093 133.125 63.8162 131.652C63.5232 130.179 62.8 128.826 61.738 127.764C60.676 126.702 59.3229 125.979 57.8499 125.686C56.3768 125.393 54.85 125.543 53.4624 126.118C52.0748 126.693 50.8888 127.666 50.0544 128.915C49.22 130.164 48.7747 131.632 48.7747 133.134C48.7747 135.148 49.5747 137.079 50.9988 138.503C52.4229 139.927 54.3544 140.728 56.3684 140.728V140.728Z" fill="white"/>
<g style="mix-blend-mode:multiply">
<path d="M55.9635 141.571H56.8072C60.1037 141.636 63.2403 143.004 65.5302 145.376C67.8201 147.748 69.0767 150.931 69.0247 154.228V171.271C69.0249 171.71 68.8541 172.132 68.5485 172.447C68.2429 172.762 67.8266 172.946 67.3879 172.959H45.3491C44.9087 172.946 44.4908 172.761 44.1847 172.444C43.8812 172.129 43.7118 171.709 43.7122 171.271V154.228C43.6603 150.925 44.9215 147.737 47.2187 145.364C49.5159 142.991 52.6611 141.627 55.9635 141.571V141.571Z" fill="#B7CDE1"/>
</g>
<g style="mix-blend-mode:multiply">
<path d="M56.3684 140.728C57.8703 140.728 59.3385 140.282 60.5873 139.448C61.8361 138.613 62.8094 137.427 63.3841 136.04C63.9589 134.652 64.1093 133.125 63.8162 131.652C63.5232 130.179 62.8 128.826 61.738 127.764C60.676 126.702 59.3229 125.979 57.8499 125.686C56.3768 125.393 54.85 125.543 53.4624 126.118C52.0748 126.693 50.8888 127.666 50.0544 128.915C49.22 130.164 48.7747 131.632 48.7747 133.134C48.7747 135.148 49.5747 137.079 50.9988 138.503C52.4229 139.927 54.3544 140.728 56.3684 140.728V140.728Z" fill="#B7CDE1"/>
</g>
<g style="mix-blend-mode:multiply">
<path d="M55.9887 154.852C55.9236 153.437 55.3157 152.101 54.2912 151.122C53.2667 150.143 51.9044 149.596 50.4875 149.596C49.0705 149.596 47.7082 150.143 46.6837 151.122C45.6593 152.101 45.0513 153.437 44.9862 154.852C44.855 153.489 44.2206 152.223 43.2066 151.302C42.1926 150.38 40.8718 149.87 39.5018 149.87C38.1319 149.87 36.8111 150.38 35.7971 151.302C34.7831 152.223 34.1486 153.489 34.0175 154.852C33.9753 163.104 44.9862 168.656 44.9862 168.656C44.9862 168.656 55.9887 163.104 55.9887 154.852Z" fill="#F05656"/>
</g>
<g style="mix-blend-mode:multiply">
<path d="M54.4429 137.777C54.2726 138.255 54.5217 138.789 55.0211 138.877C55.5828 138.976 56.1585 138.988 56.7273 138.909C57.6004 138.789 58.4317 138.46 59.1505 137.949C59.8694 137.439 60.4548 136.764 60.857 135.979C61.119 135.468 61.2982 134.921 61.3899 134.358C61.4714 133.858 61.05 133.446 60.5429 133.449L60.3544 133.45C59.8472 133.453 59.4505 133.874 59.3204 134.364C59.2572 134.602 59.1684 134.834 59.0551 135.055C58.8013 135.55 58.4321 135.976 57.9787 136.298C57.5253 136.62 57.0009 136.827 56.4502 136.903C56.2042 136.937 55.9561 136.945 55.7102 136.926C55.2046 136.887 54.6766 137.122 54.5063 137.6L54.4429 137.777Z" fill="#B7CDE1"/>
</g>
<g style="mix-blend-mode:multiply">
<rect x="46.4375" y="128.156" width="10.125" height="2.53125" rx="1.26562" fill="#B7CDE1"/>
</g>
<path d="M127.839 14.0516L138.631 15.4016L150.772 3.25999L142.681 1.90999C142.372 1.80589 142.042 1.78225 141.721 1.8413C141.401 1.90036 141.101 2.04016 140.85 2.24749L127.839 14.0516Z" fill="white"/>
<path d="M153 39.1607L151.65 28.3691L163.791 16.2275L165.141 24.3275C165.24 24.632 165.26 24.9564 165.199 25.2706C165.139 25.5848 165 25.8786 164.795 26.1247L153 39.1607Z" fill="white"/>
<path d="M133.863 24.2352C135.038 23.0615 136.631 22.4025 138.292 22.4033C139.952 22.4041 141.545 23.0646 142.719 24.2394C143.892 25.4142 144.551 27.0072 144.55 28.6678C144.55 30.3285 143.889 31.9208 142.714 33.0946C136.521 39.2877 128.548 40.1736 127.662 39.2877C126.776 38.4017 127.662 30.4367 133.863 24.2352Z" fill="#F7993B"/>
<g style="mix-blend-mode:multiply">
<path d="M136.226 24.2099C136.647 23.7894 137.147 23.4559 137.697 23.2286C138.247 23.0012 138.836 22.8844 139.431 22.8848C140.026 22.8852 140.615 23.0028 141.165 23.2308C141.714 23.4589 142.214 23.793 142.634 24.2141C143.055 24.6351 143.388 25.1349 143.616 25.6848C143.843 26.2347 143.96 26.824 143.959 27.4191C143.959 28.0142 143.841 28.6033 143.613 29.1529C143.385 29.7025 143.051 30.2019 142.63 30.6224C138.15 35.1027 132.378 35.7439 131.737 35.1027C131.096 34.4614 131.737 28.6986 136.226 24.2099Z" fill="#F05656"/>
</g>
<path d="M159.066 -4.16534C168.508 -8.2069 174.625 -7.5319 174.625 -7.5319C174.625 -7.5319 175.3 -1.46534 171.25 7.97623C169.225 12.7012 161.808 20.1178 161.808 20.1178L150.3 31.5928L135.458 16.7512L146.925 5.28466C146.925 5.28466 154.375 -2.14034 159.066 -4.16534Z" fill="#B7CDE1"/>
<path d="M136.81 18.1006L148.951 30.2418L147.967 31.2263C147.865 31.3275 147.728 31.3844 147.585 31.3844C147.442 31.3844 147.304 31.3275 147.203 31.2263L135.802 19.8248C135.711 19.7217 135.662 19.5877 135.667 19.4502C135.671 19.3127 135.728 19.1821 135.825 19.085L136.81 18.1006Z" fill="#F7993B"/>
<g style="mix-blend-mode:multiply">
<path d="M127.839 14.0516L138.63 15.4016L150.772 3.25999L142.68 1.90999C142.372 1.80589 142.042 1.78225 141.721 1.8413C141.401 1.90036 141.101 2.04016 140.849 2.24749L127.839 14.0516Z" fill="#42CACD"/>
</g>
<g style="mix-blend-mode:multiply">
<path d="M153 39.1616L151.65 28.3701L163.791 16.2285L165.141 24.3285C165.24 24.633 165.26 24.9573 165.199 25.2715C165.139 25.5857 165 25.8796 164.795 26.1257L153 39.1616Z" fill="#42CACD"/>
</g>
<g style="mix-blend-mode:multiply">
<path d="M163.724 7.03141C165.807 7.03141 167.495 5.34282 167.495 3.25984C167.495 1.17687 165.807 -0.511719 163.724 -0.511719C161.641 -0.511719 159.952 1.17687 159.952 3.25984C159.952 5.34282 161.641 7.03141 163.724 7.03141Z" fill="#B7CDE1"/>
</g>
<g style="mix-blend-mode:multiply">
<path d="M163.673 5.73184C164.978 5.73184 166.036 4.67411 166.036 3.36934C166.036 2.06456 164.978 1.00684 163.673 1.00684C162.368 1.00684 161.311 2.06456 161.311 3.36934C161.311 4.67411 162.368 5.73184 163.673 5.73184Z" fill="#42CACD"/>
</g>
<path d="M157.75 13.3759C158.366 12.4477 157.893 10.8446 157.075 10.0009C156.256 9.15712 154.662 8.75212 153.742 9.35962L139.508 27.5424L157.75 13.3759Z" fill="#42CACD"/>
<path d="M94 87.0625C101.922 87.0625 108.344 80.6406 108.344 72.7188C108.344 64.7969 101.922 58.375 94 58.375C86.0782 58.375 79.6562 64.7969 79.6562 72.7188C79.6562 80.6406 86.0782 87.0625 94 87.0625Z" fill="white"/>
<path d="M97.5774 104.857C97.3242 105.245 97.0458 105.186 96.9699 104.731L93.1055 82.8945C93.0803 82.791 93.0798 82.683 93.1038 82.5792C93.1278 82.4755 93.1757 82.3787 93.2437 82.2968C93.3118 82.2148 93.398 82.1499 93.4956 82.1071C93.5932 82.0644 93.6994 82.0451 93.8058 82.0508H102.505C102.741 82.0581 102.967 82.1458 103.147 82.2991C103.326 82.4525 103.448 82.6626 103.492 82.8945L107.356 104.731C107.432 105.186 107.179 105.355 106.791 105.102L100.935 101.322C100.843 101.261 100.738 101.218 100.629 101.197C100.52 101.176 100.407 101.177 100.298 101.2C100.189 101.223 100.086 101.267 99.9937 101.33C99.9018 101.393 99.8233 101.473 99.7627 101.567L97.5774 104.857Z" fill="#B7CDE1"/>
<path d="M90.3296 104.925C90.6333 105.279 90.954 105.186 91.0299 104.731L94.8943 82.8945C94.9194 82.791 94.92 82.683 94.896 82.5792C94.872 82.4755 94.8241 82.3787 94.756 82.2968C94.688 82.2148 94.6017 82.1499 94.5042 82.1071C94.4066 82.0644 94.3003 82.0451 94.194 82.0508H85.4949C85.2589 82.0581 85.0325 82.1458 84.853 82.2991C84.6736 82.4525 84.5517 82.6626 84.5077 82.8945L80.6433 104.731C80.5674 105.186 80.8037 105.33 81.1749 105.051L86.0602 101.406C86.2434 101.269 86.4712 101.205 86.699 101.227C86.9268 101.249 87.1383 101.355 87.2921 101.525L90.3296 104.925Z" fill="#B7CDE1"/>
<g style="mix-blend-mode:multiply">
<path d="M94 87.0625C101.922 87.0625 108.344 80.6406 108.344 72.7188C108.344 64.7969 101.922 58.375 94 58.375C86.0782 58.375 79.6562 64.7969 79.6562 72.7188C79.6562 80.6406 86.0782 87.0625 94 87.0625Z" fill="#FEB452"/>
</g>
<g style="mix-blend-mode:multiply">
<path d="M93.6288 65.4541C93.8313 65.0322 94.1688 65.0322 94.3713 65.4541L96.2359 69.2172C96.3644 69.4365 96.5387 69.6254 96.747 69.771C96.9552 69.9167 97.1925 70.0156 97.4425 70.061L101.602 70.6685C102.058 70.736 102.168 71.0566 101.83 71.3772L98.8263 74.3135C98.6515 74.5024 98.5195 74.7269 98.4394 74.9715C98.3593 75.2162 98.333 75.4752 98.3622 75.731L99.0625 79.9075C99.1384 80.3716 98.8684 80.5657 98.4634 80.3547L94.7425 78.3972C94.507 78.2889 94.2508 78.2328 93.9916 78.2328C93.7323 78.2328 93.4762 78.2889 93.2406 78.3972L89.5281 80.3547C89.1231 80.5657 88.8531 80.3547 88.9291 79.9075L89.6378 75.7647C89.667 75.509 89.6407 75.2499 89.5606 75.0053C89.4805 74.7607 89.3485 74.5362 89.1738 74.3472L86.17 71.411C85.8325 71.0904 85.9422 70.7697 86.3978 70.7022L90.5575 70.0947C90.8075 70.0493 91.0448 69.9504 91.2531 69.8048C91.4613 69.6592 91.6356 69.4702 91.7641 69.251L93.6288 65.4541Z" fill="#FEB452"/>
</g>
</g>
<defs>
<clipPath id="clip0_88_733">
<rect width="200" height="200" fill="white"/>
</clipPath>
</defs>
</svg>
