<svg width="304" height="416" viewBox="0 0 304 416" fill="none" xmlns="http://www.w3.org/2000/svg">
<rect width="304" height="416" rx="29" fill="#F2F2F2"/>
<path d="M50.2684 204V194.562H48.3764V192.912H50.2684V191.878C50.2684 189.436 51.6544 188.138 53.5464 188.138C54.0524 188.138 54.5804 188.182 55.0424 188.314L54.9544 189.986C54.5584 189.832 54.1624 189.766 53.7884 189.766C52.7984 189.766 52.1384 190.536 52.1384 191.724V192.912H54.9764V194.562H52.1384V204H50.2684ZM58.149 190.822C57.401 190.822 56.851 190.25 56.851 189.524C56.851 188.776 57.401 188.204 58.149 188.204C58.919 188.204 59.491 188.776 59.491 189.524C59.491 190.25 58.919 190.822 58.149 190.822ZM57.225 204V192.912H59.095V204H57.225ZM68.6135 194.738C68.1955 194.562 67.6675 194.474 67.1835 194.474C65.4235 194.474 63.9935 196.168 63.9935 199.776V204H62.1235V192.912H63.9935V195.156C64.6315 193.748 66.0835 192.736 67.4475 192.736C67.9095 192.736 68.3495 192.802 68.7235 192.934L68.6135 194.738ZM73.9626 204.176C71.2786 204.176 69.8266 202.504 69.3426 200.942L70.9486 200.238C71.3666 201.536 72.2466 202.592 73.9626 202.592C75.3266 202.592 76.2066 201.8 76.2066 200.898C76.2066 198.06 69.8266 199.886 69.8266 195.684C69.8266 193.924 71.3446 192.736 73.7206 192.736C75.6786 192.736 77.3726 193.836 77.8346 195.464L76.2726 196.146C75.9646 195.002 74.8646 194.276 73.6766 194.276C72.4226 194.276 71.6306 194.782 71.6306 195.662C71.6306 198.038 78.0546 196.3 78.0326 200.876C78.0326 202.812 76.4046 204.176 73.9626 204.176ZM86.1523 203.912C85.6023 204.11 85.0083 204.176 84.4143 204.176C82.5223 204.176 81.1363 203.12 81.1363 200.678V194.562H79.0683V192.912H81.1363V189.546H83.0063V192.912H85.9763V194.562H83.0063V200.744C83.0063 201.91 83.6663 202.482 84.6343 202.482C85.0743 202.482 85.5803 202.416 86.0203 202.196L86.1523 203.912ZM97.777 192.736C100.461 192.736 102.331 194.32 102.331 196.894V204H100.483V202.108C99.845 203.384 98.393 204.176 96.787 204.176C94.565 204.176 93.047 202.812 93.047 200.898C93.047 198.764 94.785 197.598 98.327 197.246L100.483 197.004V196.784C100.483 195.266 99.405 194.298 97.777 194.298C96.259 194.298 95.181 195.2 95.027 196.696L93.289 196.366C93.619 194.166 95.445 192.736 97.777 192.736ZM97.073 202.636C99.229 202.636 100.483 201.206 100.483 198.984V198.456L98.327 198.698C96.083 198.94 94.917 199.71 94.917 200.876C94.917 201.91 95.797 202.636 97.073 202.636ZM111.203 203.912C110.653 204.11 110.059 204.176 109.465 204.176C107.573 204.176 106.187 203.12 106.187 200.678V194.562H104.119V192.912H106.187V189.546H108.057V192.912H111.027V194.562H108.057V200.744C108.057 201.91 108.717 202.482 109.685 202.482C110.125 202.482 110.631 202.416 111.071 202.196L111.203 203.912ZM119.281 203.912C118.731 204.11 118.137 204.176 117.543 204.176C115.651 204.176 114.265 203.12 114.265 200.678V194.562H112.197V192.912H114.265V189.546H116.135V192.912H119.105V194.562H116.135V200.744C116.135 201.91 116.795 202.482 117.763 202.482C118.203 202.482 118.709 202.416 119.149 202.196L119.281 203.912ZM131.216 197.95C131.216 198.214 131.194 198.61 131.172 198.808H122.416C122.548 201.052 123.956 202.526 125.958 202.526C127.652 202.526 128.818 201.734 129.148 200.348L130.908 200.766C130.358 202.922 128.51 204.176 125.958 204.176C122.636 204.176 120.546 201.602 120.546 198.456C120.546 195.31 122.57 192.736 125.914 192.736C129.192 192.736 131.216 195.09 131.216 197.95ZM122.526 197.246H129.236C129.06 195.552 127.872 194.298 125.914 194.298C124.176 194.298 122.9 195.398 122.526 197.246ZM133.623 204V192.912H135.493V195.002C136.043 193.682 137.143 192.736 138.837 192.736C140.641 192.736 142.049 193.572 142.445 195.068C143.039 193.748 144.359 192.736 146.031 192.736C148.407 192.736 149.903 194.232 149.903 196.564V204H148.033V196.938C148.033 195.42 147.175 194.386 145.613 194.386C143.721 194.386 142.687 196.08 142.687 198.434V204H140.817V196.938C140.817 195.42 139.959 194.386 138.419 194.386C136.527 194.386 135.493 196.08 135.493 198.434V204H133.623ZM152.938 208.004V192.912H154.808V194.518C155.402 193.506 156.854 192.736 158.46 192.736C161.87 192.736 163.762 195.2 163.762 198.456C163.762 201.712 161.826 204.176 158.416 204.176C157.008 204.176 155.556 203.472 154.808 202.46V208.004H152.938ZM158.24 202.504C160.44 202.504 161.87 200.898 161.87 198.456C161.87 196.014 160.44 194.408 158.24 194.408C156.084 194.408 154.654 196.014 154.654 198.456C154.654 200.898 156.084 202.504 158.24 202.504ZM171.896 203.912C171.346 204.11 170.752 204.176 170.158 204.176C168.266 204.176 166.88 203.12 166.88 200.678V194.562H164.812V192.912H166.88V189.546H168.75V192.912H171.72V194.562H168.75V200.744C168.75 201.91 169.41 202.482 170.378 202.482C170.818 202.482 171.324 202.416 171.764 202.196L171.896 203.912ZM178.395 198.478V196.828H199.339V198.478H178.395ZM212.588 203.912C212.038 204.11 211.444 204.176 210.85 204.176C208.958 204.176 207.572 203.12 207.572 200.678V194.562H205.504V192.912H207.572V189.546H209.442V192.912H212.412V194.562H209.442V200.744C209.442 201.91 210.102 202.482 211.07 202.482C211.51 202.482 212.016 202.416 212.456 202.196L212.588 203.912ZM224.523 197.95C224.523 198.214 224.501 198.61 224.479 198.808H215.723C215.855 201.052 217.263 202.526 219.265 202.526C220.959 202.526 222.125 201.734 222.455 200.348L224.215 200.766C223.665 202.922 221.817 204.176 219.265 204.176C215.943 204.176 213.853 201.602 213.853 198.456C213.853 195.31 215.877 192.736 219.221 192.736C222.499 192.736 224.523 195.09 224.523 197.95ZM215.833 197.246H222.543C222.367 195.552 221.179 194.298 219.221 194.298C217.483 194.298 216.207 195.398 215.833 197.246ZM230.959 192.736C233.643 192.736 235.513 194.32 235.513 196.894V204H233.665V202.108C233.027 203.384 231.575 204.176 229.969 204.176C227.747 204.176 226.229 202.812 226.229 200.898C226.229 198.764 227.967 197.598 231.509 197.246L233.665 197.004V196.784C233.665 195.266 232.587 194.298 230.959 194.298C229.441 194.298 228.363 195.2 228.209 196.696L226.471 196.366C226.801 194.166 228.627 192.736 230.959 192.736ZM230.255 202.636C232.411 202.636 233.665 201.206 233.665 198.984V198.456L231.509 198.698C229.265 198.94 228.099 199.71 228.099 200.876C228.099 201.91 228.979 202.636 230.255 202.636ZM238.553 204V192.912H240.423V195.002C240.973 193.682 242.073 192.736 243.767 192.736C245.571 192.736 246.979 193.572 247.375 195.068C247.969 193.748 249.289 192.736 250.961 192.736C253.337 192.736 254.833 194.232 254.833 196.564V204H252.963V196.938C252.963 195.42 252.105 194.386 250.543 194.386C248.651 194.386 247.617 196.08 247.617 198.434V204H245.747V196.938C245.747 195.42 244.889 194.386 243.349 194.386C241.457 194.386 240.423 196.08 240.423 198.434V204H238.553ZM100.022 234.004V218.912H101.892V220.518C102.486 219.506 103.938 218.736 105.544 218.736C108.954 218.736 110.846 221.2 110.846 224.456C110.846 227.712 108.91 230.176 105.5 230.176C104.092 230.176 102.64 229.472 101.892 228.46V234.004H100.022ZM105.324 228.504C107.524 228.504 108.954 226.898 108.954 224.456C108.954 222.014 107.524 220.408 105.324 220.408C103.168 220.408 101.738 222.014 101.738 224.456C101.738 226.898 103.168 228.504 105.324 228.504ZM117.263 218.736C119.947 218.736 121.817 220.32 121.817 222.894V230H119.969V228.108C119.331 229.384 117.879 230.176 116.273 230.176C114.051 230.176 112.533 228.812 112.533 226.898C112.533 224.764 114.271 223.598 117.813 223.246L119.969 223.004V222.784C119.969 221.266 118.891 220.298 117.263 220.298C115.745 220.298 114.667 221.2 114.513 222.696L112.775 222.366C113.105 220.166 114.931 218.736 117.263 218.736ZM116.559 228.636C118.715 228.636 119.969 227.206 119.969 224.984V224.456L117.813 224.698C115.569 224.94 114.403 225.71 114.403 226.876C114.403 227.91 115.283 228.636 116.559 228.636ZM130.556 227.844C132.778 227.844 134.318 228.768 134.318 230.814C134.318 233.036 132.25 234.18 129.214 234.18C126.068 234.18 124.11 233.058 124.11 231.012C124.11 230.044 124.638 229.252 125.298 228.746C124.748 228.372 124.418 227.822 124.418 227.03C124.418 226.062 125.056 225.336 125.914 224.94C125.32 224.302 124.99 223.466 124.99 222.476C124.99 220.232 126.794 218.736 129.192 218.736C129.918 218.736 130.6 218.89 131.216 219.176L132.954 217.68L134.032 218.912L132.558 220.166C133.086 220.782 133.394 221.574 133.394 222.476C133.394 224.764 131.612 226.216 129.192 226.216C128.4 226.216 127.718 226.062 127.124 225.798C126.486 226.084 126.222 226.458 126.222 226.92C126.222 227.602 126.86 227.844 127.586 227.844H130.556ZM129.192 220.254C127.916 220.254 126.816 221.09 126.816 222.476C126.816 223.884 127.916 224.698 129.192 224.698C130.468 224.698 131.568 223.884 131.568 222.476C131.568 221.09 130.468 220.254 129.192 220.254ZM129.214 232.596C131.326 232.596 132.492 232.002 132.492 230.946C132.492 229.758 131.612 229.362 130.292 229.362H127.938C127.542 229.362 127.168 229.34 126.816 229.296C126.134 229.758 125.936 230.352 125.936 230.99C125.936 232.002 127.058 232.596 129.214 232.596ZM146.448 223.95C146.448 224.214 146.426 224.61 146.404 224.808H137.648C137.78 227.052 139.188 228.526 141.19 228.526C142.884 228.526 144.05 227.734 144.38 226.348L146.14 226.766C145.59 228.922 143.742 230.176 141.19 230.176C137.868 230.176 135.778 227.602 135.778 224.456C135.778 221.31 137.802 218.736 141.146 218.736C144.424 218.736 146.448 221.09 146.448 223.95ZM137.758 223.246H144.468C144.292 221.552 143.104 220.298 141.146 220.298C139.408 220.298 138.132 221.398 137.758 223.246ZM155.087 216.822C154.339 216.822 153.789 216.25 153.789 215.524C153.789 214.776 154.339 214.204 155.087 214.204C155.857 214.204 156.429 214.776 156.429 215.524C156.429 216.25 155.857 216.822 155.087 216.822ZM154.163 230V218.912H156.033V230H154.163ZM163.923 230.176C160.623 230.176 158.423 227.888 158.423 224.456C158.423 221.024 160.623 218.736 163.923 218.736C166.497 218.736 168.389 220.144 168.785 222.344L166.937 222.718C166.695 221.376 165.529 220.408 163.967 220.408C161.789 220.408 160.381 222.014 160.381 224.456C160.381 226.898 161.789 228.504 163.967 228.504C165.529 228.504 166.673 227.646 166.981 226.172L168.807 226.546C168.323 228.834 166.475 230.176 163.923 230.176ZM176.129 230.176C172.829 230.176 170.497 227.778 170.497 224.456C170.497 221.134 172.829 218.736 176.129 218.736C179.407 218.736 181.783 221.134 181.783 224.456C181.783 227.778 179.407 230.176 176.129 230.176ZM176.129 228.504C178.351 228.504 179.847 226.832 179.847 224.456C179.847 222.08 178.351 220.408 176.129 220.408C173.907 220.408 172.411 222.08 172.411 224.456C172.411 226.832 173.907 228.504 176.129 228.504ZM184.176 230V218.912H186.046V221.002C186.816 219.682 188.158 218.736 189.852 218.736C192.162 218.736 193.812 220.298 193.812 222.652V230H191.942V223.004C191.942 221.508 190.996 220.43 189.434 220.43C187.366 220.43 186.046 222.212 186.046 225.138V230H184.176ZM200.57 230.176C197.886 230.176 196.434 228.504 195.95 226.942L197.556 226.238C197.974 227.536 198.854 228.592 200.57 228.592C201.934 228.592 202.814 227.8 202.814 226.898C202.814 224.06 196.434 225.886 196.434 221.684C196.434 219.924 197.952 218.736 200.328 218.736C202.286 218.736 203.98 219.836 204.442 221.464L202.88 222.146C202.572 221.002 201.472 220.276 200.284 220.276C199.03 220.276 198.238 220.782 198.238 221.662C198.238 224.038 204.662 222.3 204.64 226.876C204.64 228.812 203.012 230.176 200.57 230.176Z" fill="#595959"/>
</svg>
