<svg width="765" height="482" viewBox="0 0 765 482" fill="none" xmlns="http://www.w3.org/2000/svg">
<rect width="765" height="482" rx="29" fill="#F2F2F2"/>
<path d="M278.385 227.822C277.637 227.822 277.087 227.25 277.087 226.524C277.087 225.776 277.637 225.204 278.385 225.204C279.155 225.204 279.727 225.776 279.727 226.524C279.727 227.25 279.155 227.822 278.385 227.822ZM277.461 241V229.912H279.331V241H277.461ZM282.36 241V229.912H284.23V232.002C284.78 230.682 285.88 229.736 287.574 229.736C289.378 229.736 290.786 230.572 291.182 232.068C291.776 230.748 293.096 229.736 294.768 229.736C297.144 229.736 298.64 231.232 298.64 233.564V241H296.77V233.938C296.77 232.42 295.912 231.386 294.35 231.386C292.458 231.386 291.424 233.08 291.424 235.434V241H289.554V233.938C289.554 232.42 288.696 231.386 287.156 231.386C285.264 231.386 284.23 233.08 284.23 235.434V241H282.36ZM305.81 229.736C308.494 229.736 310.364 231.32 310.364 233.894V241H308.516V239.108C307.878 240.384 306.426 241.176 304.82 241.176C302.598 241.176 301.08 239.812 301.08 237.898C301.08 235.764 302.818 234.598 306.36 234.246L308.516 234.004V233.784C308.516 232.266 307.438 231.298 305.81 231.298C304.292 231.298 303.214 232.2 303.06 233.696L301.322 233.366C301.652 231.166 303.478 229.736 305.81 229.736ZM305.106 239.636C307.262 239.636 308.516 238.206 308.516 235.984V235.456L306.36 235.698C304.116 235.94 302.95 236.71 302.95 237.876C302.95 238.91 303.83 239.636 305.106 239.636ZM319.103 238.844C321.325 238.844 322.865 239.768 322.865 241.814C322.865 244.036 320.797 245.18 317.761 245.18C314.615 245.18 312.657 244.058 312.657 242.012C312.657 241.044 313.185 240.252 313.845 239.746C313.295 239.372 312.965 238.822 312.965 238.03C312.965 237.062 313.603 236.336 314.461 235.94C313.867 235.302 313.537 234.466 313.537 233.476C313.537 231.232 315.341 229.736 317.739 229.736C318.465 229.736 319.147 229.89 319.763 230.176L321.501 228.68L322.579 229.912L321.105 231.166C321.633 231.782 321.941 232.574 321.941 233.476C321.941 235.764 320.159 237.216 317.739 237.216C316.947 237.216 316.265 237.062 315.671 236.798C315.033 237.084 314.769 237.458 314.769 237.92C314.769 238.602 315.407 238.844 316.133 238.844H319.103ZM317.739 231.254C316.463 231.254 315.363 232.09 315.363 233.476C315.363 234.884 316.463 235.698 317.739 235.698C319.015 235.698 320.115 234.884 320.115 233.476C320.115 232.09 319.015 231.254 317.739 231.254ZM317.761 243.596C319.873 243.596 321.039 243.002 321.039 241.946C321.039 240.758 320.159 240.362 318.839 240.362H316.485C316.089 240.362 315.715 240.34 315.363 240.296C314.681 240.758 314.483 241.352 314.483 241.99C314.483 243.002 315.605 243.596 317.761 243.596ZM334.995 234.95C334.995 235.214 334.973 235.61 334.951 235.808H326.195C326.327 238.052 327.735 239.526 329.737 239.526C331.431 239.526 332.597 238.734 332.927 237.348L334.687 237.766C334.137 239.922 332.289 241.176 329.737 241.176C326.415 241.176 324.325 238.602 324.325 235.456C324.325 232.31 326.349 229.736 329.693 229.736C332.971 229.736 334.995 232.09 334.995 234.95ZM326.305 234.246H333.015C332.839 232.552 331.651 231.298 329.693 231.298C327.955 231.298 326.679 232.398 326.305 234.246ZM348.605 240.912C348.055 241.11 347.461 241.176 346.867 241.176C344.975 241.176 343.589 240.12 343.589 237.678V231.562H341.521V229.912H343.589V226.546H345.459V229.912H348.429V231.562H345.459V237.744C345.459 238.91 346.119 239.482 347.087 239.482C347.527 239.482 348.033 239.416 348.473 239.196L348.605 240.912ZM355.502 241.176C352.202 241.176 349.87 238.778 349.87 235.456C349.87 232.134 352.202 229.736 355.502 229.736C358.78 229.736 361.156 232.134 361.156 235.456C361.156 238.778 358.78 241.176 355.502 241.176ZM355.502 239.504C357.724 239.504 359.22 237.832 359.22 235.456C359.22 233.08 357.724 231.408 355.502 231.408C353.28 231.408 351.784 233.08 351.784 235.456C351.784 237.832 353.28 239.504 355.502 239.504ZM372.574 241.176C369.89 241.176 368.438 239.504 367.954 237.942L369.56 237.238C369.978 238.536 370.858 239.592 372.574 239.592C373.938 239.592 374.818 238.8 374.818 237.898C374.818 235.06 368.438 236.886 368.438 232.684C368.438 230.924 369.956 229.736 372.332 229.736C374.29 229.736 375.984 230.836 376.446 232.464L374.884 233.146C374.576 232.002 373.476 231.276 372.288 231.276C371.034 231.276 370.242 231.782 370.242 232.662C370.242 235.038 376.666 233.3 376.644 237.876C376.644 239.812 375.016 241.176 372.574 241.176ZM379.018 241V225.424H380.888V232.09C381.702 230.506 383.044 229.736 384.672 229.736C387.18 229.736 388.83 231.298 388.83 233.696V241H386.96V234.048C386.96 232.42 385.948 231.43 384.254 231.43C382.208 231.43 380.888 233.278 380.888 236.248V241H379.018ZM396.86 241.176C393.56 241.176 391.228 238.778 391.228 235.456C391.228 232.134 393.56 229.736 396.86 229.736C400.138 229.736 402.514 232.134 402.514 235.456C402.514 238.778 400.138 241.176 396.86 241.176ZM396.86 239.504C399.082 239.504 400.578 237.832 400.578 235.456C400.578 233.08 399.082 231.408 396.86 231.408C394.638 231.408 393.142 233.08 393.142 235.456C393.142 237.832 394.638 239.504 396.86 239.504ZM407.091 241L403.703 229.912H405.617L408.015 238.382L410.611 229.912H412.415L415.011 238.382L417.387 229.912H419.345L415.935 241H414.109L411.513 232.574L408.917 241H407.091ZM431.443 241.176C427.989 241.176 426.097 238.712 426.097 235.456C426.097 232.2 427.989 229.736 431.421 229.736C432.895 229.736 434.347 230.462 435.051 231.496V225.424H436.921V241H435.051V239.394C434.545 240.406 433.071 241.176 431.443 241.176ZM431.619 239.504C433.797 239.504 435.227 237.898 435.227 235.456C435.227 233.014 433.797 231.408 431.619 231.408C429.441 231.408 428.011 233.014 428.011 235.456C428.011 237.898 429.441 239.504 431.619 239.504ZM449.98 234.95C449.98 235.214 449.958 235.61 449.936 235.808H441.18C441.312 238.052 442.72 239.526 444.722 239.526C446.416 239.526 447.582 238.734 447.912 237.348L449.672 237.766C449.122 239.922 447.274 241.176 444.722 241.176C441.4 241.176 439.31 238.602 439.31 235.456C439.31 232.31 441.334 229.736 444.678 229.736C447.956 229.736 449.98 232.09 449.98 234.95ZM441.29 234.246H448C447.824 232.552 446.636 231.298 444.678 231.298C442.94 231.298 441.664 232.398 441.29 234.246ZM455.998 241.176C453.314 241.176 451.862 239.504 451.378 237.942L452.984 237.238C453.402 238.536 454.282 239.592 455.998 239.592C457.362 239.592 458.242 238.8 458.242 237.898C458.242 235.06 451.862 236.886 451.862 232.684C451.862 230.924 453.38 229.736 455.756 229.736C457.714 229.736 459.408 230.836 459.87 232.464L458.308 233.146C458 232.002 456.9 231.276 455.712 231.276C454.458 231.276 453.666 231.782 453.666 232.662C453.666 235.038 460.09 233.3 460.068 237.876C460.068 239.812 458.44 241.176 455.998 241.176ZM463.366 227.822C462.618 227.822 462.068 227.25 462.068 226.524C462.068 225.776 462.618 225.204 463.366 225.204C464.136 225.204 464.708 225.776 464.708 226.524C464.708 227.25 464.136 227.822 463.366 227.822ZM462.442 241V229.912H464.312V241H462.442ZM473.038 238.844C475.26 238.844 476.8 239.768 476.8 241.814C476.8 244.036 474.732 245.18 471.696 245.18C468.55 245.18 466.592 244.058 466.592 242.012C466.592 241.044 467.12 240.252 467.78 239.746C467.23 239.372 466.9 238.822 466.9 238.03C466.9 237.062 467.538 236.336 468.396 235.94C467.802 235.302 467.472 234.466 467.472 233.476C467.472 231.232 469.276 229.736 471.674 229.736C472.4 229.736 473.082 229.89 473.698 230.176L475.436 228.68L476.514 229.912L475.04 231.166C475.568 231.782 475.876 232.574 475.876 233.476C475.876 235.764 474.094 237.216 471.674 237.216C470.882 237.216 470.2 237.062 469.606 236.798C468.968 237.084 468.704 237.458 468.704 237.92C468.704 238.602 469.342 238.844 470.068 238.844H473.038ZM471.674 231.254C470.398 231.254 469.298 232.09 469.298 233.476C469.298 234.884 470.398 235.698 471.674 235.698C472.95 235.698 474.05 234.884 474.05 233.476C474.05 232.09 472.95 231.254 471.674 231.254ZM471.696 243.596C473.808 243.596 474.974 243.002 474.974 241.946C474.974 240.758 474.094 240.362 472.774 240.362H470.42C470.024 240.362 469.65 240.34 469.298 240.296C468.616 240.758 468.418 241.352 468.418 241.99C468.418 243.002 469.54 243.596 471.696 243.596ZM478.899 241V229.912H480.769V232.002C481.539 230.682 482.881 229.736 484.575 229.736C486.885 229.736 488.535 231.298 488.535 233.652V241H486.665V234.004C486.665 232.508 485.719 231.43 484.157 231.43C482.089 231.43 480.769 233.212 480.769 236.138V241H478.899ZM276.699 255.736C279.383 255.736 281.253 257.32 281.253 259.894V267H279.405V265.108C278.767 266.384 277.315 267.176 275.709 267.176C273.487 267.176 271.969 265.812 271.969 263.898C271.969 261.764 273.707 260.598 277.249 260.246L279.405 260.004V259.784C279.405 258.266 278.327 257.298 276.699 257.298C275.181 257.298 274.103 258.2 273.949 259.696L272.211 259.366C272.541 257.166 274.367 255.736 276.699 255.736ZM275.995 265.636C278.151 265.636 279.405 264.206 279.405 261.984V261.456L277.249 261.698C275.005 261.94 273.839 262.71 273.839 263.876C273.839 264.91 274.719 265.636 275.995 265.636ZM290.125 266.912C289.575 267.11 288.981 267.176 288.387 267.176C286.495 267.176 285.109 266.12 285.109 263.678V257.562H283.041V255.912H285.109V252.546H286.979V255.912H289.949V257.562H286.979V263.744C286.979 264.91 287.639 265.482 288.607 265.482C289.047 265.482 289.553 265.416 289.993 265.196L290.125 266.912ZM298.203 266.912C297.653 267.11 297.059 267.176 296.465 267.176C294.573 267.176 293.187 266.12 293.187 263.678V257.562H291.119V255.912H293.187V252.546H295.057V255.912H298.027V257.562H295.057V263.744C295.057 264.91 295.717 265.482 296.685 265.482C297.125 265.482 297.631 265.416 298.071 265.196L298.203 266.912ZM310.138 260.95C310.138 261.214 310.116 261.61 310.094 261.808H301.338C301.47 264.052 302.878 265.526 304.88 265.526C306.574 265.526 307.74 264.734 308.07 263.348L309.83 263.766C309.28 265.922 307.432 267.176 304.88 267.176C301.558 267.176 299.468 264.602 299.468 261.456C299.468 258.31 301.492 255.736 304.836 255.736C308.114 255.736 310.138 258.09 310.138 260.95ZM301.448 260.246H308.158C307.982 258.552 306.794 257.298 304.836 257.298C303.098 257.298 301.822 258.398 301.448 260.246ZM312.545 267V255.912H314.415V258.002C314.965 256.682 316.065 255.736 317.759 255.736C319.563 255.736 320.971 256.572 321.367 258.068C321.961 256.748 323.281 255.736 324.953 255.736C327.329 255.736 328.825 257.232 328.825 259.564V267H326.955V259.938C326.955 258.42 326.097 257.386 324.535 257.386C322.643 257.386 321.609 259.08 321.609 261.434V267H319.739V259.938C319.739 258.42 318.881 257.386 317.341 257.386C315.449 257.386 314.415 259.08 314.415 261.434V267H312.545ZM331.86 271.004V255.912H333.73V257.518C334.324 256.506 335.776 255.736 337.382 255.736C340.792 255.736 342.684 258.2 342.684 261.456C342.684 264.712 340.748 267.176 337.338 267.176C335.93 267.176 334.478 266.472 333.73 265.46V271.004H331.86ZM337.162 265.504C339.362 265.504 340.792 263.898 340.792 261.456C340.792 259.014 339.362 257.408 337.162 257.408C335.006 257.408 333.576 259.014 333.576 261.456C333.576 263.898 335.006 265.504 337.162 265.504ZM350.818 266.912C350.268 267.11 349.674 267.176 349.08 267.176C347.188 267.176 345.802 266.12 345.802 263.678V257.562H343.734V255.912H345.802V252.546H347.672V255.912H350.642V257.562H347.672V263.744C347.672 264.91 348.332 265.482 349.3 265.482C349.74 265.482 350.246 265.416 350.686 265.196L350.818 266.912ZM356.869 267.176C354.185 267.176 352.733 265.504 352.249 263.942L353.855 263.238C354.273 264.536 355.153 265.592 356.869 265.592C358.233 265.592 359.113 264.8 359.113 263.898C359.113 261.06 352.733 262.886 352.733 258.684C352.733 256.924 354.251 255.736 356.627 255.736C358.585 255.736 360.279 256.836 360.741 258.464L359.179 259.146C358.871 258.002 357.771 257.276 356.583 257.276C355.329 257.276 354.537 257.782 354.537 258.662C354.537 261.038 360.961 259.3 360.939 263.876C360.939 265.812 359.311 267.176 356.869 267.176ZM369.72 267V257.562H367.828V255.912H369.72V254.878C369.72 252.436 371.106 251.138 372.998 251.138C373.504 251.138 374.032 251.182 374.494 251.314L374.406 252.986C374.01 252.832 373.614 252.766 373.24 252.766C372.25 252.766 371.59 253.536 371.59 254.724V255.912H374.428V257.562H371.59V267H369.72ZM380.94 267.176C377.64 267.176 375.308 264.778 375.308 261.456C375.308 258.134 377.64 255.736 380.94 255.736C384.218 255.736 386.594 258.134 386.594 261.456C386.594 264.778 384.218 267.176 380.94 267.176ZM380.94 265.504C383.162 265.504 384.658 263.832 384.658 261.456C384.658 259.08 383.162 257.408 380.94 257.408C378.718 257.408 377.222 259.08 377.222 261.456C377.222 263.832 378.718 265.504 380.94 265.504ZM395.477 257.738C395.059 257.562 394.531 257.474 394.047 257.474C392.287 257.474 390.857 259.168 390.857 262.776V267H388.987V255.912H390.857V258.156C391.495 256.748 392.947 255.736 394.311 255.736C394.773 255.736 395.213 255.802 395.587 255.934L395.477 257.738ZM407.577 267.176C404.277 267.176 402.077 264.888 402.077 261.456C402.077 258.024 404.277 255.736 407.577 255.736C410.151 255.736 412.043 257.144 412.439 259.344L410.591 259.718C410.349 258.376 409.183 257.408 407.621 257.408C405.443 257.408 404.035 259.014 404.035 261.456C404.035 263.898 405.443 265.504 407.621 265.504C409.183 265.504 410.327 264.646 410.635 263.172L412.461 263.546C411.977 265.834 410.129 267.176 407.577 267.176ZM419.783 267.176C416.483 267.176 414.151 264.778 414.151 261.456C414.151 258.134 416.483 255.736 419.783 255.736C423.061 255.736 425.437 258.134 425.437 261.456C425.437 264.778 423.061 267.176 419.783 267.176ZM419.783 265.504C422.005 265.504 423.501 263.832 423.501 261.456C423.501 259.08 422.005 257.408 419.783 257.408C417.561 257.408 416.065 259.08 416.065 261.456C416.065 263.832 417.561 265.504 419.783 265.504ZM427.831 267V255.912H429.701V258.002C430.471 256.682 431.812 255.736 433.507 255.736C435.817 255.736 437.467 257.298 437.467 259.652V267H435.597V260.004C435.597 258.508 434.651 257.43 433.089 257.43C431.021 257.43 429.701 259.212 429.701 262.138V267H427.831ZM445.368 267.176C442.068 267.176 439.868 264.888 439.868 261.456C439.868 258.024 442.068 255.736 445.368 255.736C447.942 255.736 449.834 257.144 450.23 259.344L448.382 259.718C448.14 258.376 446.974 257.408 445.412 257.408C443.234 257.408 441.826 259.014 441.826 261.456C441.826 263.898 443.234 265.504 445.412 265.504C446.974 265.504 448.118 264.646 448.426 263.172L450.252 263.546C449.768 265.834 447.92 267.176 445.368 267.176ZM462.613 260.95C462.613 261.214 462.591 261.61 462.569 261.808H453.812C453.945 264.052 455.353 265.526 457.355 265.526C459.049 265.526 460.215 264.734 460.545 263.348L462.305 263.766C461.755 265.922 459.907 267.176 457.355 267.176C454.033 267.176 451.943 264.602 451.943 261.456C451.943 258.31 453.966 255.736 457.311 255.736C460.589 255.736 462.613 258.09 462.613 260.95ZM453.923 260.246H460.633C460.457 258.552 459.269 257.298 457.311 257.298C455.573 257.298 454.296 258.398 453.923 260.246ZM465.02 271.004V255.912H466.89V257.518C467.484 256.506 468.936 255.736 470.542 255.736C473.952 255.736 475.844 258.2 475.844 261.456C475.844 264.712 473.908 267.176 470.498 267.176C469.09 267.176 467.638 266.472 466.89 265.46V271.004H465.02ZM470.322 265.504C472.522 265.504 473.952 263.898 473.952 261.456C473.952 259.014 472.522 257.408 470.322 257.408C468.166 257.408 466.736 259.014 466.736 261.456C466.736 263.898 468.166 265.504 470.322 265.504ZM483.978 266.912C483.428 267.11 482.834 267.176 482.24 267.176C480.348 267.176 478.962 266.12 478.962 263.678V257.562H476.894V255.912H478.962V252.546H480.832V255.912H483.802V257.562H480.832V263.744C480.832 264.91 481.492 265.482 482.46 265.482C482.9 265.482 483.406 265.416 483.846 265.196L483.978 266.912ZM490.029 267.176C487.345 267.176 485.893 265.504 485.409 263.942L487.015 263.238C487.433 264.536 488.313 265.592 490.029 265.592C491.393 265.592 492.273 264.8 492.273 263.898C492.273 261.06 485.893 262.886 485.893 258.684C485.893 256.924 487.411 255.736 489.787 255.736C491.745 255.736 493.439 256.836 493.901 258.464L492.339 259.146C492.031 258.002 490.931 257.276 489.743 257.276C488.489 257.276 487.697 257.782 487.697 258.662C487.697 261.038 494.121 259.3 494.099 263.876C494.099 265.812 492.471 267.176 490.029 267.176Z" fill="#595959"/>
</svg>
