<svg width="765" height="325" viewBox="0 0 765 325" fill="none" xmlns="http://www.w3.org/2000/svg">
<rect width="765" height="325" rx="29" fill="#F2F2F2"/>
<path d="M317.511 171.676C313.683 171.676 310.097 169.058 310.097 163.8C310.097 158.542 313.705 155.924 317.555 155.924C320.987 155.924 323.517 157.816 324.133 160.786L322.153 161.204C321.713 159.026 319.997 157.706 317.555 157.706C314.431 157.706 312.165 159.884 312.165 163.8C312.165 167.716 314.431 169.872 317.533 169.872C320.415 169.872 322.241 168.002 322.307 165.296H316.939V163.558H324.199V171.5H322.373V169.124C321.669 170.686 319.689 171.676 317.511 171.676ZM327.129 171.5V156.1H329.131V171.5H327.129ZM332.329 171.5V156.1H342.185V157.882H334.331V162.59H340.755V164.394H334.331V171.5H332.329ZM354.873 171.676C351.573 171.676 349.241 169.278 349.241 165.956C349.241 162.634 351.573 160.236 354.873 160.236C358.151 160.236 360.527 162.634 360.527 165.956C360.527 169.278 358.151 171.676 354.873 171.676ZM354.873 170.004C357.095 170.004 358.591 168.332 358.591 165.956C358.591 163.58 357.095 161.908 354.873 161.908C352.651 161.908 351.155 163.58 351.155 165.956C351.155 168.332 352.651 170.004 354.873 170.004ZM363.72 171.5V162.062H361.828V160.412H363.72V159.378C363.72 156.936 365.106 155.638 366.998 155.638C367.504 155.638 368.032 155.682 368.494 155.814L368.406 157.486C368.01 157.332 367.614 157.266 367.24 157.266C366.25 157.266 365.59 158.036 365.59 159.224V160.412H368.428V162.062H365.59V171.5H363.72ZM380.845 171.676C377.545 171.676 375.345 169.388 375.345 165.956C375.345 162.524 377.545 160.236 380.845 160.236C383.419 160.236 385.311 161.644 385.707 163.844L383.859 164.218C383.617 162.876 382.451 161.908 380.889 161.908C378.711 161.908 377.303 163.514 377.303 165.956C377.303 168.398 378.711 170.004 380.889 170.004C382.451 170.004 383.595 169.146 383.903 167.672L385.729 168.046C385.245 170.334 383.397 171.676 380.845 171.676ZM394.547 162.238C394.129 162.062 393.601 161.974 393.117 161.974C391.357 161.974 389.927 163.668 389.927 167.276V171.5H388.057V160.412H389.927V162.656C390.565 161.248 392.017 160.236 393.381 160.236C393.843 160.236 394.283 160.302 394.657 160.434L394.547 162.238ZM406.029 160.412V171.5H404.159V169.41C403.389 170.73 402.047 171.676 400.353 171.676C398.043 171.676 396.393 170.114 396.393 167.76V160.412H398.263V167.408C398.263 168.904 399.209 169.982 400.771 169.982C402.839 169.982 404.159 168.2 404.159 165.274V160.412H406.029ZM413.931 171.676C410.631 171.676 408.431 169.388 408.431 165.956C408.431 162.524 410.631 160.236 413.931 160.236C416.505 160.236 418.397 161.644 418.793 163.844L416.945 164.218C416.703 162.876 415.537 161.908 413.975 161.908C411.797 161.908 410.389 163.514 410.389 165.956C410.389 168.398 411.797 170.004 413.975 170.004C415.537 170.004 416.681 169.146 416.989 167.672L418.815 168.046C418.331 170.334 416.483 171.676 413.931 171.676ZM422.067 158.322C421.319 158.322 420.769 157.75 420.769 157.024C420.769 156.276 421.319 155.704 422.067 155.704C422.837 155.704 423.409 156.276 423.409 157.024C423.409 157.75 422.837 158.322 422.067 158.322ZM421.143 171.5V160.412H423.013V171.5H421.143ZM431.519 171.676C429.891 171.676 428.417 170.906 427.911 169.894V171.5H426.041V155.924H427.911V161.996C428.615 160.962 430.067 160.236 431.541 160.236C434.973 160.236 436.865 162.7 436.865 165.956C436.865 169.212 434.973 171.676 431.519 171.676ZM431.343 170.004C433.521 170.004 434.951 168.398 434.951 165.956C434.951 163.514 433.521 161.908 431.343 161.908C429.165 161.908 427.757 163.514 427.757 165.956C427.757 168.398 429.165 170.004 431.343 170.004ZM442.708 171.654C440.728 171.852 439.254 171.104 439.254 168.794V155.924H441.124V168.662C441.124 169.872 441.696 170.048 442.62 169.982L442.708 171.654ZM454.915 165.45C454.915 165.714 454.893 166.11 454.871 166.308H446.115C446.247 168.552 447.655 170.026 449.657 170.026C451.351 170.026 452.517 169.234 452.847 167.848L454.607 168.266C454.057 170.422 452.209 171.676 449.657 171.676C446.335 171.676 444.245 169.102 444.245 165.956C444.245 162.81 446.269 160.236 449.613 160.236C452.891 160.236 454.915 162.59 454.915 165.45ZM446.225 164.746H452.935C452.759 163.052 451.571 161.798 449.613 161.798C447.875 161.798 446.599 162.898 446.225 164.746Z" fill="#595959"/>
</svg>
