<svg width="472" height="280" viewBox="0 0 472 280" fill="none" xmlns="http://www.w3.org/2000/svg">
<rect width="472" height="280" rx="12" fill="white"/>
<path d="M1.122 18V6.1H3.468L8.568 14.362V6.1H10.727V18H8.381L3.298 9.755V18H1.122ZM16.2051 9.296C18.4491 9.296 19.9791 10.503 19.9791 12.781V18H17.9051V16.759C17.4291 17.592 16.3921 18.136 15.3381 18.136C13.6551 18.136 12.4821 17.048 12.4821 15.586C12.4821 13.903 13.7571 13.002 16.3071 12.73L17.9051 12.577V12.492C17.9051 11.523 17.2421 10.928 16.2051 10.928C15.2701 10.928 14.6071 11.506 14.5051 12.424L12.6011 12.084C12.8731 10.384 14.3861 9.296 16.2051 9.296ZM15.8141 16.555C17.1401 16.555 17.9051 15.552 17.9051 14.294V14.107L16.2731 14.294C15.1341 14.43 14.5561 14.906 14.5561 15.518C14.5561 16.113 15.0321 16.555 15.8141 16.555ZM22.0712 18V9.432H24.2132V10.741C24.6892 9.891 25.4882 9.296 26.6782 9.296C28.0382 9.296 28.9562 9.874 29.3472 10.911C29.8062 10.044 30.8262 9.296 32.1862 9.296C34.0392 9.296 35.2462 10.503 35.2462 12.186V18H33.1042V12.781C33.1042 11.761 32.5432 11.115 31.5402 11.115C30.3842 11.115 29.7212 12.118 29.7212 13.631V18H27.5792V12.781C27.5792 11.761 27.0352 11.115 26.0492 11.115C24.8762 11.115 24.2132 12.135 24.2132 13.648V18H22.0712ZM38.399 8.123C37.634 8.123 37.073 7.545 37.073 6.797C37.073 6.066 37.634 5.488 38.399 5.488C39.181 5.488 39.759 6.066 39.759 6.797C39.759 7.545 39.181 8.123 38.399 8.123ZM37.328 18V9.432H39.47V18H37.328ZM41.5448 18V9.432H43.6868V10.724C44.2308 9.891 45.1998 9.296 46.4068 9.296C48.2768 9.296 49.5348 10.52 49.5348 12.39V18H47.3928V12.9C47.3928 11.897 46.7638 11.2 45.7608 11.2C44.4518 11.2 43.6868 12.322 43.6868 14.243V18H41.5448ZM56.1614 16.198C58.1334 16.198 59.3234 17.031 59.3234 18.595C59.3234 20.499 57.4534 21.23 55.1584 21.23C52.6424 21.23 50.9934 20.431 50.9934 18.765C50.9934 18.17 51.3334 17.541 51.8264 17.133C51.4694 16.81 51.2654 16.402 51.2654 15.909C51.2654 15.093 51.7584 14.515 52.5064 14.192C52.0134 13.682 51.7414 13.019 51.7414 12.237C51.7414 10.469 53.1354 9.296 55.1414 9.296C55.7194 9.296 56.2464 9.398 56.7054 9.585L57.9634 8.276L59.2044 9.432L58.0654 10.622C58.3714 11.064 58.5584 11.625 58.5584 12.237C58.5584 14.005 57.1644 15.161 55.1414 15.161C54.6824 15.161 54.2404 15.093 53.8494 14.991C53.4754 15.178 53.3054 15.399 53.3054 15.654C53.3054 16.045 53.6624 16.198 54.1554 16.198H56.1614ZM55.1414 10.945C54.3424 10.945 53.7304 11.438 53.7304 12.237C53.7304 13.019 54.3424 13.512 55.1414 13.512C55.9234 13.512 56.5524 13.019 56.5524 12.237C56.5524 11.438 55.9234 10.945 55.1414 10.945ZM55.1584 19.513C56.6034 19.513 57.2494 19.207 57.2494 18.629C57.2494 18.017 56.6884 17.864 55.8044 17.864H54.2234C53.9514 17.864 53.6794 17.847 53.4244 17.796C53.1524 18.085 53.0674 18.34 53.0674 18.646C53.0674 19.224 53.6454 19.513 55.1584 19.513ZM68.6468 18.136C66.0798 18.136 64.2948 16.334 64.2948 13.716C64.2948 11.098 66.0798 9.296 68.6468 9.296C70.8398 9.296 72.3868 10.435 72.6758 12.254L70.5848 12.662C70.4318 11.761 69.7178 11.149 68.7148 11.149C67.3888 11.149 66.5218 12.152 66.5218 13.716C66.5218 15.28 67.3888 16.283 68.7148 16.283C69.7178 16.283 70.3808 15.739 70.5848 14.821L72.6758 15.246C72.3528 17.048 70.8058 18.136 68.6468 18.136ZM78.2951 18.136C75.6941 18.136 73.8241 16.266 73.8241 13.716C73.8241 11.166 75.6941 9.296 78.2951 9.296C80.8961 9.296 82.7661 11.166 82.7661 13.716C82.7661 16.266 80.8961 18.136 78.2951 18.136ZM78.2951 16.283C79.6721 16.283 80.6071 15.246 80.6071 13.716C80.6071 12.186 79.6721 11.149 78.2951 11.149C76.9011 11.149 75.9831 12.186 75.9831 13.716C75.9831 15.246 76.9011 16.283 78.2951 16.283ZM84.3768 18V9.432H86.5188V10.724C87.0628 9.891 88.0318 9.296 89.2388 9.296C91.1088 9.296 92.3668 10.52 92.3668 12.39V18H90.2248V12.9C90.2248 11.897 89.5958 11.2 88.5928 11.2C87.2838 11.2 86.5188 12.322 86.5188 14.243V18H84.3768ZM96.2992 18L93.1712 9.432H95.3302L97.2852 15.518L99.2402 9.432H101.416L98.2882 18H96.2992ZM110.299 13.427C110.299 13.733 110.282 14.107 110.265 14.277H103.907C104.094 15.569 104.927 16.334 106.151 16.334C107.154 16.334 107.868 15.858 108.089 15.025L110.095 15.569C109.619 17.184 108.123 18.136 106.117 18.136C103.278 18.136 101.765 15.943 101.765 13.716C101.765 11.489 103.159 9.296 105.998 9.296C108.888 9.296 110.299 11.438 110.299 13.427ZM103.958 12.713H108.004C107.902 11.693 107.239 10.928 105.998 10.928C104.944 10.928 104.196 11.557 103.958 12.713ZM111.919 18V9.432H114.061V10.724C114.605 9.891 115.574 9.296 116.781 9.296C118.651 9.296 119.909 10.52 119.909 12.39V18H117.767V12.9C117.767 11.897 117.138 11.2 116.135 11.2C114.826 11.2 114.061 12.322 114.061 14.243V18H111.919ZM126.78 17.915C126.355 18.068 125.896 18.136 125.403 18.136C123.669 18.136 122.377 17.201 122.377 15.195V11.234H120.932V9.432H122.377V6.916H124.519V9.432H126.678V11.234H124.519V14.991C124.519 15.807 124.961 16.249 125.624 16.249C125.947 16.249 126.321 16.198 126.627 16.045L126.78 17.915ZM129.326 8.123C128.561 8.123 128 7.545 128 6.797C128 6.066 128.561 5.488 129.326 5.488C130.108 5.488 130.686 6.066 130.686 6.797C130.686 7.545 130.108 8.123 129.326 8.123ZM128.255 18V9.432H130.397V18H128.255ZM136.484 18.136C133.883 18.136 132.013 16.266 132.013 13.716C132.013 11.166 133.883 9.296 136.484 9.296C139.085 9.296 140.955 11.166 140.955 13.716C140.955 16.266 139.085 18.136 136.484 18.136ZM136.484 16.283C137.861 16.283 138.796 15.246 138.796 13.716C138.796 12.186 137.861 11.149 136.484 11.149C135.09 11.149 134.172 12.186 134.172 13.716C134.172 15.246 135.09 16.283 136.484 16.283ZM142.565 18V9.432H144.707V10.724C145.251 9.891 146.22 9.296 147.427 9.296C149.297 9.296 150.555 10.52 150.555 12.39V18H148.413V12.9C148.413 11.897 147.784 11.2 146.781 11.2C145.472 11.2 144.707 12.322 144.707 14.243V18H142.565Z" fill="#20014B"/>
<path d="M3.696 50L0.288 38.8H1.792L4.464 48.32L7.168 38.8H8.688L11.376 48.32L14.048 38.8H15.552L12.16 50H10.624L7.936 40.976L5.216 50H3.696ZM16.9478 50V38.672H18.3078V43.52C18.8998 42.368 19.8758 41.808 21.0598 41.808C22.8838 41.808 24.0838 42.944 24.0838 44.688V50H22.7238V44.944C22.7238 43.76 21.9878 43.04 20.7558 43.04C19.2678 43.04 18.3078 44.384 18.3078 46.544V50H16.9478ZM33.5875 45.6C33.5875 45.792 33.5715 46.08 33.5555 46.224H27.1875C27.2835 47.856 28.3075 48.928 29.7635 48.928C30.9955 48.928 31.8435 48.352 32.0835 47.344L33.3635 47.648C32.9635 49.216 31.6195 50.128 29.7635 50.128C27.3475 50.128 25.8275 48.256 25.8275 45.968C25.8275 43.68 27.2995 41.808 29.7315 41.808C32.1155 41.808 33.5875 43.52 33.5875 45.6ZM27.2675 45.088H32.1475C32.0195 43.856 31.1555 42.944 29.7315 42.944C28.4675 42.944 27.5395 43.744 27.2675 45.088ZM35.3384 50V41.936H36.6984V43.456C37.2584 42.496 38.2344 41.808 39.4664 41.808C41.1464 41.808 42.3464 42.944 42.3464 44.656V50H40.9864V44.912C40.9864 43.824 40.2984 43.04 39.1624 43.04C37.6584 43.04 36.6984 44.336 36.6984 46.464V50H35.3384ZM48.4165 50V41.936H49.7765V43.456C50.3365 42.496 51.3125 41.808 52.5445 41.808C54.2245 41.808 55.4245 42.944 55.4245 44.656V50H54.0645V44.912C54.0645 43.824 53.3765 43.04 52.2405 43.04C50.7365 43.04 49.7765 44.336 49.7765 46.464V50H48.4165ZM60.6432 41.808C62.5953 41.808 63.9553 42.96 63.9553 44.832V50H62.6113V48.624C62.1473 49.552 61.0913 50.128 59.9233 50.128C58.3073 50.128 57.2033 49.136 57.2033 47.744C57.2033 46.192 58.4673 45.344 61.0433 45.088L62.6113 44.912V44.752C62.6113 43.648 61.8273 42.944 60.6432 42.944C59.5393 42.944 58.7553 43.6 58.6432 44.688L57.3793 44.448C57.6193 42.848 58.9473 41.808 60.6432 41.808ZM60.1313 49.008C61.6993 49.008 62.6113 47.968 62.6113 46.352V45.968L61.0433 46.144C59.4113 46.32 58.5633 46.88 58.5633 47.728C58.5633 48.48 59.2033 49.008 60.1313 49.008ZM66.1665 50V41.936H67.5265V43.456C67.9265 42.496 68.7265 41.808 69.9585 41.808C71.2705 41.808 72.2945 42.416 72.5825 43.504C73.0145 42.544 73.9745 41.808 75.1905 41.808C76.9185 41.808 78.0065 42.896 78.0065 44.592V50H76.6465V44.864C76.6465 43.76 76.0225 43.008 74.8865 43.008C73.5105 43.008 72.7585 44.24 72.7585 45.952V50H71.3985V44.864C71.3985 43.76 70.7745 43.008 69.6545 43.008C68.2785 43.008 67.5265 44.24 67.5265 45.952V50H66.1665ZM80.8854 40.416C80.3414 40.416 79.9414 40 79.9414 39.472C79.9414 38.928 80.3414 38.512 80.8854 38.512C81.4454 38.512 81.8614 38.928 81.8614 39.472C81.8614 40 81.4454 40.416 80.8854 40.416ZM80.2134 50V41.936H81.5734V50H80.2134ZM83.7759 50V41.936H85.1359V43.456C85.6959 42.496 86.6719 41.808 87.9039 41.808C89.5839 41.808 90.7839 42.944 90.7839 44.656V50H89.4239V44.912C89.4239 43.824 88.7359 43.04 87.5999 43.04C86.0959 43.04 85.1359 44.336 85.1359 46.464V50H83.7759ZM97.1386 48.432C98.7546 48.432 99.8746 49.104 99.8746 50.592C99.8746 52.208 98.3706 53.04 96.1626 53.04C93.8746 53.04 92.4506 52.224 92.4506 50.736C92.4506 50.032 92.8346 49.456 93.3146 49.088C92.9146 48.816 92.6746 48.416 92.6746 47.84C92.6746 47.136 93.1386 46.608 93.7626 46.32C93.3306 45.856 93.0906 45.248 93.0906 44.528C93.0906 42.896 94.4026 41.808 96.1466 41.808C96.6746 41.808 97.1706 41.92 97.6186 42.128L98.8826 41.04L99.6666 41.936L98.5946 42.848C98.9786 43.296 99.2026 43.872 99.2026 44.528C99.2026 46.192 97.9066 47.248 96.1466 47.248C95.5706 47.248 95.0746 47.136 94.6426 46.944C94.1786 47.152 93.9866 47.424 93.9866 47.76C93.9866 48.256 94.4506 48.432 94.9786 48.432H97.1386ZM96.1466 42.912C95.2186 42.912 94.4186 43.52 94.4186 44.528C94.4186 45.552 95.2186 46.144 96.1466 46.144C97.0746 46.144 97.8746 45.552 97.8746 44.528C97.8746 43.52 97.0746 42.912 96.1466 42.912ZM96.1626 51.888C97.6986 51.888 98.5466 51.456 98.5466 50.688C98.5466 49.824 97.9066 49.536 96.9466 49.536H95.2346C94.9466 49.536 94.6746 49.52 94.4186 49.488C93.9226 49.824 93.7786 50.256 93.7786 50.72C93.7786 51.456 94.5946 51.888 96.1626 51.888ZM105.26 52.912V41.936H106.62V43.104C107.052 42.368 108.108 41.808 109.276 41.808C111.756 41.808 113.132 43.6 113.132 45.968C113.132 48.336 111.724 50.128 109.244 50.128C108.22 50.128 107.164 49.616 106.62 48.88V52.912H105.26ZM109.116 48.912C110.716 48.912 111.756 47.744 111.756 45.968C111.756 44.192 110.716 43.024 109.116 43.024C107.548 43.024 106.508 44.192 106.508 45.968C106.508 47.744 107.548 48.912 109.116 48.912ZM115.542 40.416C114.998 40.416 114.598 40 114.598 39.472C114.598 38.928 114.998 38.512 115.542 38.512C116.102 38.512 116.518 38.928 116.518 39.472C116.518 40 116.102 40.416 115.542 40.416ZM114.87 50V41.936H116.23V50H114.87ZM121.968 50.128C119.568 50.128 117.968 48.464 117.968 45.968C117.968 43.472 119.568 41.808 121.968 41.808C123.84 41.808 125.216 42.832 125.504 44.432L124.16 44.704C123.984 43.728 123.136 43.024 122 43.024C120.416 43.024 119.392 44.192 119.392 45.968C119.392 47.744 120.416 48.912 122 48.912C123.136 48.912 123.968 48.288 124.192 47.216L125.52 47.488C125.168 49.152 123.824 50.128 121.968 50.128ZM131.392 49.936C130.992 50.08 130.56 50.128 130.128 50.128C128.752 50.128 127.744 49.36 127.744 47.584V43.136H126.24V41.936H127.744V39.488H129.104V41.936H131.264V43.136H129.104V47.632C129.104 48.48 129.584 48.896 130.288 48.896C130.608 48.896 130.976 48.848 131.296 48.688L131.392 49.936ZM136.408 50.128C134.008 50.128 132.312 48.384 132.312 45.968C132.312 43.552 134.008 41.808 136.408 41.808C138.792 41.808 140.52 43.552 140.52 45.968C140.52 48.384 138.792 50.128 136.408 50.128ZM136.408 48.912C138.024 48.912 139.112 47.696 139.112 45.968C139.112 44.24 138.024 43.024 136.408 43.024C134.792 43.024 133.704 44.24 133.704 45.968C133.704 47.696 134.792 48.912 136.408 48.912ZM146.404 48.432C148.02 48.432 149.14 49.104 149.14 50.592C149.14 52.208 147.636 53.04 145.428 53.04C143.14 53.04 141.716 52.224 141.716 50.736C141.716 50.032 142.1 49.456 142.58 49.088C142.18 48.816 141.94 48.416 141.94 47.84C141.94 47.136 142.404 46.608 143.028 46.32C142.596 45.856 142.356 45.248 142.356 44.528C142.356 42.896 143.668 41.808 145.412 41.808C145.94 41.808 146.436 41.92 146.884 42.128L148.148 41.04L148.932 41.936L147.86 42.848C148.244 43.296 148.468 43.872 148.468 44.528C148.468 46.192 147.172 47.248 145.412 47.248C144.836 47.248 144.34 47.136 143.908 46.944C143.444 47.152 143.252 47.424 143.252 47.76C143.252 48.256 143.716 48.432 144.244 48.432H146.404ZM145.412 42.912C144.484 42.912 143.684 43.52 143.684 44.528C143.684 45.552 144.484 46.144 145.412 46.144C146.34 46.144 147.14 45.552 147.14 44.528C147.14 43.52 146.34 42.912 145.412 42.912ZM145.428 51.888C146.964 51.888 147.812 51.456 147.812 50.688C147.812 49.824 147.172 49.536 146.212 49.536H144.5C144.212 49.536 143.94 49.52 143.684 49.488C143.188 49.824 143.044 50.256 143.044 50.72C143.044 51.456 143.86 51.888 145.428 51.888ZM155.387 43.264C155.083 43.136 154.699 43.072 154.347 43.072C153.067 43.072 152.027 44.304 152.027 46.928V50H150.667V41.936H152.027V43.568C152.491 42.544 153.547 41.808 154.539 41.808C154.875 41.808 155.195 41.856 155.467 41.952L155.387 43.264ZM159.518 41.808C161.47 41.808 162.83 42.96 162.83 44.832V50H161.486V48.624C161.022 49.552 159.966 50.128 158.798 50.128C157.182 50.128 156.078 49.136 156.078 47.744C156.078 46.192 157.342 45.344 159.918 45.088L161.486 44.912V44.752C161.486 43.648 160.702 42.944 159.518 42.944C158.414 42.944 157.63 43.6 157.518 44.688L156.254 44.448C156.494 42.848 157.822 41.808 159.518 41.808ZM159.006 49.008C160.574 49.008 161.486 47.968 161.486 46.352V45.968L159.918 46.144C158.286 46.32 157.438 46.88 157.438 47.728C157.438 48.48 158.078 49.008 159.006 49.008ZM165.042 50V41.936H166.402V43.456C166.802 42.496 167.602 41.808 168.834 41.808C170.146 41.808 171.17 42.416 171.458 43.504C171.89 42.544 172.85 41.808 174.066 41.808C175.794 41.808 176.882 42.896 176.882 44.592V50H175.522V44.864C175.522 43.76 174.898 43.008 173.762 43.008C172.385 43.008 171.634 44.24 171.634 45.952V50H170.274V44.864C170.274 43.76 169.65 43.008 168.53 43.008C167.154 43.008 166.402 44.24 166.402 45.952V50H165.042ZM181.792 50.128C179.84 50.128 178.784 48.912 178.432 47.776L179.6 47.264C179.904 48.208 180.544 48.976 181.792 48.976C182.784 48.976 183.424 48.4 183.424 47.744C183.424 45.68 178.784 47.008 178.784 43.952C178.784 42.672 179.888 41.808 181.616 41.808C183.04 41.808 184.272 42.608 184.608 43.792L183.472 44.288C183.248 43.456 182.448 42.928 181.584 42.928C180.672 42.928 180.096 43.296 180.096 43.936C180.096 45.664 184.768 44.4 184.752 47.728C184.752 49.136 183.568 50.128 181.792 50.128ZM185.511 51.696L186.439 48.336H188.263L186.471 51.696H185.511ZM198.119 50.128C196.935 50.128 195.863 49.568 195.495 48.832V50H194.135V38.672H195.495V43.088C196.007 42.336 197.063 41.808 198.135 41.808C200.631 41.808 202.007 43.6 202.007 45.968C202.007 48.336 200.631 50.128 198.119 50.128ZM197.991 48.912C199.575 48.912 200.615 47.744 200.615 45.968C200.615 44.192 199.575 43.024 197.991 43.024C196.407 43.024 195.383 44.192 195.383 45.968C195.383 47.744 196.407 48.912 197.991 48.912ZM211.041 45.6C211.041 45.792 211.025 46.08 211.009 46.224H204.641C204.737 47.856 205.761 48.928 207.217 48.928C208.449 48.928 209.297 48.352 209.537 47.344L210.817 47.648C210.417 49.216 209.073 50.128 207.217 50.128C204.801 50.128 203.281 48.256 203.281 45.968C203.281 43.68 204.753 41.808 207.185 41.808C209.569 41.808 211.041 43.52 211.041 45.6ZM204.721 45.088H209.601C209.473 43.856 208.609 42.944 207.185 42.944C205.921 42.944 204.993 43.744 204.721 45.088ZM219.355 50.128C217.403 50.128 216.347 48.912 215.995 47.776L217.163 47.264C217.467 48.208 218.107 48.976 219.355 48.976C220.347 48.976 220.987 48.4 220.987 47.744C220.987 45.68 216.347 47.008 216.347 43.952C216.347 42.672 217.451 41.808 219.179 41.808C220.603 41.808 221.835 42.608 222.171 43.792L221.035 44.288C220.811 43.456 220.011 42.928 219.147 42.928C218.235 42.928 217.659 43.296 217.659 43.936C217.659 45.664 222.331 44.4 222.315 47.728C222.315 49.136 221.131 50.128 219.355 50.128ZM231.05 41.936V50H229.69V48.48C229.13 49.44 228.154 50.128 226.922 50.128C225.242 50.128 224.042 48.992 224.042 47.28V41.936H225.402V47.024C225.402 48.112 226.09 48.896 227.226 48.896C228.73 48.896 229.69 47.6 229.69 45.472V41.936H231.05ZM237.98 43.264C237.676 43.136 237.292 43.072 236.94 43.072C235.66 43.072 234.62 44.304 234.62 46.928V50H233.26V41.936H234.62V43.568C235.084 42.544 236.14 41.808 237.132 41.808C237.468 41.808 237.788 41.856 238.06 41.952L237.98 43.264ZM246.306 45.6C246.306 45.792 246.29 46.08 246.274 46.224H239.906C240.002 47.856 241.026 48.928 242.482 48.928C243.714 48.928 244.562 48.352 244.802 47.344L246.082 47.648C245.682 49.216 244.338 50.128 242.482 50.128C240.066 50.128 238.546 48.256 238.546 45.968C238.546 43.68 240.018 41.808 242.45 41.808C244.834 41.808 246.306 43.52 246.306 45.6ZM239.986 45.088H244.866C244.738 43.856 243.874 42.944 242.45 42.944C241.186 42.944 240.258 43.744 239.986 45.088ZM256.205 49.936C255.805 50.08 255.373 50.128 254.941 50.128C253.565 50.128 252.557 49.36 252.557 47.584V43.136H251.053V41.936H252.557V39.488H253.917V41.936H256.077V43.136H253.917V47.632C253.917 48.48 254.397 48.896 255.101 48.896C255.421 48.896 255.789 48.848 256.109 48.688L256.205 49.936ZM261.22 50.128C258.82 50.128 257.124 48.384 257.124 45.968C257.124 43.552 258.82 41.808 261.22 41.808C263.604 41.808 265.332 43.552 265.332 45.968C265.332 48.384 263.604 50.128 261.22 50.128ZM261.22 48.912C262.836 48.912 263.924 47.696 263.924 45.968C263.924 44.24 262.836 43.024 261.22 43.024C259.604 43.024 258.516 44.24 258.516 45.968C258.516 47.696 259.604 48.912 261.22 48.912ZM277.94 41.936V50H276.58V48.48C276.02 49.44 275.044 50.128 273.812 50.128C272.132 50.128 270.932 48.992 270.932 47.28V41.936H272.292V47.024C272.292 48.112 272.98 48.896 274.116 48.896C275.62 48.896 276.58 47.6 276.58 45.472V41.936H277.94ZM282.855 50.128C280.903 50.128 279.847 48.912 279.495 47.776L280.663 47.264C280.967 48.208 281.607 48.976 282.855 48.976C283.847 48.976 284.487 48.4 284.487 47.744C284.487 45.68 279.847 47.008 279.847 43.952C279.847 42.672 280.951 41.808 282.679 41.808C284.103 41.808 285.335 42.608 285.671 43.792L284.535 44.288C284.311 43.456 283.511 42.928 282.647 42.928C281.735 42.928 281.159 43.296 281.159 43.936C281.159 45.664 285.831 44.4 285.815 47.728C285.815 49.136 284.631 50.128 282.855 50.128ZM294.775 45.6C294.775 45.792 294.759 46.08 294.743 46.224H288.375C288.471 47.856 289.495 48.928 290.951 48.928C292.183 48.928 293.031 48.352 293.271 47.344L294.551 47.648C294.151 49.216 292.807 50.128 290.951 50.128C288.535 50.128 287.015 48.256 287.015 45.968C287.015 43.68 288.487 41.808 290.919 41.808C293.303 41.808 294.775 43.52 294.775 45.6ZM288.455 45.088H293.335C293.207 43.856 292.343 42.944 290.919 42.944C289.655 42.944 288.727 43.744 288.455 45.088ZM304.673 49.936C304.273 50.08 303.841 50.128 303.409 50.128C302.033 50.128 301.025 49.36 301.025 47.584V43.136H299.521V41.936H301.025V39.488H302.385V41.936H304.545V43.136H302.385V47.632C302.385 48.48 302.865 48.896 303.569 48.896C303.889 48.896 304.257 48.848 304.577 48.688L304.673 49.936ZM306.932 40.416C306.388 40.416 305.988 40 305.988 39.472C305.988 38.928 306.388 38.512 306.932 38.512C307.492 38.512 307.908 38.928 307.908 39.472C307.908 40 307.492 40.416 306.932 40.416ZM306.26 50V41.936H307.62V50H306.26ZM314.111 49.936C313.711 50.08 313.279 50.128 312.847 50.128C311.471 50.128 310.463 49.36 310.463 47.584V43.136H308.959V41.936H310.463V39.488H311.823V41.936H313.983V43.136H311.823V47.632C311.823 48.48 312.303 48.896 313.007 48.896C313.327 48.896 313.695 48.848 314.015 48.688L314.111 49.936ZM318.35 50.112C316.91 50.256 315.838 49.712 315.838 48.032V38.672H317.198V47.936C317.198 48.816 317.614 48.944 318.286 48.896L318.35 50.112ZM327.228 45.6C327.228 45.792 327.212 46.08 327.196 46.224H320.828C320.924 47.856 321.948 48.928 323.404 48.928C324.636 48.928 325.484 48.352 325.724 47.344L327.004 47.648C326.604 49.216 325.26 50.128 323.404 50.128C320.988 50.128 319.468 48.256 319.468 45.968C319.468 43.68 320.94 41.808 323.372 41.808C325.756 41.808 327.228 43.52 327.228 45.6ZM320.908 45.088H325.788C325.66 43.856 324.796 42.944 323.372 42.944C322.108 42.944 321.18 43.744 320.908 45.088ZM336.374 50.128C333.974 50.128 332.374 48.464 332.374 45.968C332.374 43.472 333.974 41.808 336.374 41.808C338.246 41.808 339.622 42.832 339.91 44.432L338.566 44.704C338.39 43.728 337.542 43.024 336.406 43.024C334.822 43.024 333.798 44.192 333.798 45.968C333.798 47.744 334.822 48.912 336.406 48.912C337.542 48.912 338.374 48.288 338.598 47.216L339.926 47.488C339.574 49.152 338.23 50.128 336.374 50.128ZM344.549 41.808C346.502 41.808 347.862 42.96 347.862 44.832V50H346.518V48.624C346.054 49.552 344.998 50.128 343.83 50.128C342.214 50.128 341.11 49.136 341.11 47.744C341.11 46.192 342.374 45.344 344.95 45.088L346.518 44.912V44.752C346.518 43.648 345.734 42.944 344.549 42.944C343.446 42.944 342.662 43.6 342.549 44.688L341.286 44.448C341.526 42.848 342.854 41.808 344.549 41.808ZM344.038 49.008C345.606 49.008 346.518 47.968 346.518 46.352V45.968L344.95 46.144C343.318 46.32 342.47 46.88 342.47 47.728C342.47 48.48 343.11 49.008 344.038 49.008ZM352.777 50.128C350.825 50.128 349.769 48.912 349.417 47.776L350.585 47.264C350.889 48.208 351.529 48.976 352.777 48.976C353.769 48.976 354.409 48.4 354.409 47.744C354.409 45.68 349.769 47.008 349.769 43.952C349.769 42.672 350.873 41.808 352.601 41.808C354.025 41.808 355.257 42.608 355.593 43.792L354.457 44.288C354.233 43.456 353.433 42.928 352.569 42.928C351.657 42.928 351.081 43.296 351.081 43.936C351.081 45.664 355.753 44.4 355.737 47.728C355.737 49.136 354.553 50.128 352.777 50.128ZM364.697 45.6C364.697 45.792 364.681 46.08 364.665 46.224H358.297C358.393 47.856 359.417 48.928 360.873 48.928C362.105 48.928 362.953 48.352 363.193 47.344L364.473 47.648C364.073 49.216 362.729 50.128 360.873 50.128C358.457 50.128 356.937 48.256 356.937 45.968C356.937 43.68 358.409 41.808 360.841 41.808C363.225 41.808 364.697 43.52 364.697 45.6ZM358.377 45.088H363.257C363.129 43.856 362.265 42.944 360.841 42.944C359.577 42.944 358.649 43.744 358.377 45.088ZM373.315 41.808C375.267 41.808 376.627 42.96 376.627 44.832V50H375.283V48.624C374.819 49.552 373.763 50.128 372.595 50.128C370.979 50.128 369.875 49.136 369.875 47.744C369.875 46.192 371.139 45.344 373.715 45.088L375.283 44.912V44.752C375.283 43.648 374.499 42.944 373.315 42.944C372.211 42.944 371.427 43.6 371.315 44.688L370.051 44.448C370.291 42.848 371.619 41.808 373.315 41.808ZM372.803 49.008C374.371 49.008 375.283 47.968 375.283 46.352V45.968L373.715 46.144C372.083 46.32 371.235 46.88 371.235 47.728C371.235 48.48 371.875 49.008 372.803 49.008ZM378.838 50V41.936H380.198V43.456C380.758 42.496 381.734 41.808 382.966 41.808C384.646 41.808 385.846 42.944 385.846 44.656V50H384.486V44.912C384.486 43.824 383.798 43.04 382.662 43.04C381.158 43.04 380.198 44.336 380.198 46.464V50H378.838ZM391.481 50.128C388.969 50.128 387.593 48.336 387.593 45.968C387.593 43.6 388.969 41.808 391.465 41.808C392.537 41.808 393.593 42.336 394.105 43.088V38.672H395.465V50H394.105V48.832C393.737 49.568 392.665 50.128 391.481 50.128ZM391.609 48.912C393.193 48.912 394.233 47.744 394.233 45.968C394.233 44.192 393.193 43.024 391.609 43.024C390.025 43.024 388.985 44.192 388.985 45.968C388.985 47.744 390.025 48.912 391.609 48.912ZM405.062 50.128C402.662 50.128 401.062 48.464 401.062 45.968C401.062 43.472 402.662 41.808 405.062 41.808C406.934 41.808 408.31 42.832 408.598 44.432L407.254 44.704C407.078 43.728 406.23 43.024 405.094 43.024C403.51 43.024 402.486 44.192 402.486 45.968C402.486 47.744 403.51 48.912 405.094 48.912C406.23 48.912 407.062 48.288 407.286 47.216L408.614 47.488C408.262 49.152 406.918 50.128 405.062 50.128ZM410.307 50V38.672H411.667V43.52C412.259 42.368 413.235 41.808 414.419 41.808C416.243 41.808 417.443 42.944 417.443 44.688V50H416.083V44.944C416.083 43.76 415.347 43.04 414.115 43.04C412.627 43.04 411.667 44.384 411.667 46.544V50H410.307ZM423.283 50.128C420.883 50.128 419.187 48.384 419.187 45.968C419.187 43.552 420.883 41.808 423.283 41.808C425.667 41.808 427.395 43.552 427.395 45.968C427.395 48.384 425.667 50.128 423.283 50.128ZM423.283 48.912C424.899 48.912 425.987 47.696 425.987 45.968C425.987 44.24 424.899 43.024 423.283 43.024C421.667 43.024 420.579 44.24 420.579 45.968C420.579 47.696 421.667 48.912 423.283 48.912ZM432.767 50.128C430.367 50.128 428.671 48.384 428.671 45.968C428.671 43.552 430.367 41.808 432.767 41.808C435.151 41.808 436.879 43.552 436.879 45.968C436.879 48.384 435.151 50.128 432.767 50.128ZM432.767 48.912C434.383 48.912 435.471 47.696 435.471 45.968C435.471 44.24 434.383 43.024 432.767 43.024C431.151 43.024 430.063 44.24 430.063 45.968C430.063 47.696 431.151 48.912 432.767 48.912ZM441.246 50.128C439.294 50.128 438.238 48.912 437.886 47.776L439.054 47.264C439.358 48.208 439.998 48.976 441.246 48.976C442.238 48.976 442.878 48.4 442.878 47.744C442.878 45.68 438.238 47.008 438.238 43.952C438.238 42.672 439.342 41.808 441.07 41.808C442.494 41.808 443.726 42.608 444.062 43.792L442.926 44.288C442.702 43.456 441.902 42.928 441.038 42.928C440.126 42.928 439.549 43.296 439.549 43.936C439.549 45.664 444.222 44.4 444.206 47.728C444.206 49.136 443.022 50.128 441.246 50.128ZM453.166 45.6C453.166 45.792 453.15 46.08 453.134 46.224H446.766C446.862 47.856 447.886 48.928 449.342 48.928C450.574 48.928 451.422 48.352 451.662 47.344L452.942 47.648C452.542 49.216 451.198 50.128 449.342 50.128C446.926 50.128 445.406 48.256 445.406 45.968C445.406 43.68 446.878 41.808 449.31 41.808C451.694 41.808 453.166 43.52 453.166 45.6ZM446.846 45.088H451.726C451.598 43.856 450.734 42.944 449.31 42.944C448.046 42.944 447.118 43.744 446.846 45.088ZM1.104 67V58.936H2.464V60.456C3.024 59.496 4 58.808 5.232 58.808C6.912 58.808 8.112 59.944 8.112 61.656V67H6.752V61.912C6.752 60.824 6.064 60.04 4.928 60.04C3.424 60.04 2.464 61.336 2.464 63.464V67H1.104ZM13.3307 58.808C15.2828 58.808 16.6428 59.96 16.6428 61.832V67H15.2988V65.624C14.8348 66.552 13.7788 67.128 12.6108 67.128C10.9948 67.128 9.89075 66.136 9.89075 64.744C9.89075 63.192 11.1548 62.344 13.7308 62.088L15.2988 61.912V61.752C15.2988 60.648 14.5148 59.944 13.3307 59.944C12.2268 59.944 11.4428 60.6 11.3307 61.688L10.0668 61.448C10.3068 59.848 11.6348 58.808 13.3307 58.808ZM12.8188 66.008C14.3868 66.008 15.2988 64.968 15.2988 63.352V62.968L13.7308 63.144C12.0988 63.32 11.2508 63.88 11.2508 64.728C11.2508 65.48 11.8908 66.008 12.8188 66.008ZM18.854 67V58.936H20.214V60.456C20.614 59.496 21.414 58.808 22.646 58.808C23.958 58.808 24.982 59.416 25.27 60.504C25.702 59.544 26.662 58.808 27.878 58.808C29.606 58.808 30.694 59.896 30.694 61.592V67H29.334V61.864C29.334 60.76 28.71 60.008 27.574 60.008C26.198 60.008 25.446 61.24 25.446 62.952V67H24.086V61.864C24.086 60.76 23.462 60.008 22.342 60.008C20.966 60.008 20.214 61.24 20.214 62.952V67H18.854ZM40.1969 62.6C40.1969 62.792 40.1809 63.08 40.1649 63.224H33.7969C33.8929 64.856 34.9169 65.928 36.3729 65.928C37.6049 65.928 38.4529 65.352 38.6929 64.344L39.9729 64.648C39.5729 66.216 38.2289 67.128 36.3729 67.128C33.9569 67.128 32.4369 65.256 32.4369 62.968C32.4369 60.68 33.9089 58.808 36.3409 58.808C38.7249 58.808 40.1969 60.52 40.1969 62.6ZM33.8769 62.088H38.7569C38.6289 60.856 37.7649 59.944 36.3409 59.944C35.0769 59.944 34.1489 60.744 33.8769 62.088ZM44.5736 67.128C42.6216 67.128 41.5656 65.912 41.2136 64.776L42.3816 64.264C42.6856 65.208 43.3256 65.976 44.5736 65.976C45.5656 65.976 46.2056 65.4 46.2056 64.744C46.2056 62.68 41.5656 64.008 41.5656 60.952C41.5656 59.672 42.6696 58.808 44.3976 58.808C45.8216 58.808 47.0536 59.608 47.3896 60.792L46.2536 61.288C46.0296 60.456 45.2296 59.928 44.3656 59.928C43.4536 59.928 42.8776 60.296 42.8776 60.936C42.8776 62.664 47.5496 61.4 47.5336 64.728C47.5336 66.136 46.3496 67.128 44.5736 67.128ZM57.4076 66.936C57.0076 67.08 56.5756 67.128 56.1436 67.128C54.7676 67.128 53.7596 66.36 53.7596 64.584V60.136H52.2556V58.936H53.7596V56.488H55.1196V58.936H57.2796V60.136H55.1196V64.632C55.1196 65.48 55.5996 65.896 56.3036 65.896C56.6236 65.896 56.9916 65.848 57.3116 65.688L57.4076 66.936ZM59.1353 67V55.672H60.4953V60.52C61.0873 59.368 62.0633 58.808 63.2473 58.808C65.0713 58.808 66.2713 59.944 66.2713 61.688V67H64.9113V61.944C64.9113 60.76 64.1753 60.04 62.9433 60.04C61.4553 60.04 60.4953 61.384 60.4953 63.544V67H59.1353ZM71.487 58.808C73.439 58.808 74.799 59.96 74.799 61.832V67H73.455V65.624C72.991 66.552 71.935 67.128 70.767 67.128C69.151 67.128 68.047 66.136 68.047 64.744C68.047 63.192 69.311 62.344 71.887 62.088L73.455 61.912V61.752C73.455 60.648 72.671 59.944 71.487 59.944C70.383 59.944 69.599 60.6 69.487 61.688L68.223 61.448C68.463 59.848 69.791 58.808 71.487 58.808ZM70.975 66.008C72.543 66.008 73.455 64.968 73.455 63.352V62.968L71.887 63.144C70.255 63.32 69.407 63.88 69.407 64.728C69.407 65.48 70.047 66.008 70.975 66.008ZM81.2514 66.936C80.8514 67.08 80.4194 67.128 79.9874 67.128C78.6114 67.128 77.6034 66.36 77.6034 64.584V60.136H76.0994V58.936H77.6034V56.488H78.9634V58.936H81.1234V60.136H78.9634V64.632C78.9634 65.48 79.4434 65.896 80.1474 65.896C80.4674 65.896 80.8354 65.848 81.1554 65.688L81.2514 66.936ZM91.4178 60.264C91.1138 60.136 90.7298 60.072 90.3778 60.072C89.0978 60.072 88.0578 61.304 88.0578 63.928V67H86.6978V58.936H88.0578V60.568C88.5218 59.544 89.5778 58.808 90.5698 58.808C90.9058 58.808 91.2258 58.856 91.4978 58.952L91.4178 60.264ZM99.7438 62.6C99.7438 62.792 99.7278 63.08 99.7118 63.224H93.3438C93.4398 64.856 94.4638 65.928 95.9198 65.928C97.1518 65.928 97.9998 65.352 98.2398 64.344L99.5198 64.648C99.1198 66.216 97.7758 67.128 95.9198 67.128C93.5038 67.128 91.9838 65.256 91.9838 62.968C91.9838 60.68 93.4557 58.808 95.8878 58.808C98.2718 58.808 99.7438 60.52 99.7438 62.6ZM93.4238 62.088H98.3038C98.1758 60.856 97.3118 59.944 95.8878 59.944C94.6238 59.944 93.6957 60.744 93.4238 62.088ZM102.076 67V60.136H100.7V58.936H102.076V58.184C102.076 56.408 103.084 55.464 104.46 55.464C104.828 55.464 105.212 55.496 105.548 55.592L105.484 56.808C105.196 56.696 104.908 56.648 104.636 56.648C103.916 56.648 103.436 57.208 103.436 58.072V58.936H105.5V60.136H103.436V67H102.076ZM109.647 67.112C108.207 67.256 107.135 66.712 107.135 65.032V55.672H108.495V64.936C108.495 65.816 108.911 65.944 109.583 65.896L109.647 67.112ZM118.525 62.6C118.525 62.792 118.509 63.08 118.493 63.224H112.125C112.221 64.856 113.245 65.928 114.701 65.928C115.933 65.928 116.781 65.352 117.021 64.344L118.301 64.648C117.901 66.216 116.557 67.128 114.701 67.128C112.285 67.128 110.765 65.256 110.765 62.968C110.765 60.68 112.237 58.808 114.669 58.808C117.053 58.808 118.525 60.52 118.525 62.6ZM112.205 62.088H117.085C116.957 60.856 116.093 59.944 114.669 59.944C113.405 59.944 112.477 60.744 112.205 62.088ZM123.812 67.128C121.412 67.128 119.812 65.464 119.812 62.968C119.812 60.472 121.412 58.808 123.812 58.808C125.684 58.808 127.06 59.832 127.348 61.432L126.004 61.704C125.828 60.728 124.98 60.024 123.844 60.024C122.26 60.024 121.236 61.192 121.236 62.968C121.236 64.744 122.26 65.912 123.844 65.912C124.98 65.912 125.812 65.288 126.036 64.216L127.364 64.488C127.012 66.152 125.668 67.128 123.812 67.128ZM133.236 66.936C132.836 67.08 132.404 67.128 131.972 67.128C130.596 67.128 129.588 66.36 129.588 64.584V60.136H128.084V58.936H129.588V56.488H130.948V58.936H133.108V60.136H130.948V64.632C130.948 65.48 131.428 65.896 132.132 65.896C132.452 65.896 132.82 65.848 133.14 65.688L133.236 66.936ZM142.97 66.936C142.57 67.08 142.138 67.128 141.706 67.128C140.33 67.128 139.322 66.36 139.322 64.584V60.136H137.818V58.936H139.322V56.488H140.682V58.936H142.842V60.136H140.682V64.632C140.682 65.48 141.162 65.896 141.866 65.896C142.186 65.896 142.554 65.848 142.874 65.688L142.97 66.936ZM144.698 67V55.672H146.058V60.52C146.65 59.368 147.626 58.808 148.81 58.808C150.634 58.808 151.834 59.944 151.834 61.688V67H150.474V61.944C150.474 60.76 149.738 60.04 148.506 60.04C147.018 60.04 146.058 61.384 146.058 63.544V67H144.698ZM161.338 62.6C161.338 62.792 161.322 63.08 161.306 63.224H154.938C155.034 64.856 156.058 65.928 157.514 65.928C158.746 65.928 159.594 65.352 159.834 64.344L161.114 64.648C160.714 66.216 159.37 67.128 157.514 67.128C155.098 67.128 153.578 65.256 153.578 62.968C153.578 60.68 155.049 58.808 157.482 58.808C159.866 58.808 161.338 60.52 161.338 62.6ZM155.018 62.088H159.898C159.77 60.856 158.906 59.944 157.482 59.944C156.218 59.944 155.289 60.744 155.018 62.088ZM170.58 67.128C168.18 67.128 166.484 65.384 166.484 62.968C166.484 60.552 168.18 58.808 170.58 58.808C172.964 58.808 174.692 60.552 174.692 62.968C174.692 65.384 172.964 67.128 170.58 67.128ZM170.58 65.912C172.196 65.912 173.284 64.696 173.284 62.968C173.284 61.24 172.196 60.024 170.58 60.024C168.964 60.024 167.876 61.24 167.876 62.968C167.876 64.696 168.964 65.912 170.58 65.912ZM180.416 67.128C179.232 67.128 178.16 66.568 177.792 65.832V67H176.432V55.672H177.792V60.088C178.304 59.336 179.36 58.808 180.432 58.808C182.928 58.808 184.304 60.6 184.304 62.968C184.304 65.336 182.928 67.128 180.416 67.128ZM180.288 65.912C181.872 65.912 182.912 64.744 182.912 62.968C182.912 61.192 181.872 60.024 180.288 60.024C178.704 60.024 177.68 61.192 177.68 62.968C177.68 64.744 178.704 65.912 180.288 65.912ZM186.746 57.416C186.202 57.416 185.802 57 185.802 56.472C185.802 55.928 186.202 55.512 186.746 55.512C187.306 55.512 187.722 55.928 187.722 56.472C187.722 57 187.306 57.416 186.746 57.416ZM185.05 70.04C184.938 70.04 184.713 70.024 184.713 70.024L184.681 68.808C184.793 68.824 184.825 68.824 184.905 68.824C185.706 68.824 186.074 68.248 186.074 67.32V58.936H187.434V67.496C187.434 68.984 186.49 70.04 185.05 70.04ZM196.916 62.6C196.916 62.792 196.9 63.08 196.884 63.224H190.516C190.612 64.856 191.636 65.928 193.092 65.928C194.324 65.928 195.172 65.352 195.412 64.344L196.692 64.648C196.292 66.216 194.948 67.128 193.092 67.128C190.676 67.128 189.156 65.256 189.156 62.968C189.156 60.68 190.628 58.808 193.06 58.808C195.444 58.808 196.916 60.52 196.916 62.6ZM190.596 62.088H195.476C195.348 60.856 194.484 59.944 193.06 59.944C191.796 59.944 190.868 60.744 190.596 62.088ZM202.203 67.128C199.803 67.128 198.203 65.464 198.203 62.968C198.203 60.472 199.803 58.808 202.203 58.808C204.075 58.808 205.451 59.832 205.739 61.432L204.395 61.704C204.219 60.728 203.371 60.024 202.235 60.024C200.651 60.024 199.627 61.192 199.627 62.968C199.627 64.744 200.651 65.912 202.235 65.912C203.371 65.912 204.203 65.288 204.427 64.216L205.755 64.488C205.403 66.152 204.059 67.128 202.203 67.128ZM211.626 66.936C211.226 67.08 210.794 67.128 210.362 67.128C208.986 67.128 207.978 66.36 207.978 64.584V60.136H206.474V58.936H207.978V56.488H209.338V58.936H211.498V60.136H209.338V64.632C209.338 65.48 209.818 65.896 210.522 65.896C210.842 65.896 211.21 65.848 211.53 65.688L211.626 66.936ZM216.027 67.128C214.075 67.128 213.019 65.912 212.667 64.776L213.835 64.264C214.139 65.208 214.779 65.976 216.027 65.976C217.019 65.976 217.659 65.4 217.659 64.744C217.659 62.68 213.019 64.008 213.019 60.952C213.019 59.672 214.123 58.808 215.851 58.808C217.275 58.808 218.507 59.608 218.843 60.792L217.707 61.288C217.483 60.456 216.683 59.928 215.819 59.928C214.907 59.928 214.331 60.296 214.331 60.936C214.331 62.664 219.003 61.4 218.987 64.728C218.987 66.136 217.803 67.128 216.027 67.128ZM227.277 67.128C225.325 67.128 224.269 65.912 223.917 64.776L225.085 64.264C225.389 65.208 226.029 65.976 227.277 65.976C228.269 65.976 228.909 65.4 228.909 64.744C228.909 62.68 224.269 64.008 224.269 60.952C224.269 59.672 225.373 58.808 227.101 58.808C228.525 58.808 229.757 59.608 230.093 60.792L228.957 61.288C228.733 60.456 227.933 59.928 227.069 59.928C226.157 59.928 225.581 60.296 225.581 60.936C225.581 62.664 230.253 61.4 230.237 64.728C230.237 66.136 229.053 67.128 227.277 67.128ZM231.963 67V55.672H233.323V60.52C233.915 59.368 234.891 58.808 236.075 58.808C237.899 58.808 239.099 59.944 239.099 61.688V67H237.739V61.944C237.739 60.76 237.003 60.04 235.771 60.04C234.283 60.04 233.323 61.384 233.323 63.544V67H231.963ZM244.939 67.128C242.539 67.128 240.843 65.384 240.843 62.968C240.843 60.552 242.539 58.808 244.939 58.808C247.323 58.808 249.051 60.552 249.051 62.968C249.051 65.384 247.323 67.128 244.939 67.128ZM244.939 65.912C246.555 65.912 247.643 64.696 247.643 62.968C247.643 61.24 246.555 60.024 244.939 60.024C243.323 60.024 242.235 61.24 242.235 62.968C242.235 64.696 243.323 65.912 244.939 65.912ZM252.38 67L249.916 58.936H251.308L253.052 65.096L254.94 58.936H256.252L258.14 65.096L259.868 58.936H261.292L258.812 67H257.484L255.596 60.872L253.708 67H252.38ZM262.807 67V58.936H264.167V60.456C264.727 59.496 265.703 58.808 266.935 58.808C268.615 58.808 269.815 59.944 269.815 61.656V67H268.455V61.912C268.455 60.824 267.767 60.04 266.631 60.04C265.127 60.04 264.167 61.336 264.167 63.464V67H262.807ZM276.557 57.416C276.013 57.416 275.613 57 275.613 56.472C275.613 55.928 276.013 55.512 276.557 55.512C277.117 55.512 277.533 55.928 277.533 56.472C277.533 57 277.117 57.416 276.557 57.416ZM275.885 67V58.936H277.245V67H275.885ZM279.448 67V58.936H280.808V60.456C281.368 59.496 282.344 58.808 283.576 58.808C285.256 58.808 286.456 59.944 286.456 61.656V67H285.096V61.912C285.096 60.824 284.408 60.04 283.272 60.04C281.768 60.04 280.808 61.336 280.808 63.464V67H279.448ZM296.814 66.936C296.414 67.08 295.982 67.128 295.55 67.128C294.174 67.128 293.166 66.36 293.166 64.584V60.136H291.662V58.936H293.166V56.488H294.526V58.936H296.686V60.136H294.526V64.632C294.526 65.48 295.006 65.896 295.71 65.896C296.03 65.896 296.398 65.848 296.718 65.688L296.814 66.936ZM298.542 67V55.672H299.902V60.52C300.494 59.368 301.47 58.808 302.654 58.808C304.478 58.808 305.678 59.944 305.678 61.688V67H304.318V61.944C304.318 60.76 303.582 60.04 302.35 60.04C300.862 60.04 299.902 61.384 299.902 63.544V67H298.542ZM315.181 62.6C315.181 62.792 315.165 63.08 315.149 63.224H308.781C308.877 64.856 309.901 65.928 311.357 65.928C312.589 65.928 313.437 65.352 313.677 64.344L314.957 64.648C314.557 66.216 313.213 67.128 311.357 67.128C308.941 67.128 307.421 65.256 307.421 62.968C307.421 60.68 308.893 58.808 311.325 58.808C313.709 58.808 315.181 60.52 315.181 62.6ZM308.861 62.088H313.741C313.613 60.856 312.749 59.944 311.325 59.944C310.061 59.944 309.133 60.744 308.861 62.088ZM320.792 69.912V58.936H322.152V60.104C322.584 59.368 323.64 58.808 324.808 58.808C327.288 58.808 328.664 60.6 328.664 62.968C328.664 65.336 327.256 67.128 324.776 67.128C323.752 67.128 322.696 66.616 322.152 65.88V69.912H320.792ZM324.648 65.912C326.248 65.912 327.288 64.744 327.288 62.968C327.288 61.192 326.248 60.024 324.648 60.024C323.08 60.024 322.039 61.192 322.039 62.968C322.039 64.744 323.08 65.912 324.648 65.912ZM331.073 57.416C330.529 57.416 330.129 57 330.129 56.472C330.129 55.928 330.529 55.512 331.073 55.512C331.633 55.512 332.049 55.928 332.049 56.472C332.049 57 331.633 57.416 331.073 57.416ZM330.401 67V58.936H331.761V67H330.401ZM337.499 67.128C335.099 67.128 333.499 65.464 333.499 62.968C333.499 60.472 335.099 58.808 337.499 58.808C339.371 58.808 340.747 59.832 341.035 61.432L339.691 61.704C339.515 60.728 338.667 60.024 337.531 60.024C335.947 60.024 334.923 61.192 334.923 62.968C334.923 64.744 335.947 65.912 337.531 65.912C338.667 65.912 339.499 65.288 339.723 64.216L341.051 64.488C340.699 66.152 339.355 67.128 337.499 67.128ZM346.923 66.936C346.523 67.08 346.091 67.128 345.659 67.128C344.283 67.128 343.275 66.36 343.275 64.584V60.136H341.771V58.936H343.275V56.488H344.635V58.936H346.795V60.136H344.635V64.632C344.635 65.48 345.115 65.896 345.819 65.896C346.139 65.896 346.507 65.848 346.827 65.688L346.923 66.936ZM351.939 67.128C349.539 67.128 347.843 65.384 347.843 62.968C347.843 60.552 349.539 58.808 351.939 58.808C354.323 58.808 356.051 60.552 356.051 62.968C356.051 65.384 354.323 67.128 351.939 67.128ZM351.939 65.912C353.555 65.912 354.643 64.696 354.643 62.968C354.643 61.24 353.555 60.024 351.939 60.024C350.323 60.024 349.235 61.24 349.235 62.968C349.235 64.696 350.323 65.912 351.939 65.912ZM361.936 65.432C363.552 65.432 364.672 66.104 364.672 67.592C364.672 69.208 363.168 70.04 360.96 70.04C358.672 70.04 357.248 69.224 357.248 67.736C357.248 67.032 357.632 66.456 358.112 66.088C357.712 65.816 357.472 65.416 357.472 64.84C357.472 64.136 357.936 63.608 358.56 63.32C358.128 62.856 357.888 62.248 357.888 61.528C357.888 59.896 359.2 58.808 360.944 58.808C361.472 58.808 361.968 58.92 362.416 59.128L363.68 58.04L364.464 58.936L363.392 59.848C363.776 60.296 364 60.872 364 61.528C364 63.192 362.704 64.248 360.944 64.248C360.368 64.248 359.872 64.136 359.44 63.944C358.976 64.152 358.784 64.424 358.784 64.76C358.784 65.256 359.248 65.432 359.776 65.432H361.936ZM360.944 59.912C360.016 59.912 359.216 60.52 359.216 61.528C359.216 62.552 360.016 63.144 360.944 63.144C361.872 63.144 362.672 62.552 362.672 61.528C362.672 60.52 361.872 59.912 360.944 59.912ZM360.96 68.888C362.496 68.888 363.344 68.456 363.344 67.688C363.344 66.824 362.704 66.536 361.744 66.536H360.032C359.744 66.536 359.472 66.52 359.216 66.488C358.72 66.824 358.576 67.256 358.576 67.72C358.576 68.456 359.392 68.888 360.96 68.888ZM370.918 60.264C370.614 60.136 370.23 60.072 369.878 60.072C368.598 60.072 367.558 61.304 367.558 63.928V67H366.198V58.936H367.558V60.568C368.022 59.544 369.078 58.808 370.07 58.808C370.406 58.808 370.726 58.856 370.998 58.952L370.918 60.264ZM375.049 58.808C377.002 58.808 378.362 59.96 378.362 61.832V67H377.018V65.624C376.554 66.552 375.498 67.128 374.33 67.128C372.714 67.128 371.61 66.136 371.61 64.744C371.61 63.192 372.874 62.344 375.45 62.088L377.018 61.912V61.752C377.018 60.648 376.234 59.944 375.049 59.944C373.946 59.944 373.162 60.6 373.049 61.688L371.786 61.448C372.026 59.848 373.354 58.808 375.049 58.808ZM374.538 66.008C376.106 66.008 377.018 64.968 377.018 63.352V62.968L375.45 63.144C373.818 63.32 372.97 63.88 372.97 64.728C372.97 65.48 373.61 66.008 374.538 66.008ZM380.573 67V58.936H381.933V60.456C382.333 59.496 383.133 58.808 384.365 58.808C385.677 58.808 386.701 59.416 386.989 60.504C387.421 59.544 388.381 58.808 389.597 58.808C391.325 58.808 392.413 59.896 392.413 61.592V67H391.053V61.864C391.053 60.76 390.429 60.008 389.293 60.008C387.917 60.008 387.165 61.24 387.165 62.952V67H385.805V61.864C385.805 60.76 385.181 60.008 384.061 60.008C382.685 60.008 381.933 61.24 381.933 62.952V67H380.573ZM395.596 67.128C395.02 67.128 394.62 66.728 394.62 66.168C394.62 65.624 395.02 65.208 395.596 65.208C396.14 65.208 396.572 65.624 396.572 66.168C396.572 66.728 396.14 67.128 395.596 67.128Z" fill="#53585C"/>
<g clip-path="url(#clip0_429_17987)">
<path d="M32.6547 162.587C32.7057 162.136 32.6557 161.679 32.5083 161.249C32.3554 160.818 32.1049 160.428 31.7764 160.109C31.0244 159.598 30.122 159.355 29.2148 159.419V156.92C30.1298 156.985 31.0389 156.73 31.7869 156.199C32.0979 155.896 32.3373 155.528 32.4875 155.121C32.6376 154.714 32.6948 154.278 32.6547 153.846V150.71C32.5835 149.641 32.9324 148.587 33.627 147.772C34 147.388 34.4535 147.091 34.9548 146.904C35.4639 146.74 36.0008 146.679 36.5336 146.726H40.1198V149.434H38.2483C37.8453 149.424 37.4423 149.455 37.0459 149.528C36.7574 149.578 36.489 149.708 36.2722 149.905C36.0623 150.105 35.9167 150.364 35.854 150.647C35.767 151.066 35.7319 151.495 35.7495 151.923V154.756C35.7846 155.196 35.724 155.638 35.5717 156.052C35.4314 156.479 35.1912 156.866 34.8712 157.182C34.2195 157.727 33.4088 158.046 32.5606 158.091V158.332C33.4144 158.364 34.2292 158.697 34.8607 159.273C35.1545 159.575 35.3887 159.929 35.5508 160.318C35.7055 160.736 35.7731 161.181 35.7495 161.625V164.5C35.7372 164.919 35.7829 165.338 35.8854 165.745C35.9374 166.033 36.0803 166.296 36.2931 166.497C36.512 166.695 36.7852 166.823 37.0773 166.863C37.4776 166.935 37.8835 166.97 38.2901 166.968H40.1093V169.624H36.5336C36.016 169.654 35.4974 169.583 35.0071 169.414C34.517 169.261 34.0621 169.013 33.6688 168.683C33.3011 168.282 33.023 167.808 32.8533 167.292C32.6779 166.778 32.6103 166.234 32.6547 165.692V162.587Z" fill="white"/>
<path d="M51.9343 165.639C51.9734 166.18 51.9008 166.722 51.7209 167.233C51.541 167.744 51.2577 168.212 50.8888 168.609C50.5031 168.956 50.0516 169.223 49.561 169.393C49.0707 169.562 48.5521 169.633 48.0345 169.602H44.4587V166.915H46.3198C46.7264 166.917 47.1324 166.882 47.5326 166.81C47.8247 166.77 48.0979 166.642 48.3168 166.444C48.529 166.242 48.6748 165.979 48.735 165.692C48.8108 165.299 48.8389 164.899 48.8186 164.5V161.656C48.7882 161.207 48.8514 160.757 49.0044 160.334C49.1574 159.911 49.3968 159.524 49.7073 159.199C50.3557 158.604 51.2007 158.269 52.0807 158.258V158.017C51.2353 157.973 50.4274 157.654 49.7805 157.108C49.4621 156.816 49.2091 156.459 49.0382 156.062C48.8719 155.655 48.797 155.216 48.8186 154.776V151.953C48.8331 151.537 48.7838 151.121 48.6723 150.72C48.6121 150.432 48.4663 150.17 48.254 149.967C48.036 149.772 47.7681 149.642 47.4803 149.59C47.0903 149.522 46.6948 149.491 46.2989 149.496H44.4587V146.726H48.0345C48.5678 146.686 49.1032 146.765 49.6028 146.956C50.1017 147.143 50.5545 147.435 50.9306 147.813C51.6191 148.623 51.9675 149.669 51.903 150.73V153.867C51.8642 154.299 51.9213 154.735 52.0703 155.142C52.2221 155.539 52.4616 155.896 52.7708 156.188C53.5168 156.704 54.4175 156.947 55.3219 156.878V159.345C54.4147 159.281 53.5124 159.524 52.7603 160.035C52.4343 160.352 52.1841 160.738 52.0284 161.165C51.8818 161.598 51.8319 162.058 51.8821 162.513L51.9343 165.639Z" fill="white"/>
<path d="M22.6444 132.737C22.6444 131.383 23.7421 130.285 25.0961 130.285H33.3334C34.6874 130.285 35.7851 131.383 35.7851 132.737V142.847C35.7851 143.228 35.8737 143.603 36.0439 143.943L50.4369 172.729C51.2519 174.359 50.0666 176.277 48.2441 176.277H10.1854C8.36295 176.277 7.1776 174.359 7.99265 172.729L22.3856 143.943C22.5558 143.603 22.6444 143.228 22.6444 142.847V132.737Z" fill="#B7CDE1"/>
<rect x="20.1807" y="130.285" width="18.0684" height="4.92774" rx="0.700467" fill="#B7CDE1"/>
<g style="mix-blend-mode:multiply">
<rect x="20.1807" y="130.285" width="18.0684" height="4.92774" rx="0.700467" fill="#B7CDE1"/>
</g>
<path d="M23.0884 149.162C23.3186 148.669 23.8136 148.354 24.3579 148.354H34.0716C34.6159 148.354 35.1109 148.669 35.3411 149.162L45.5316 170.999C45.965 171.928 45.287 172.992 44.2621 172.992H14.1674C13.1424 172.992 12.4645 171.928 12.8979 170.999L23.0884 149.162Z" fill="#DBE6F0"/>
<g style="mix-blend-mode:multiply">
<path d="M32.6547 162.587C32.7057 162.136 32.6557 161.679 32.5083 161.249C32.3554 160.818 32.1049 160.428 31.7764 160.109C31.0244 159.598 30.122 159.355 29.2148 159.419V156.92C30.1298 156.985 31.0389 156.73 31.7869 156.199C32.0979 155.896 32.3373 155.528 32.4875 155.121C32.6376 154.714 32.6948 154.278 32.6547 153.846V150.71C32.5835 149.641 32.9324 148.587 33.627 147.772C34 147.388 34.4535 147.091 34.9548 146.904C35.4639 146.74 36.0008 146.679 36.5336 146.726H40.1198V149.434H38.2483C37.8453 149.424 37.4423 149.455 37.0459 149.528C36.7574 149.578 36.489 149.708 36.2722 149.905C36.0623 150.105 35.9167 150.364 35.854 150.647C35.767 151.066 35.7319 151.495 35.7495 151.923V154.756C35.7846 155.196 35.724 155.638 35.5717 156.052C35.4314 156.479 35.1912 156.866 34.8712 157.182C34.2195 157.727 33.4088 158.046 32.5606 158.091V158.332C33.4144 158.364 34.2292 158.697 34.8607 159.273C35.1545 159.575 35.3887 159.929 35.5508 160.318C35.7055 160.736 35.7731 161.181 35.7495 161.625V164.5C35.7372 164.919 35.7829 165.338 35.8854 165.745C35.9374 166.033 36.0803 166.296 36.2931 166.497C36.512 166.695 36.7852 166.823 37.0773 166.863C37.4776 166.935 37.8835 166.97 38.2901 166.968H40.1093V169.624H36.5336C36.016 169.654 35.4974 169.583 35.0071 169.414C34.517 169.261 34.0621 169.013 33.6688 168.683C33.3011 168.282 33.023 167.808 32.8533 167.292C32.6779 166.778 32.6103 166.234 32.6547 165.692V162.587Z" fill="#42CACD"/>
</g>
<g style="mix-blend-mode:multiply">
<path d="M51.9343 165.639C51.9734 166.18 51.9008 166.722 51.7209 167.233C51.541 167.744 51.2577 168.212 50.8888 168.609C50.5031 168.956 50.0516 169.223 49.561 169.393C49.0707 169.562 48.5521 169.633 48.0345 169.602H44.4587V166.915H46.3198C46.7264 166.917 47.1324 166.882 47.5326 166.81C47.8247 166.77 48.0979 166.642 48.3168 166.444C48.529 166.242 48.6748 165.979 48.735 165.692C48.8108 165.299 48.8389 164.899 48.8186 164.5V161.656C48.7882 161.207 48.8514 160.757 49.0044 160.334C49.1574 159.911 49.3968 159.524 49.7073 159.199C50.3557 158.604 51.2007 158.269 52.0807 158.258V158.017C51.2353 157.973 50.4274 157.654 49.7805 157.108C49.4621 156.816 49.2091 156.459 49.0382 156.062C48.8719 155.655 48.797 155.216 48.8186 154.776V151.953C48.8331 151.537 48.7838 151.121 48.6723 150.72C48.6121 150.432 48.4663 150.17 48.254 149.967C48.036 149.772 47.7681 149.642 47.4803 149.59C47.0903 149.522 46.6948 149.491 46.2989 149.496H44.4587V146.726H48.0345C48.5678 146.686 49.1032 146.765 49.6028 146.956C50.1017 147.143 50.5545 147.435 50.9306 147.813C51.6191 148.623 51.9675 149.669 51.903 150.73V153.867C51.8642 154.299 51.9213 154.735 52.0703 155.142C52.2221 155.539 52.4616 155.896 52.7708 156.188C53.5168 156.704 54.4175 156.947 55.3219 156.878V159.345C54.4147 159.281 53.5124 159.524 52.7603 160.035C52.4343 160.352 52.1841 160.738 52.0284 161.165C51.8818 161.598 51.8319 162.058 51.8821 162.513L51.9343 165.639Z" fill="#42CACD"/>
</g>
</g>
<path d="M0.987697 197.023V191.101H4.77778V191.787H1.75756V193.597H4.22788V194.291H1.75756V197.023H0.987697ZM7.0243 197.083C6.2629 197.159 5.69608 196.871 5.69608 195.983V191.034H6.41518V195.932C6.41518 196.397 6.63514 196.465 6.99046 196.44L7.0243 197.083ZM9.45113 192.692C10.4833 192.692 11.2024 193.301 11.2024 194.291V197.023H10.4917V196.296C10.2464 196.787 9.68801 197.091 9.07043 197.091C8.21597 197.091 7.63223 196.567 7.63223 195.831C7.63223 195.01 8.30057 194.562 9.66263 194.426L10.4917 194.333V194.249C10.4917 193.665 10.0772 193.293 9.45113 193.293C8.86739 193.293 8.45285 193.639 8.39363 194.215L7.72529 194.088C7.85219 193.242 8.55437 192.692 9.45113 192.692ZM9.18041 196.499C10.0095 196.499 10.4917 195.949 10.4917 195.095V194.892L9.66263 194.985C8.79971 195.078 8.35133 195.374 8.35133 195.822C8.35133 196.22 8.68973 196.499 9.18041 196.499ZM13.8013 197.091C12.7692 197.091 12.2108 196.448 12.0247 195.847L12.6423 195.577C12.803 196.076 13.1414 196.482 13.8013 196.482C14.3258 196.482 14.6642 196.177 14.6642 195.831C14.6642 194.739 12.2108 195.441 12.2108 193.826C12.2108 193.149 12.7946 192.692 13.7082 192.692C14.4612 192.692 15.1126 193.115 15.2903 193.741L14.6896 194.003C14.5712 193.563 14.1482 193.284 13.6913 193.284C13.2091 193.284 12.9045 193.479 12.9045 193.817C12.9045 194.731 15.3749 194.062 15.3664 195.822C15.3664 196.567 14.7404 197.091 13.8013 197.091ZM19.1811 197.023L17.5737 194.925L17.0069 195.441V197.023H16.2793V191.034H17.0069V194.494L18.9781 192.76H19.9341L18.1067 194.443L20.0779 197.023H19.1811ZM22.1442 197.023L20.3423 191.101H21.1375L22.5503 196.135L23.9801 191.101H24.7838L26.205 196.135L27.6179 191.101H28.4131L26.6196 197.023H25.8074L24.3861 192.252L22.9479 197.023H22.1442ZM29.4816 191.956C29.194 191.956 28.9825 191.736 28.9825 191.457C28.9825 191.169 29.194 190.949 29.4816 190.949C29.7777 190.949 29.9977 191.169 29.9977 191.457C29.9977 191.736 29.7777 191.956 29.4816 191.956ZM29.1263 197.023V192.76H29.8454V197.023H29.1263ZM33.2773 196.99C33.0658 197.066 32.8374 197.091 32.6089 197.091C31.8814 197.091 31.3484 196.685 31.3484 195.746V193.394H30.5532V192.76H31.3484V191.465H32.0675V192.76H33.2096V193.394H32.0675V195.771C32.0675 196.22 32.3213 196.44 32.6935 196.44C32.8627 196.44 33.0573 196.414 33.2265 196.33L33.2773 196.99ZM34.1908 197.023V191.034H34.9099V193.597C35.2229 192.988 35.7389 192.692 36.365 192.692C37.3294 192.692 37.9639 193.293 37.9639 194.215V197.023H37.2448V194.35C37.2448 193.724 36.8557 193.343 36.2042 193.343C35.4175 193.343 34.9099 194.054 34.9099 195.196V197.023H34.1908ZM39.1651 197.023V191.101H41.3139C42.4307 191.101 43.1244 191.66 43.1244 192.624C43.1244 193.174 42.7437 193.614 42.3461 193.783C42.9467 193.995 43.3866 194.469 43.3866 195.298C43.3866 196.364 42.6591 197.023 41.4408 197.023H39.1651ZM39.935 193.538H41.2801C41.9823 193.538 42.363 193.242 42.363 192.65C42.363 192.057 41.9823 191.761 41.2801 191.761H39.935V193.538ZM39.935 196.33H41.3139C42.1769 196.33 42.6168 195.966 42.6168 195.281C42.6168 194.587 42.1769 194.215 41.3139 194.215H39.935V196.33ZM46.8153 193.462C46.6546 193.394 46.4515 193.36 46.2654 193.36C45.5886 193.36 45.0387 194.012 45.0387 195.399V197.023H44.3196V192.76H45.0387V193.623C45.2841 193.081 45.8424 192.692 46.3669 192.692C46.5446 192.692 46.7138 192.717 46.8576 192.768L46.8153 193.462ZM49 192.692C50.0321 192.692 50.7512 193.301 50.7512 194.291V197.023H50.0406V196.296C49.7952 196.787 49.2369 197.091 48.6193 197.091C47.7648 197.091 47.1811 196.567 47.1811 195.831C47.1811 195.01 47.8494 194.562 49.2115 194.426L50.0406 194.333V194.249C50.0406 193.665 49.626 193.293 49 193.293C48.4162 193.293 48.0017 193.639 47.9425 194.215L47.2741 194.088C47.401 193.242 48.1032 192.692 49 192.692ZM48.7293 196.499C49.5583 196.499 50.0406 195.949 50.0406 195.095V194.892L49.2115 194.985C48.3486 195.078 47.9002 195.374 47.9002 195.822C47.9002 196.22 48.2386 196.499 48.7293 196.499ZM53.7901 197.091C52.5211 197.091 51.6751 196.211 51.6751 194.892C51.6751 193.572 52.5211 192.692 53.7901 192.692C54.7799 192.692 55.5074 193.233 55.6597 194.079L54.9491 194.223C54.856 193.707 54.4076 193.335 53.807 193.335C52.9694 193.335 52.428 193.952 52.428 194.892C52.428 195.831 52.9694 196.448 53.807 196.448C54.4076 196.448 54.8476 196.118 54.966 195.551L55.6682 195.695C55.4821 196.575 54.7714 197.091 53.7901 197.091ZM60.4212 194.697C60.4212 194.798 60.4128 194.951 60.4043 195.027H57.0372C57.088 195.89 57.6294 196.457 58.3993 196.457C59.0507 196.457 59.4991 196.152 59.626 195.619L60.3028 195.78C60.0913 196.609 59.3807 197.091 58.3993 197.091C57.1218 197.091 56.3181 196.101 56.3181 194.892C56.3181 193.682 57.0965 192.692 58.3824 192.692C59.6429 192.692 60.4212 193.597 60.4212 194.697ZM57.0795 194.426H59.6598C59.5922 193.775 59.1353 193.293 58.3824 193.293C57.714 193.293 57.2234 193.716 57.0795 194.426ZM62.7354 197.091C61.7033 197.091 61.145 196.448 60.9588 195.847L61.5764 195.577C61.7372 196.076 62.0756 196.482 62.7354 196.482C63.26 196.482 63.5984 196.177 63.5984 195.831C63.5984 194.739 61.145 195.441 61.145 193.826C61.145 193.149 61.7287 192.692 62.6424 192.692C63.3953 192.692 64.0467 193.115 64.2244 193.741L63.6237 194.003C63.5053 193.563 63.0823 193.284 62.6255 193.284C62.1432 193.284 61.8387 193.479 61.8387 193.817C61.8387 194.731 64.309 194.062 64.3005 195.822C64.3005 196.567 63.6745 197.091 62.7354 197.091Z" fill="#53585C"/>
<g clip-path="url(#clip1_429_17987)">
<g style="mix-blend-mode:multiply">
<path d="M167.194 149.175C171.503 149.175 174.996 145.682 174.996 141.373C174.996 137.063 171.503 133.57 167.194 133.57C162.885 133.57 159.392 137.063 159.392 141.373C159.392 145.682 162.885 149.175 167.194 149.175Z" fill="white"/>
<ellipse cx="167.194" cy="146.3" rx="1.23194" ry="1.23194" fill="white"/>
<rect x="165.962" y="135.213" width="2.46387" height="9.03419" rx="1.23194" fill="white"/>
</g>
<g style="mix-blend-mode:multiply">
<path d="M129.921 170.079V184.789C129.921 185.369 130.392 185.84 130.972 185.84H137.276C137.857 185.84 138.327 185.369 138.327 184.789V170.079C138.327 169.499 137.857 169.028 137.276 169.028H130.972C130.392 169.028 129.921 169.499 129.921 170.079Z" fill="white"/>
<path d="M153.037 153.267V184.788C153.037 185.369 153.507 185.839 154.087 185.839H160.392C160.972 185.839 161.442 185.369 161.442 184.788V153.267C161.442 152.687 160.972 152.217 160.392 152.217H154.087C153.507 152.217 153.037 152.687 153.037 153.267Z" fill="white"/>
<path d="M141.479 161.674V184.789C141.479 185.369 141.95 185.84 142.53 185.84H148.834C149.414 185.84 149.885 185.369 149.885 184.789V161.674C149.885 161.093 149.414 160.623 148.834 160.623H142.53C141.95 160.623 141.479 161.093 141.479 161.674Z" fill="white"/>
<path d="M164.594 144.862V184.789C164.594 185.369 165.065 185.84 165.645 185.84H171.949C172.53 185.84 173 185.369 173 184.789V144.862C173 144.282 172.53 143.812 171.949 143.812H165.645C165.065 143.812 164.594 144.282 164.594 144.862Z" fill="white"/>
</g>
<g style="mix-blend-mode:multiply">
<path d="M167.194 149.175C171.503 149.175 174.996 145.682 174.996 141.373C174.996 137.063 171.503 133.57 167.194 133.57C162.885 133.57 159.392 137.063 159.392 141.373C159.392 145.682 162.885 149.175 167.194 149.175Z" fill="#F05656"/>
<ellipse cx="167.194" cy="146.3" rx="1.23194" ry="1.23194" fill="white"/>
<rect x="165.962" y="135.213" width="2.46387" height="9.03419" rx="1.23194" fill="white"/>
</g>
<g style="mix-blend-mode:multiply">
<path d="M129.922 170.078V184.788C129.922 185.368 130.392 185.839 130.972 185.839H137.276C137.857 185.839 138.327 185.368 138.327 184.788V170.078C138.327 169.498 137.857 169.027 137.276 169.027H130.972C130.392 169.027 129.922 169.498 129.922 170.078Z" fill="#B7CDE1"/>
<path d="M153.037 153.267V184.788C153.037 185.368 153.507 185.838 154.088 185.838H160.392C160.972 185.838 161.442 185.368 161.442 184.788V153.267C161.442 152.686 160.972 152.216 160.392 152.216H154.088C153.507 152.216 153.037 152.686 153.037 153.267Z" fill="#B7CDE1"/>
<path d="M141.479 161.673V184.788C141.479 185.368 141.95 185.839 142.53 185.839H148.834C149.414 185.839 149.885 185.368 149.885 184.788V161.673C149.885 161.092 149.414 160.622 148.834 160.622H142.53C141.95 160.622 141.479 161.092 141.479 161.673Z" fill="#B7CDE1"/>
<path d="M164.595 144.861V184.788C164.595 185.368 165.065 185.839 165.645 185.839H171.95C172.53 185.839 173 185.368 173 184.788V144.861C173 144.281 172.53 143.811 171.95 143.811H165.645C165.065 143.811 164.595 144.281 164.595 144.861Z" fill="#B7CDE1"/>
</g>
</g>
<path d="M99.7715 197.023V191.101H101.92C103.037 191.101 103.731 191.66 103.731 192.624C103.731 193.174 103.35 193.614 102.953 193.783C103.553 193.995 103.993 194.469 103.993 195.298C103.993 196.364 103.266 197.023 102.047 197.023H99.7715ZM100.541 193.538H101.887C102.589 193.538 102.969 193.242 102.969 192.65C102.969 192.057 102.589 191.761 101.887 191.761H100.541V193.538ZM100.541 196.33H101.92C102.783 196.33 103.223 195.966 103.223 195.281C103.223 194.587 102.783 194.215 101.92 194.215H100.541V196.33ZM106.517 192.692C107.549 192.692 108.268 193.301 108.268 194.291V197.023H107.557V196.296C107.312 196.787 106.753 197.091 106.136 197.091C105.281 197.091 104.698 196.567 104.698 195.831C104.698 195.01 105.366 194.562 106.728 194.426L107.557 194.333V194.249C107.557 193.665 107.143 193.293 106.517 193.293C105.933 193.293 105.518 193.639 105.459 194.215L104.791 194.088C104.918 193.242 105.62 192.692 106.517 192.692ZM106.246 196.499C107.075 196.499 107.557 195.949 107.557 195.095V194.892L106.728 194.985C105.865 195.078 105.417 195.374 105.417 195.822C105.417 196.22 105.755 196.499 106.246 196.499ZM111.933 193.462C111.772 193.394 111.569 193.36 111.383 193.36C110.706 193.36 110.156 194.012 110.156 195.399V197.023H109.437V192.76H110.156V193.623C110.401 193.081 110.96 192.692 111.484 192.692C111.662 192.692 111.831 192.717 111.975 192.768L111.933 193.462ZM113.99 197.091C112.958 197.091 112.399 196.448 112.213 195.847L112.831 195.577C112.991 196.076 113.33 196.482 113.99 196.482C114.514 196.482 114.853 196.177 114.853 195.831C114.853 194.739 112.399 195.441 112.399 193.826C112.399 193.149 112.983 192.692 113.897 192.692C114.65 192.692 115.301 193.115 115.479 193.741L114.878 194.003C114.759 193.563 114.336 193.284 113.88 193.284C113.397 193.284 113.093 193.479 113.093 193.817C113.093 194.731 115.563 194.062 115.555 195.822C115.555 196.567 114.929 197.091 113.99 197.091ZM117.838 197.023L116.036 191.101H116.831L118.244 196.135L119.674 191.101H120.478L121.899 196.135L123.312 191.101H124.107L122.314 197.023H121.501L120.08 192.252L118.642 197.023H117.838ZM125.176 191.956C124.888 191.956 124.676 191.736 124.676 191.457C124.676 191.169 124.888 190.949 125.176 190.949C125.472 190.949 125.692 191.169 125.692 191.457C125.692 191.736 125.472 191.956 125.176 191.956ZM124.82 197.023V192.76H125.539V197.023H124.82ZM128.971 196.99C128.76 197.066 128.531 197.091 128.303 197.091C127.575 197.091 127.042 196.685 127.042 195.746V193.394H126.247V192.76H127.042V191.465H127.761V192.76H128.904V193.394H127.761V195.771C127.761 196.22 128.015 196.44 128.387 196.44C128.557 196.44 128.751 196.414 128.92 196.33L128.971 196.99ZM129.885 197.023V191.034H130.604V193.597C130.917 192.988 131.433 192.692 132.059 192.692C133.023 192.692 133.658 193.293 133.658 194.215V197.023H132.939V194.35C132.939 193.724 132.55 193.343 131.898 193.343C131.111 193.343 130.604 194.054 130.604 195.196V197.023H129.885ZM134.859 197.023V191.101H138.59V191.787H135.629V193.529H138.032V194.223H135.629V196.33H138.683V197.023H134.859ZM142.975 197.023H142.163L141.089 195.424L140.014 197.023H139.202L140.683 194.824L139.295 192.76H140.099L141.089 194.223L142.07 192.76H142.882L141.495 194.824L142.975 197.023ZM145.394 197.091C144.125 197.091 143.279 196.211 143.279 194.892C143.279 193.572 144.125 192.692 145.394 192.692C146.384 192.692 147.112 193.233 147.264 194.079L146.553 194.223C146.46 193.707 146.012 193.335 145.411 193.335C144.574 193.335 144.032 193.952 144.032 194.892C144.032 195.831 144.574 196.448 145.411 196.448C146.012 196.448 146.452 196.118 146.57 195.551L147.273 195.695C147.086 196.575 146.376 197.091 145.394 197.091ZM149.717 192.692C150.749 192.692 151.468 193.301 151.468 194.291V197.023H150.758V196.296C150.512 196.787 149.954 197.091 149.336 197.091C148.482 197.091 147.898 196.567 147.898 195.831C147.898 195.01 148.567 194.562 149.929 194.426L150.758 194.333V194.249C150.758 193.665 150.343 193.293 149.717 193.293C149.133 193.293 148.719 193.639 148.66 194.215L147.991 194.088C148.118 193.242 148.82 192.692 149.717 192.692ZM149.446 196.499C150.275 196.499 150.758 195.949 150.758 195.095V194.892L149.929 194.985C149.066 195.078 148.617 195.374 148.617 195.822C148.617 196.22 148.956 196.499 149.446 196.499ZM153.966 197.083C153.204 197.159 152.637 196.871 152.637 195.983V191.034H153.357V195.932C153.357 196.397 153.577 196.465 153.932 196.44L153.966 197.083ZM156.393 192.692C157.425 192.692 158.144 193.301 158.144 194.291V197.023H157.433V196.296C157.188 196.787 156.629 197.091 156.012 197.091C155.157 197.091 154.574 196.567 154.574 195.831C154.574 195.01 155.242 194.562 156.604 194.426L157.433 194.333V194.249C157.433 193.665 157.019 193.293 156.393 193.293C155.809 193.293 155.394 193.639 155.335 194.215L154.667 194.088C154.794 193.242 155.496 192.692 156.393 192.692ZM156.122 196.499C156.951 196.499 157.433 195.949 157.433 195.095V194.892L156.604 194.985C155.741 195.078 155.293 195.374 155.293 195.822C155.293 196.22 155.631 196.499 156.122 196.499ZM159.313 197.023V192.76H160.032V193.563C160.244 193.056 160.667 192.692 161.318 192.692C162.012 192.692 162.553 193.013 162.705 193.589C162.934 193.081 163.441 192.692 164.084 192.692C164.998 192.692 165.573 193.267 165.573 194.164V197.023H164.854V194.308C164.854 193.724 164.524 193.326 163.924 193.326C163.196 193.326 162.798 193.978 162.798 194.883V197.023H162.079V194.308C162.079 193.724 161.749 193.326 161.157 193.326C160.43 193.326 160.032 193.978 160.032 194.883V197.023H159.313ZM168.331 192.692C169.363 192.692 170.082 193.301 170.082 194.291V197.023H169.371V196.296C169.126 196.787 168.568 197.091 167.95 197.091C167.096 197.091 166.512 196.567 166.512 195.831C166.512 195.01 167.18 194.562 168.542 194.426L169.371 194.333V194.249C169.371 193.665 168.957 193.293 168.331 193.293C167.747 193.293 167.332 193.639 167.273 194.215L166.605 194.088C166.732 193.242 167.434 192.692 168.331 192.692ZM168.06 196.499C168.889 196.499 169.371 195.949 169.371 195.095V194.892L168.542 194.985C167.679 195.078 167.231 195.374 167.231 195.822C167.231 196.22 167.569 196.499 168.06 196.499ZM173.494 196.99C173.282 197.066 173.054 197.091 172.825 197.091C172.098 197.091 171.565 196.685 171.565 195.746V193.394H170.77V192.76H171.565V191.465H172.284V192.76H173.426V193.394H172.284V195.771C172.284 196.22 172.538 196.44 172.91 196.44C173.079 196.44 173.274 196.414 173.443 196.33L173.494 196.99ZM174.688 191.956C174.4 191.956 174.189 191.736 174.189 191.457C174.189 191.169 174.4 190.949 174.688 190.949C174.984 190.949 175.204 191.169 175.204 191.457C175.204 191.736 174.984 191.956 174.688 191.956ZM174.333 197.023V192.76H175.052V197.023H174.333ZM178.137 197.091C176.868 197.091 175.971 196.169 175.971 194.892C175.971 193.614 176.868 192.692 178.137 192.692C179.397 192.692 180.311 193.614 180.311 194.892C180.311 196.169 179.397 197.091 178.137 197.091ZM178.137 196.448C178.991 196.448 179.567 195.805 179.567 194.892C179.567 193.978 178.991 193.335 178.137 193.335C177.282 193.335 176.707 193.978 176.707 194.892C176.707 195.805 177.282 196.448 178.137 196.448ZM181.231 197.023V192.76H181.95V193.563C182.246 193.056 182.763 192.692 183.414 192.692C184.302 192.692 184.937 193.293 184.937 194.198V197.023H184.218V194.333C184.218 193.758 183.854 193.343 183.253 193.343C182.458 193.343 181.95 194.029 181.95 195.154V197.023H181.231ZM186.14 197.023V191.101H187.07L189.067 195.907L191.063 191.101H191.994V197.023H191.232V192.557L189.388 197.023H188.745L186.892 192.557V197.023H186.14ZM194.776 192.692C195.809 192.692 196.528 193.301 196.528 194.291V197.023H195.817V196.296C195.572 196.787 195.013 197.091 194.396 197.091C193.541 197.091 192.958 196.567 192.958 195.831C192.958 195.01 193.626 194.562 194.988 194.426L195.817 194.333V194.249C195.817 193.665 195.403 193.293 194.776 193.293C194.193 193.293 193.778 193.639 193.719 194.215L193.051 194.088C193.178 193.242 193.88 192.692 194.776 192.692ZM194.506 196.499C195.335 196.499 195.817 195.949 195.817 195.095V194.892L194.988 194.985C194.125 195.078 193.677 195.374 193.677 195.822C193.677 196.22 194.015 196.499 194.506 196.499ZM200.193 193.462C200.032 193.394 199.829 193.36 199.643 193.36C198.966 193.36 198.416 194.012 198.416 195.399V197.023H197.697V192.76H198.416V193.623C198.661 193.081 199.22 192.692 199.744 192.692C199.922 192.692 200.091 192.717 200.235 192.768L200.193 193.462ZM203.837 197.023L202.23 194.925L201.663 195.441V197.023H200.936V191.034H201.663V194.494L203.634 192.76H204.59L202.763 194.443L204.734 197.023H203.837Z" fill="#53585C"/>
<rect x="265.789" y="134.392" width="11.4981" height="2.46387" rx="1.0507" fill="white"/>
<path d="M276.019 148.035H276.95C280.586 148.106 284.046 149.609 286.572 152.216C289.097 154.823 290.483 158.321 290.426 161.944V174.635C290.426 175.117 290.238 175.581 289.901 175.927C289.564 176.273 289.104 176.475 288.621 176.489H264.311C263.825 176.475 263.364 176.272 263.027 175.924C262.692 175.578 262.505 175.116 262.506 174.635V161.944C262.448 158.315 263.839 154.811 266.373 152.203C268.907 149.595 272.377 148.096 276.019 148.035Z" fill="#B7CDE1"/>
<path d="M276.414 146.972C278.064 146.972 279.677 146.482 281.049 145.566C282.421 144.649 283.491 143.346 284.122 141.821C284.754 140.297 284.919 138.619 284.597 137.001C284.275 135.382 283.48 133.896 282.314 132.729C281.147 131.562 279.66 130.767 278.042 130.445C276.423 130.124 274.746 130.289 273.221 130.92C271.697 131.552 270.394 132.621 269.477 133.993C268.56 135.365 268.071 136.978 268.071 138.628C268.071 140.841 268.95 142.963 270.514 144.528C272.079 146.093 274.201 146.972 276.414 146.972Z" fill="#B7CDE1"/>
<g style="mix-blend-mode:multiply">
<rect x="265.789" y="134.392" width="11.4981" height="2.46387" rx="1.0507" fill="#B7CDE1"/>
</g>
<g style="mix-blend-mode:multiply">
<path d="M275.318 144.099C275.188 144.464 275.378 144.869 275.756 144.951C276.363 145.081 276.989 145.104 277.607 145.019C278.457 144.902 279.266 144.581 279.966 144.085C280.665 143.588 281.235 142.93 281.627 142.167C281.911 141.612 282.096 141.013 282.173 140.398C282.221 140.014 281.901 139.701 281.514 139.703L280.944 139.706C280.557 139.709 280.253 140.028 280.175 140.407C280.114 140.705 280.013 140.995 279.873 141.267C279.626 141.749 279.266 142.164 278.825 142.477C278.384 142.79 277.873 142.992 277.337 143.067C277.033 143.108 276.726 143.109 276.425 143.068C276.041 143.016 275.64 143.198 275.51 143.562L275.318 144.099Z" fill="#B7CDE1"/>
</g>
<path d="M294.945 172.992C297.625 172.992 300.245 172.197 302.474 170.708C304.702 169.219 306.439 167.103 307.465 164.627C308.49 162.151 308.759 159.426 308.236 156.797C307.713 154.169 306.422 151.754 304.527 149.859C302.632 147.964 300.217 146.673 297.589 146.15C294.96 145.627 292.235 145.896 289.759 146.921C287.283 147.947 285.167 149.684 283.677 151.912C282.188 154.141 281.394 156.761 281.394 159.441C281.394 163.035 282.821 166.482 285.363 169.023C287.904 171.565 291.351 172.992 294.945 172.992Z" fill="#FEB452"/>
<g style="mix-blend-mode:multiply">
<path fill-rule="evenodd" clip-rule="evenodd" d="M300.946 167.247C300.846 167.347 300.711 167.404 300.569 167.405H289.321C289.179 167.404 289.044 167.347 288.943 167.247C288.843 167.147 288.787 167.011 288.785 166.87V155.621C288.787 155.48 288.843 155.344 288.943 155.244C289.044 155.144 289.179 155.087 289.321 155.086H292.486C292.235 154.654 292.103 154.163 292.102 153.664C292.101 153.164 292.232 152.673 292.481 152.24C292.731 151.808 293.09 151.448 293.522 151.198C293.955 150.948 294.445 150.816 294.945 150.816C295.444 150.816 295.935 150.948 296.368 151.198C296.8 151.448 297.159 151.808 297.408 152.24C297.658 152.673 297.789 153.164 297.788 153.664C297.787 154.163 297.655 154.654 297.404 155.086H300.569C300.711 155.087 300.846 155.144 300.946 155.244C301.047 155.344 301.103 155.48 301.105 155.621V158.498C300.865 158.432 300.612 158.397 300.351 158.397C298.781 158.397 297.508 159.67 297.508 161.24C297.508 162.81 298.781 164.083 300.351 164.083C300.612 164.083 300.865 164.048 301.105 163.982V166.87C301.103 167.011 301.047 167.147 300.946 167.247Z" fill="#FEB452"/>
</g>
<path d="M240.662 197.023V191.101H242.912C244.062 191.101 244.807 191.778 244.807 192.819C244.807 193.859 244.062 194.536 242.912 194.536H241.431V197.023H240.662ZM241.431 193.842H242.887C243.589 193.842 244.012 193.462 244.012 192.819C244.012 192.176 243.589 191.787 242.887 191.787H241.431V193.842ZM249.294 194.697C249.294 194.798 249.285 194.951 249.277 195.027H245.91C245.961 195.89 246.502 196.457 247.272 196.457C247.923 196.457 248.372 196.152 248.499 195.619L249.175 195.78C248.964 196.609 248.253 197.091 247.272 197.091C245.994 197.091 245.191 196.101 245.191 194.892C245.191 193.682 245.969 192.692 247.255 192.692C248.515 192.692 249.294 193.597 249.294 194.697ZM245.952 194.426H248.532C248.465 193.775 248.008 193.293 247.255 193.293C246.587 193.293 246.096 193.716 245.952 194.426ZM252.715 193.462C252.555 193.394 252.351 193.36 252.165 193.36C251.489 193.36 250.939 194.012 250.939 195.399V197.023H250.22V192.76H250.939V193.623C251.184 193.081 251.742 192.692 252.267 192.692C252.445 192.692 252.614 192.717 252.758 192.768L252.715 193.462ZM254.772 197.091C253.74 197.091 253.182 196.448 252.996 195.847L253.613 195.577C253.774 196.076 254.112 196.482 254.772 196.482C255.297 196.482 255.635 196.177 255.635 195.831C255.635 194.739 253.182 195.441 253.182 193.826C253.182 193.149 253.766 192.692 254.679 192.692C255.432 192.692 256.084 193.115 256.261 193.741L255.661 194.003C255.542 193.563 255.119 193.284 254.662 193.284C254.18 193.284 253.875 193.479 253.875 193.817C253.875 194.731 256.346 194.062 256.337 195.822C256.337 196.567 255.711 197.091 254.772 197.091ZM259.138 197.091C257.869 197.091 256.972 196.169 256.972 194.892C256.972 193.614 257.869 192.692 259.138 192.692C260.398 192.692 261.312 193.614 261.312 194.892C261.312 196.169 260.398 197.091 259.138 197.091ZM259.138 196.448C259.992 196.448 260.567 195.805 260.567 194.892C260.567 193.978 259.992 193.335 259.138 193.335C258.283 193.335 257.708 193.978 257.708 194.892C257.708 195.805 258.283 196.448 259.138 196.448ZM262.232 197.023V192.76H262.951V193.563C263.247 193.056 263.763 192.692 264.415 192.692C265.303 192.692 265.938 193.293 265.938 194.198V197.023H265.218V194.333C265.218 193.758 264.855 193.343 264.254 193.343C263.459 193.343 262.951 194.029 262.951 195.154V197.023H262.232ZM268.477 197.023L266.675 191.101H267.47L268.883 196.135L270.313 191.101H271.117L272.538 196.135L273.951 191.101H274.746L272.952 197.023H272.14L270.719 192.252L269.281 197.023H268.477ZM275.814 191.956C275.527 191.956 275.315 191.736 275.315 191.457C275.315 191.169 275.527 190.949 275.814 190.949C276.111 190.949 276.331 191.169 276.331 191.457C276.331 191.736 276.111 191.956 275.814 191.956ZM275.459 197.023V192.76H276.178V197.023H275.459ZM279.61 196.99C279.399 197.066 279.17 197.091 278.942 197.091C278.214 197.091 277.681 196.685 277.681 195.746V193.394H276.886V192.76H277.681V191.465H278.4V192.76H279.542V193.394H278.4V195.771C278.4 196.22 278.654 196.44 279.026 196.44C279.196 196.44 279.39 196.414 279.559 196.33L279.61 196.99ZM280.524 197.023V191.034H281.243V193.597C281.556 192.988 282.072 192.692 282.698 192.692C283.662 192.692 284.297 193.293 284.297 194.215V197.023H283.578V194.35C283.578 193.724 283.188 193.343 282.537 193.343C281.75 193.343 281.243 194.054 281.243 195.196V197.023H280.524ZM285.498 197.023V191.101H287.748C288.899 191.101 289.643 191.778 289.643 192.819C289.643 193.859 288.899 194.536 287.748 194.536H286.268V197.023H285.498ZM286.268 193.842H287.723C288.425 193.842 288.848 193.462 288.848 192.819C288.848 192.176 288.425 191.787 287.723 191.787H286.268V193.842ZM294.06 192.76V197.023H293.341V196.22C293.045 196.727 292.529 197.091 291.878 197.091C290.989 197.091 290.355 196.49 290.355 195.585V192.76H291.074V195.45C291.074 196.025 291.438 196.44 292.039 196.44C292.834 196.44 293.341 195.754 293.341 194.629V192.76H294.06ZM294.925 197.023V196.474L297.556 193.394H295.077V192.76H298.47V193.309L295.872 196.389H298.487V197.023H294.925ZM299.072 197.023V196.474L301.703 193.394H299.225V192.76H302.617V193.309L300.02 196.389H302.634V197.023H299.072ZM304.852 197.083C304.091 197.159 303.524 196.871 303.524 195.983V191.034H304.243V195.932C304.243 196.397 304.463 196.465 304.819 196.44L304.852 197.083ZM309.547 194.697C309.547 194.798 309.538 194.951 309.53 195.027H306.163C306.213 195.89 306.755 196.457 307.525 196.457C308.176 196.457 308.624 196.152 308.751 195.619L309.428 195.78C309.217 196.609 308.506 197.091 307.525 197.091C306.247 197.091 305.443 196.101 305.443 194.892C305.443 193.682 306.222 192.692 307.508 192.692C308.768 192.692 309.547 193.597 309.547 194.697ZM306.205 194.426H308.785C308.717 193.775 308.261 193.293 307.508 193.293C306.839 193.293 306.349 193.716 306.205 194.426ZM310.506 197.023V191.101H312.756C313.907 191.101 314.652 191.778 314.652 192.819C314.652 193.859 313.907 194.536 312.756 194.536H311.276V197.023H310.506ZM311.276 193.842H312.731C313.433 193.842 313.856 193.462 313.856 192.819C313.856 192.176 313.433 191.787 312.731 191.787H311.276V193.842ZM315.801 191.956C315.514 191.956 315.302 191.736 315.302 191.457C315.302 191.169 315.514 190.949 315.801 190.949C316.097 190.949 316.317 191.169 316.317 191.457C316.317 191.736 316.097 191.956 315.801 191.956ZM315.446 197.023V192.76H316.165V197.023H315.446ZM321.187 194.697C321.187 194.798 321.179 194.951 321.17 195.027H317.803C317.854 195.89 318.395 196.457 319.165 196.457C319.817 196.457 320.265 196.152 320.392 195.619L321.069 195.78C320.857 196.609 320.147 197.091 319.165 197.091C317.888 197.091 317.084 196.101 317.084 194.892C317.084 193.682 317.862 192.692 319.148 192.692C320.409 192.692 321.187 193.597 321.187 194.697ZM317.846 194.426H320.426C320.358 193.775 319.901 193.293 319.148 193.293C318.48 193.293 317.989 193.716 317.846 194.426ZM323.983 197.091C322.714 197.091 321.868 196.211 321.868 194.892C321.868 193.572 322.714 192.692 323.983 192.692C324.973 192.692 325.7 193.233 325.852 194.079L325.142 194.223C325.049 193.707 324.6 193.335 324 193.335C323.162 193.335 322.621 193.952 322.621 194.892C322.621 195.831 323.162 196.448 324 196.448C324.6 196.448 325.04 196.118 325.159 195.551L325.861 195.695C325.675 196.575 324.964 197.091 323.983 197.091ZM330.614 194.697C330.614 194.798 330.605 194.951 330.597 195.027H327.23C327.281 195.89 327.822 196.457 328.592 196.457C329.243 196.457 329.692 196.152 329.819 195.619L330.495 195.78C330.284 196.609 329.573 197.091 328.592 197.091C327.314 197.091 326.511 196.101 326.511 194.892C326.511 193.682 327.289 192.692 328.575 192.692C329.836 192.692 330.614 193.597 330.614 194.697ZM327.272 194.426H329.852C329.785 193.775 329.328 193.293 328.575 193.293C327.907 193.293 327.416 193.716 327.272 194.426Z" fill="#53585C"/>
<path d="M418.788 141.84C423.83 141.84 428.232 144.542 428.232 151.244V170.306C428.284 170.685 428.185 171.07 427.956 171.377C427.728 171.684 427.387 171.889 427.009 171.948H410.583C409.909 171.948 409.367 171.226 409.367 170.306V151.244C409.343 144.542 413.745 141.84 418.788 141.84Z" fill="white"/>
<path d="M432.052 144.321C433.026 144.321 433.979 144.032 434.789 143.491C435.6 142.949 436.231 142.18 436.604 141.279C436.977 140.379 437.075 139.388 436.885 138.432C436.694 137.476 436.225 136.598 435.536 135.909C434.847 135.22 433.969 134.751 433.013 134.561C432.057 134.37 431.066 134.468 430.166 134.841C429.265 135.214 428.496 135.845 427.954 136.656C427.413 137.466 427.124 138.419 427.124 139.394C427.124 140.7 427.643 141.954 428.567 142.878C429.491 143.802 430.745 144.321 432.052 144.321Z" fill="#42CACD"/>
<path d="M404.949 144.133C405.923 144.133 406.876 143.844 407.686 143.302C408.497 142.761 409.128 141.991 409.501 141.091C409.874 140.19 409.972 139.2 409.782 138.244C409.592 137.288 409.122 136.41 408.433 135.721C407.744 135.031 406.866 134.562 405.91 134.372C404.954 134.182 403.963 134.279 403.063 134.652C402.163 135.025 401.393 135.657 400.851 136.467C400.31 137.278 400.021 138.23 400.021 139.205C400.021 140.512 400.54 141.765 401.464 142.69C402.388 143.614 403.642 144.133 404.949 144.133Z" fill="#FEB452"/>
<path d="M418.787 140.141C419.762 140.141 420.715 139.852 421.525 139.31C422.335 138.769 422.967 137.999 423.34 137.099C423.713 136.198 423.811 135.207 423.62 134.252C423.43 133.296 422.961 132.418 422.272 131.728C421.583 131.039 420.705 130.57 419.749 130.38C418.793 130.19 417.802 130.287 416.902 130.66C416.001 131.033 415.232 131.665 414.69 132.475C414.149 133.286 413.86 134.238 413.86 135.213C413.86 136.52 414.379 137.773 415.303 138.697C416.227 139.621 417.48 140.141 418.787 140.141Z" fill="#FE90A0"/>
<path d="M404.949 146.145C409.991 146.145 414.393 148.847 414.393 155.548V174.635C414.445 175.015 414.346 175.399 414.117 175.707C413.889 176.014 413.548 176.219 413.17 176.278H396.744C396.079 176.278 395.528 175.555 395.528 174.635V155.548C395.504 148.847 399.906 146.145 404.949 146.145Z" fill="#B7CDE1"/>
<path d="M432.027 146.145C437.069 146.145 441.472 148.847 441.472 155.548V174.635C441.523 175.015 441.424 175.399 441.195 175.707C440.967 176.014 440.626 176.219 440.248 176.278H423.822C423.157 176.278 422.607 175.555 422.607 174.635V155.548C422.582 148.847 426.984 146.145 432.027 146.145Z" fill="#B7CDE1"/>
<g style="mix-blend-mode:multiply">
<path d="M418.788 141.841C423.83 141.841 428.232 144.543 428.232 151.245V170.307C428.284 170.686 428.185 171.071 427.956 171.378C427.728 171.685 427.387 171.89 427.009 171.949H410.583C409.909 171.949 409.367 171.227 409.367 170.307V151.245C409.343 144.543 413.745 141.841 418.788 141.841Z" fill="#B7CDE1"/>
</g>
<path d="M366.569 197.023V191.101H368.819C369.97 191.101 370.714 191.778 370.714 192.819C370.714 193.859 369.97 194.536 368.819 194.536H367.339V197.023H366.569ZM367.339 193.842H368.794C369.496 193.842 369.919 193.462 369.919 192.819C369.919 192.176 369.496 191.787 368.794 191.787H367.339V193.842ZM375.201 194.697C375.201 194.798 375.193 194.951 375.184 195.027H371.817C371.868 195.89 372.409 196.457 373.179 196.457C373.831 196.457 374.279 196.152 374.406 195.619L375.083 195.78C374.871 196.609 374.161 197.091 373.179 197.091C371.902 197.091 371.098 196.101 371.098 194.892C371.098 193.682 371.876 192.692 373.162 192.692C374.423 192.692 375.201 193.597 375.201 194.697ZM371.859 194.426H374.44C374.372 193.775 373.915 193.293 373.162 193.293C372.494 193.293 372.003 193.716 371.859 194.426ZM378.047 197.091C376.778 197.091 375.882 196.169 375.882 194.892C375.882 193.614 376.778 192.692 378.047 192.692C379.308 192.692 380.222 193.614 380.222 194.892C380.222 196.169 379.308 197.091 378.047 197.091ZM378.047 196.448C378.902 196.448 379.477 195.805 379.477 194.892C379.477 193.978 378.902 193.335 378.047 193.335C377.193 193.335 376.618 193.978 376.618 194.892C376.618 195.805 377.193 196.448 378.047 196.448ZM381.142 198.563V192.76H381.861V193.377C382.089 192.988 382.648 192.692 383.265 192.692C384.577 192.692 385.304 193.639 385.304 194.892C385.304 196.144 384.56 197.091 383.248 197.091C382.707 197.091 382.149 196.82 381.861 196.431V198.563H381.142ZM383.181 196.448C384.027 196.448 384.577 195.831 384.577 194.892C384.577 193.952 384.027 193.335 383.181 193.335C382.352 193.335 381.802 193.952 381.802 194.892C381.802 195.831 382.352 196.448 383.181 196.448ZM387.551 197.083C386.79 197.159 386.223 196.871 386.223 195.983V191.034H386.942V195.932C386.942 196.397 387.162 196.465 387.517 196.44L387.551 197.083ZM392.245 194.697C392.245 194.798 392.237 194.951 392.228 195.027H388.861C388.912 195.89 389.453 196.457 390.223 196.457C390.875 196.457 391.323 196.152 391.45 195.619L392.127 195.78C391.915 196.609 391.204 197.091 390.223 197.091C388.946 197.091 388.142 196.101 388.142 194.892C388.142 193.682 388.92 192.692 390.206 192.692C391.467 192.692 392.245 193.597 392.245 194.697ZM388.903 194.426H391.484C391.416 193.775 390.959 193.293 390.206 193.293C389.538 193.293 389.047 193.716 388.903 194.426ZM394.541 197.023L392.739 191.101H393.535L394.947 196.135L396.377 191.101H397.181L398.602 196.135L400.015 191.101H400.81L399.017 197.023H398.205L396.783 192.252L395.345 197.023H394.541ZM401.879 191.956C401.591 191.956 401.38 191.736 401.38 191.457C401.38 191.169 401.591 190.949 401.879 190.949C402.175 190.949 402.395 191.169 402.395 191.457C402.395 191.736 402.175 191.956 401.879 191.956ZM401.523 197.023V192.76H402.243V197.023H401.523ZM405.674 196.99C405.463 197.066 405.234 197.091 405.006 197.091C404.278 197.091 403.746 196.685 403.746 195.746V193.394H402.95V192.76H403.746V191.465H404.465V192.76H405.607V193.394H404.465V195.771C404.465 196.22 404.718 196.44 405.091 196.44C405.26 196.44 405.454 196.414 405.624 196.33L405.674 196.99ZM406.588 197.023V191.034H407.307V193.597C407.62 192.988 408.136 192.692 408.762 192.692C409.727 192.692 410.361 193.293 410.361 194.215V197.023H409.642V194.35C409.642 193.724 409.253 193.343 408.601 193.343C407.815 193.343 407.307 194.054 407.307 195.196V197.023H406.588ZM414.168 197.091C412.679 197.091 411.292 196.101 411.292 194.062C411.292 192.024 412.687 191.034 414.168 191.034C415.462 191.034 416.418 191.761 416.664 192.903L415.902 193.073C415.716 192.218 415.082 191.719 414.159 191.719C412.958 191.719 412.087 192.548 412.087 194.062C412.087 195.577 412.958 196.397 414.159 196.397C415.082 196.397 415.682 195.924 415.894 195.103L416.664 195.264C416.368 196.38 415.445 197.091 414.168 197.091ZM419.488 197.091C418.219 197.091 417.322 196.169 417.322 194.892C417.322 193.614 418.219 192.692 419.488 192.692C420.749 192.692 421.662 193.614 421.662 194.892C421.662 196.169 420.749 197.091 419.488 197.091ZM419.488 196.448C420.343 196.448 420.918 195.805 420.918 194.892C420.918 193.978 420.343 193.335 419.488 193.335C418.634 193.335 418.058 193.978 418.058 194.892C418.058 195.805 418.634 196.448 419.488 196.448ZM423.911 197.083C423.149 197.159 422.583 196.871 422.583 195.983V191.034H423.302V195.932C423.302 196.397 423.522 196.465 423.877 196.44L423.911 197.083ZM426.668 197.091C425.399 197.091 424.502 196.169 424.502 194.892C424.502 193.614 425.399 192.692 426.668 192.692C427.928 192.692 428.842 193.614 428.842 194.892C428.842 196.169 427.928 197.091 426.668 197.091ZM426.668 196.448C427.522 196.448 428.097 195.805 428.097 194.892C428.097 193.978 427.522 193.335 426.668 193.335C425.813 193.335 425.238 193.978 425.238 194.892C425.238 195.805 425.813 196.448 426.668 196.448ZM433.467 192.76V197.023H432.748V196.22C432.452 196.727 431.936 197.091 431.285 197.091C430.396 197.091 429.762 196.49 429.762 195.585V192.76H430.481V195.45C430.481 196.025 430.845 196.44 431.446 196.44C432.241 196.44 432.748 195.754 432.748 194.629V192.76H433.467ZM437.132 193.462C436.971 193.394 436.768 193.36 436.582 193.36C435.905 193.36 435.356 194.012 435.356 195.399V197.023H434.636V192.76H435.356V193.623C435.601 193.081 436.159 192.692 436.684 192.692C436.861 192.692 437.031 192.717 437.174 192.768L437.132 193.462ZM441.534 194.697C441.534 194.798 441.526 194.951 441.518 195.027H438.15C438.201 195.89 438.743 196.457 439.513 196.457C440.164 196.457 440.612 196.152 440.739 195.619L441.416 195.78C441.205 196.609 440.494 197.091 439.513 197.091C438.235 197.091 437.431 196.101 437.431 194.892C437.431 193.682 438.21 192.692 439.496 192.692C440.756 192.692 441.534 193.597 441.534 194.697ZM438.193 194.426H440.773C440.705 193.775 440.249 193.293 439.496 193.293C438.827 193.293 438.337 193.716 438.193 194.426ZM444.271 197.091C442.942 197.091 442.215 196.144 442.215 194.892C442.215 193.639 442.942 192.692 444.262 192.692C444.829 192.692 445.387 192.971 445.658 193.369V191.034H446.377V197.023H445.658V196.406C445.464 196.795 444.897 197.091 444.271 197.091ZM444.338 196.448C445.176 196.448 445.726 195.831 445.726 194.892C445.726 193.952 445.176 193.335 444.338 193.335C443.501 193.335 442.951 193.952 442.951 194.892C442.951 195.831 443.501 196.448 444.338 196.448ZM451.416 191.101H452.186V197.023H451.416V194.249H448.345V197.023H447.575V191.101H448.345V193.555H451.416V191.101ZM457.248 194.697C457.248 194.798 457.24 194.951 457.231 195.027H453.864C453.915 195.89 454.456 196.457 455.226 196.457C455.878 196.457 456.326 196.152 456.453 195.619L457.13 195.78C456.918 196.609 456.208 197.091 455.226 197.091C453.949 197.091 453.145 196.101 453.145 194.892C453.145 193.682 453.923 192.692 455.209 192.692C456.47 192.692 457.248 193.597 457.248 194.697ZM453.907 194.426H456.487C456.419 193.775 455.962 193.293 455.209 193.293C454.541 193.293 454.05 193.716 453.907 194.426ZM459.723 192.692C460.755 192.692 461.474 193.301 461.474 194.291V197.023H460.764V196.296C460.518 196.787 459.96 197.091 459.343 197.091C458.488 197.091 457.904 196.567 457.904 195.831C457.904 195.01 458.573 194.562 459.935 194.426L460.764 194.333V194.249C460.764 193.665 460.349 193.293 459.723 193.293C459.139 193.293 458.725 193.639 458.666 194.215L457.997 194.088C458.124 193.242 458.826 192.692 459.723 192.692ZM459.452 196.499C460.282 196.499 460.764 195.949 460.764 195.095V194.892L459.935 194.985C459.072 195.078 458.623 195.374 458.623 195.822C458.623 196.22 458.962 196.499 459.452 196.499ZM464.454 197.091C463.126 197.091 462.398 196.144 462.398 194.892C462.398 193.639 463.126 192.692 464.446 192.692C465.012 192.692 465.571 192.971 465.842 193.369V191.034H466.561V197.023H465.842V196.406C465.647 196.795 465.08 197.091 464.454 197.091ZM464.522 196.448C465.359 196.448 465.909 195.831 465.909 194.892C465.909 193.952 465.359 193.335 464.522 193.335C463.684 193.335 463.134 193.952 463.134 194.892C463.134 195.831 463.684 196.448 464.522 196.448ZM469.154 197.091C468.122 197.091 467.564 196.448 467.378 195.847L467.995 195.577C468.156 196.076 468.494 196.482 469.154 196.482C469.679 196.482 470.017 196.177 470.017 195.831C470.017 194.739 467.564 195.441 467.564 193.826C467.564 193.149 468.148 192.692 469.061 192.692C469.814 192.692 470.466 193.115 470.643 193.741L470.043 194.003C469.924 193.563 469.501 193.284 469.044 193.284C468.562 193.284 468.258 193.479 468.258 193.817C468.258 194.731 470.728 194.062 470.719 195.822C470.719 196.567 470.093 197.091 469.154 197.091Z" fill="#53585C"/>
<defs>
<clipPath id="clip0_429_17987">
<rect width="52.5626" height="52.5626" fill="white" transform="translate(6.21875 127)"/>
</clipPath>
<clipPath id="clip1_429_17987">
<rect width="52.5626" height="52.5626" fill="white" transform="translate(125.719 127)"/>
</clipPath>
</defs>
</svg>
